<svg version="1.1" viewBox="0.0 0.0 1231.007874015748 1054.5564304461943" fill="none" stroke="none" stroke-linecap="square" stroke-miterlimit="10" xmlns:xlink="http://www.w3.org/1999/xlink" xmlns="http://www.w3.org/2000/svg"><clipPath id="p.0"><path d="m0 0l1231.0079 0l0 1054.5564l-1231.0079 0l0 -1054.5564z" clip-rule="nonzero"/></clipPath><g clip-path="url(#p.0)"><path fill="#000000" fill-opacity="0.0" d="m0 0l1231.0079 0l0 1054.5564l-1231.0079 0z" fill-rule="evenodd"/><path fill="#cfe2f3" d="m190.08923 47.884514l84.22049 0l0 58.960632l-84.22049 0z" fill-rule="evenodd"/><path stroke="#a4c2f4" stroke-width="1.0" stroke-linejoin="round" stroke-linecap="butt" d="m190.08923 47.884514l84.22049 0l0 58.960632l-84.22049 0z" fill-rule="evenodd"/><path fill="#000000" d="m219.69753 85.90483l4.546875 -6.46875l-4.203125 -5.984375l2.640625 0l1.90625 2.921875q0.546875 0.828125 0.875 1.390625q0.515625 -0.765625 0.9375 -1.359375l2.109375 -2.953125l2.515625 0l-4.296875 5.859375l4.625 6.59375l-2.59375 0l-2.546875 -3.875l-0.6875 -1.03125l-3.265625 4.90625l-2.5625 0zm20.765625 0l-2.109375 0l0 -13.4375q-0.75 0.71875 -2.0 1.453125q-1.234375 0.71875 -2.21875 1.078125l0 -2.03125q1.78125 -0.828125 3.09375 -2.015625q1.328125 -1.1875 1.875 -2.296875l1.359375 0l0 17.25z" fill-rule="nonzero"/><path fill="#f4cccc" d="m150.38846 164.5853l166.01575 0l0 66.17323l-166.01575 0z" fill-rule="evenodd"/><path stroke="#ea9999" stroke-width="1.0" stroke-linejoin="round" stroke-linecap="butt" d="m150.38846 164.5853l166.01575 0l0 66.17323l-166.01575 0z" fill-rule="evenodd"/><path fill="#000000" d="m193.15024 206.21191l0 -17.1875l2.265625 0l0 15.15625l8.46875 0l0 2.03125l-10.734375 0zm12.660156 -5.515625l2.140625 -0.1875q0.15625 1.28125 0.703125 2.109375q0.5625 0.828125 1.734375 1.34375q1.171875 0.5 2.640625 0.5q1.296875 0 2.296875 -0.375q1.0 -0.390625 1.484375 -1.0625q0.484375 -0.6875 0.484375 -1.484375q0 -0.796875 -0.46875 -1.40625q-0.46875 -0.609375 -1.546875 -1.015625q-0.6875 -0.265625 -3.0625 -0.828125q-2.359375 -0.578125 -3.3125 -1.078125q-1.234375 -0.640625 -1.84375 -1.59375q-0.59375 -0.96875 -0.59375 -2.140625q0 -1.3125 0.734375 -2.4375q0.75 -1.125 2.15625 -1.703125q1.421875 -0.59375 3.15625 -0.59375q1.90625 0 3.359375 0.609375q1.46875 0.609375 2.25 1.8125q0.796875 1.1875 0.84375 2.703125l-2.171875 0.171875q-0.171875 -1.640625 -1.1875 -2.46875q-1.015625 -0.828125 -3.0 -0.828125q-2.0625 0 -3.015625 0.765625q-0.9375 0.75 -0.9375 1.8125q0 0.921875 0.671875 1.515625q0.65625 0.609375 3.421875 1.234375q2.78125 0.625 3.8125 1.09375q1.5 0.6875 2.203125 1.75q0.71875 1.0625 0.71875 2.4375q0 1.375 -0.78125 2.59375q-0.78125 1.203125 -2.25 1.890625q-1.46875 0.671875 -3.3125 0.671875q-2.328125 0 -3.90625 -0.671875q-1.578125 -0.6875 -2.484375 -2.046875q-0.890625 -1.375 -0.9375 -3.09375zm21.148438 5.515625l0 -15.15625l-5.65625 0l0 -2.03125l13.625 0l0 2.03125l-5.6875 0l0 15.15625l-2.28125 0zm10.222656 0l0 -17.1875l3.421875 0l4.0625 12.171875q0.5625 1.703125 0.828125 2.546875q0.296875 -0.9375 0.90625 -2.765625l4.125 -11.953125l3.046875 0l0 17.1875l-2.1875 0l0 -14.375l-4.984375 14.375l-2.0625 0l-4.96875 -14.625l0 14.625l-2.1875 0zm33.816406 0l-2.109375 0l0 -13.4375q-0.75 0.71875 -2.0 1.453125q-1.234375 0.71875 -2.21875 1.078125l0 -2.03125q1.78125 -0.828125 3.09375 -2.015625q1.328125 -1.1875 1.875 -2.296875l1.359375 0l0 17.25z" fill-rule="nonzero"/><path fill="#000000" fill-opacity="0.0" d="m232.19948 106.845146l1.1968536 57.732277" fill-rule="evenodd"/><path stroke="#000000" stroke-width="2.0" stroke-linejoin="round" stroke-linecap="butt" d="m232.19948 106.845146l0.9481201 45.734856" fill-rule="evenodd"/><path fill="#000000" stroke="#000000" stroke-width="2.0" stroke-linecap="butt" d="m229.84485 152.64848l3.4908752 9.005768l3.1146393 -9.142715z" fill-rule="evenodd"/><path fill="#f4cccc" d="m385.35434 164.5853l166.01572 0l0 66.17323l-166.01572 0z" fill-rule="evenodd"/><path stroke="#ea9999" stroke-width="1.0" stroke-linejoin="round" stroke-linecap="butt" d="m385.35434 164.5853l166.01572 0l0 66.17323l-166.01572 0z" fill-rule="evenodd"/><path fill="#000000" d="m428.11612 206.21191l0 -17.1875l2.265625 0l0 15.15625l8.46875 0l0 2.03125l-10.734375 0zm12.660156 -5.515625l2.140625 -0.1875q0.15625 1.28125 0.703125 2.109375q0.5625 0.828125 1.734375 1.34375q1.171875 0.5 2.640625 0.5q1.296875 0 2.296875 -0.375q1.0 -0.390625 1.484375 -1.0625q0.484375 -0.6875 0.484375 -1.484375q0 -0.796875 -0.46875 -1.40625q-0.46875 -0.609375 -1.546875 -1.015625q-0.6875 -0.265625 -3.0625 -0.828125q-2.359375 -0.578125 -3.3125 -1.078125q-1.234375 -0.640625 -1.84375 -1.59375q-0.59375 -0.96875 -0.59375 -2.140625q0 -1.3125 0.734375 -2.4375q0.75 -1.125 2.15625 -1.703125q1.421875 -0.59375 3.15625 -0.59375q1.90625 0 3.359375 0.609375q1.46875 0.609375 2.25 1.8125q0.796875 1.1875 0.84375 2.703125l-2.171875 0.171875q-0.171875 -1.640625 -1.1875 -2.46875q-1.015625 -0.828125 -3.0 -0.828125q-2.0625 0 -3.015625 0.765625q-0.9375 0.75 -0.9375 1.8125q0 0.921875 0.671875 1.515625q0.65625 0.609375 3.421875 1.234375q2.78125 0.625 3.8125 1.09375q1.5 0.6875 2.203125 1.75q0.71875 1.0625 0.71875 2.4375q0 1.375 -0.78125 2.59375q-0.78125 1.203125 -2.25 1.890625q-1.46875 0.671875 -3.3125 0.671875q-2.328125 0 -3.90625 -0.671875q-1.578125 -0.6875 -2.484375 -2.046875q-0.890625 -1.375 -0.9375 -3.09375zm21.148438 5.515625l0 -15.15625l-5.65625 0l0 -2.03125l13.625 0l0 2.03125l-5.6875 0l0 15.15625l-2.28125 0zm10.222656 0l0 -17.1875l3.421875 0l4.0625 12.171875q0.5625 1.703125 0.828125 2.546875q0.296875 -0.9375 0.90625 -2.765625l4.125 -11.953125l3.046875 0l0 17.1875l-2.1875 0l0 -14.375l-4.984375 14.375l-2.0625 0l-4.96875 -14.625l0 14.625l-2.1875 0zm33.816406 0l-2.109375 0l0 -13.4375q-0.75 0.71875 -2.0 1.453125q-1.234375 0.71875 -2.21875 1.078125l0 -2.03125q1.78125 -0.828125 3.09375 -2.015625q1.328125 -1.1875 1.875 -2.296875l1.359375 0l0 17.25z" fill-rule="nonzero"/><path fill="#000000" fill-opacity="0.0" d="m316.4042 197.67192l68.944885 0" fill-rule="evenodd"/><path stroke="#ff0000" stroke-width="2.0" stroke-linejoin="round" stroke-linecap="butt" d="m316.4042 197.67192l56.944885 0" fill-rule="evenodd"/><path fill="#ff0000" stroke="#ff0000" stroke-width="2.0" stroke-linecap="butt" d="m373.3491 200.97539l9.076172 -3.3034668l-9.076172 -3.3034668z" fill-rule="evenodd"/><path fill="#cfe2f3" d="m426.25198 47.884514l84.22046 0l0 58.960632l-84.22046 0z" fill-rule="evenodd"/><path stroke="#a4c2f4" stroke-width="1.0" stroke-linejoin="round" stroke-linecap="butt" d="m426.25198 47.884514l84.22046 0l0 58.960632l-84.22046 0z" fill-rule="evenodd"/><path fill="#000000" d="m455.86026 85.90483l4.546875 -6.46875l-4.203125 -5.984375l2.640625 0l1.90625 2.921875q0.546875 0.828125 0.875 1.390625q0.515625 -0.765625 0.9375 -1.359375l2.109375 -2.953125l2.515625 0l-4.296875 5.859375l4.625 6.59375l-2.59375 0l-2.546875 -3.875l-0.6875 -1.03125l-3.265625 4.90625l-2.5625 0zm23.90625 -2.03125l0 2.03125l-11.34375 0q-0.03125 -0.765625 0.234375 -1.46875q0.4375 -1.15625 1.390625 -2.28125q0.953125 -1.125 2.765625 -2.609375q2.796875 -2.296875 3.78125 -3.625q0.984375 -1.34375 0.984375 -2.546875q0 -1.25 -0.90625 -2.109375q-0.890625 -0.859375 -2.328125 -0.859375q-1.515625 0 -2.4375 0.921875q-0.90625 0.90625 -0.921875 2.515625l-2.171875 -0.21875q0.21875 -2.421875 1.671875 -3.6875q1.453125 -1.28125 3.90625 -1.28125q2.46875 0 3.90625 1.375q1.453125 1.359375 1.453125 3.390625q0 1.03125 -0.421875 2.03125q-0.421875 1.0 -1.40625 2.109375q-0.96875 1.09375 -3.25 3.015625q-1.890625 1.59375 -2.4375 2.15625q-0.53125 0.5625 -0.890625 1.140625l8.421875 0z" fill-rule="nonzero"/><path fill="#000000" fill-opacity="0.0" d="m468.3622 106.845146l0 57.732277" fill-rule="evenodd"/><path stroke="#000000" stroke-width="2.0" stroke-linejoin="round" stroke-linecap="butt" d="m468.3622 106.845146l0 45.732277" fill-rule="evenodd"/><path fill="#000000" stroke="#000000" stroke-width="2.0" stroke-linecap="butt" d="m465.05875 152.57742l3.3034668 9.076202l3.3034668 -9.076202z" fill-rule="evenodd"/><path fill="#f4cccc" d="m750.25195 164.5853l166.01575 0l0 66.17323l-166.01575 0z" fill-rule="evenodd"/><path stroke="#ea9999" stroke-width="1.0" stroke-linejoin="round" stroke-linecap="butt" d="m750.25195 164.5853l166.01575 0l0 66.17323l-166.01575 0z" fill-rule="evenodd"/><path fill="#000000" d="m793.01373 206.21191l0 -17.1875l2.265625 0l0 15.15625l8.46875 0l0 2.03125l-10.734375 0zm12.660156 -5.515625l2.140625 -0.1875q0.15625 1.28125 0.703125 2.109375q0.5625 0.828125 1.734375 1.34375q1.171875 0.5 2.640625 0.5q1.296875 0 2.296875 -0.375q1.0 -0.390625 1.484375 -1.0625q0.484375 -0.6875 0.484375 -1.484375q0 -0.796875 -0.46875 -1.40625q-0.46875 -0.609375 -1.546875 -1.015625q-0.6875 -0.265625 -3.0625 -0.828125q-2.359375 -0.578125 -3.3125 -1.078125q-1.234375 -0.640625 -1.84375 -1.59375q-0.59375 -0.96875 -0.59375 -2.140625q0 -1.3125 0.734375 -2.4375q0.75 -1.125 2.15625 -1.703125q1.421875 -0.59375 3.15625 -0.59375q1.90625 0 3.359375 0.609375q1.46875 0.609375 2.25 1.8125q0.796875 1.1875 0.84375 2.703125l-2.171875 0.171875q-0.171875 -1.640625 -1.1875 -2.46875q-1.015625 -0.828125 -3.0 -0.828125q-2.0625 0 -3.015625 0.765625q-0.9375 0.75 -0.9375 1.8125q0 0.921875 0.671875 1.515625q0.65625 0.609375 3.421875 1.234375q2.78125 0.625 3.8125 1.09375q1.5 0.6875 2.203125 1.75q0.71875 1.0625 0.71875 2.4375q0 1.375 -0.78125 2.59375q-0.78125 1.203125 -2.25 1.890625q-1.46875 0.671875 -3.3125 0.671875q-2.328125 0 -3.90625 -0.671875q-1.578125 -0.6875 -2.484375 -2.046875q-0.890625 -1.375 -0.9375 -3.09375zm21.148438 5.515625l0 -15.15625l-5.65625 0l0 -2.03125l13.625 0l0 2.03125l-5.6875 0l0 15.15625l-2.28125 0zm10.222656 0l0 -17.1875l3.421875 0l4.0625 12.171875q0.5625 1.703125 0.828125 2.546875q0.296875 -0.9375 0.90625 -2.765625l4.125 -11.953125l3.046875 0l0 17.1875l-2.1875 0l0 -14.375l-4.984375 14.375l-2.0625 0l-4.96875 -14.625l0 14.625l-2.1875 0zm33.816406 0l-2.109375 0l0 -13.4375q-0.75 0.71875 -2.0 1.453125q-1.234375 0.71875 -2.21875 1.078125l0 -2.03125q1.78125 -0.828125 3.09375 -2.015625q1.328125 -1.1875 1.875 -2.296875l1.359375 0l0 17.25z" fill-rule="nonzero"/><path fill="#000000" fill-opacity="0.0" d="m551.37006 197.67192l198.89764 0" fill-rule="evenodd"/><path stroke="#ff0000" stroke-width="2.0" stroke-linejoin="round" stroke-linecap="butt" d="m551.37006 197.67192l186.89764 0" fill-rule="evenodd"/><path fill="#ff0000" stroke="#ff0000" stroke-width="2.0" stroke-linecap="butt" d="m738.2677 200.97539l9.076233 -3.3034668l-9.076233 -3.3034668z" fill-rule="evenodd"/><path fill="#cfe2f3" d="m791.1496 47.884514l84.22046 0l0 58.960632l-84.22046 0z" fill-rule="evenodd"/><path stroke="#a4c2f4" stroke-width="1.0" stroke-linejoin="round" stroke-linecap="butt" d="m791.1496 47.884514l84.22046 0l0 58.960632l-84.22046 0z" fill-rule="evenodd"/><path fill="#000000" d="m820.7579 85.90483l4.546875 -6.46875l-4.203125 -5.984375l2.640625 0l1.90625 2.921875q0.546875 0.828125 0.875 1.390625q0.515625 -0.765625 0.9375 -1.359375l2.109375 -2.953125l2.515625 0l-4.296875 5.859375l4.625 6.59375l-2.59375 0l-2.546875 -3.875l-0.6875 -1.03125l-3.265625 4.90625l-2.5625 0zm13.40625 0l0 -12.453125l1.90625 0l0 1.78125q1.375 -2.0625 3.953125 -2.0625q1.125 0 2.0625 0.40625q0.953125 0.40625 1.421875 1.0625q0.46875 0.65625 0.65625 1.5625q0.125 0.578125 0.125 2.046875l0 7.65625l-2.109375 0l0 -7.578125q0 -1.28125 -0.25 -1.921875q-0.25 -0.640625 -0.875 -1.015625q-0.625 -0.390625 -1.46875 -0.390625q-1.34375 0 -2.328125 0.859375q-0.984375 0.859375 -0.984375 3.25l0 6.796875l-2.109375 0z" fill-rule="nonzero"/><path fill="#000000" fill-opacity="0.0" d="m833.2598 106.845146l0 57.732277" fill-rule="evenodd"/><path stroke="#000000" stroke-width="2.0" stroke-linejoin="round" stroke-linecap="butt" d="m833.2598 106.845146l0 45.732277" fill-rule="evenodd"/><path fill="#000000" stroke="#000000" stroke-width="2.0" stroke-linecap="butt" d="m829.95636 152.57742l3.3034668 9.076202l3.3034668 -9.076202z" fill-rule="evenodd"/><path fill="#cfe2f3" d="m191.28609 288.4987l84.220474 0l0 58.960632l-84.220474 0z" fill-rule="evenodd"/><path stroke="#a4c2f4" stroke-width="1.0" stroke-linejoin="round" stroke-linecap="butt" d="m191.28609 288.4987l84.220474 0l0 58.960632l-84.220474 0z" fill-rule="evenodd"/><path fill="#000000" d="m214.95297 326.519l0 -17.1875l2.109375 0l0 6.171875q1.484375 -1.71875 3.734375 -1.71875q1.375 0 2.390625 0.546875q1.03125 0.546875 1.46875 1.515625q0.4375 0.953125 0.4375 2.78125l0 7.890625l-2.109375 0l0 -7.890625q0 -1.578125 -0.6875 -2.296875q-0.6875 -0.71875 -1.9375 -0.71875q-0.9375 0 -1.765625 0.484375q-0.828125 0.484375 -1.1875 1.3125q-0.34375 0.828125 -0.34375 2.296875l0 6.8125l-2.109375 0zm20.707031 0l-2.109375 0l0 -13.4375q-0.75 0.71875 -2.0 1.453125q-1.234375 0.71875 -2.21875 1.078125l0 -2.03125q1.78125 -0.828125 3.09375 -2.015625q1.328125 -1.1875 1.875 -2.296875l1.359375 0l0 17.25zm13.347656 0l-2.109375 0l0 -13.4375q-0.75 0.71875 -2.0 1.453125q-1.234375 0.71875 -2.21875 1.078125l0 -2.03125q1.78125 -0.828125 3.09375 -2.015625q1.328125 -1.1875 1.875 -2.296875l1.359375 0l0 17.25z" fill-rule="nonzero"/><path fill="#000000" fill-opacity="0.0" d="m233.39633 230.75853l0 57.732285" fill-rule="evenodd"/><path stroke="#000000" stroke-width="2.0" stroke-linejoin="round" stroke-linecap="butt" d="m233.39633 230.75853l0 45.732285" fill-rule="evenodd"/><path fill="#000000" stroke="#000000" stroke-width="2.0" stroke-linecap="butt" d="m230.09286 276.4908l3.3034668 9.076202l3.3034515 -9.076202z" fill-rule="evenodd"/><path fill="#cfe2f3" d="m426.25198 288.4987l84.22046 0l0 58.960632l-84.22046 0z" fill-rule="evenodd"/><path stroke="#a4c2f4" stroke-width="1.0" stroke-linejoin="round" stroke-linecap="butt" d="m426.25198 288.4987l84.22046 0l0 58.960632l-84.22046 0z" fill-rule="evenodd"/><path fill="#000000" d="m449.91885 326.519l0 -17.1875l2.109375 0l0 6.171875q1.484375 -1.71875 3.734375 -1.71875q1.375 0 2.390625 0.546875q1.03125 0.546875 1.46875 1.515625q0.4375 0.953125 0.4375 2.78125l0 7.890625l-2.109375 0l0 -7.890625q0 -1.578125 -0.6875 -2.296875q-0.6875 -0.71875 -1.9375 -0.71875q-0.9375 0 -1.765625 0.484375q-0.828125 0.484375 -1.1875 1.3125q-0.34375 0.828125 -0.34375 2.296875l0 6.8125l-2.109375 0zm20.707031 0l-2.109375 0l0 -13.4375q-0.75 0.71875 -2.0 1.453125q-1.234375 0.71875 -2.21875 1.078125l0 -2.03125q1.78125 -0.828125 3.09375 -2.015625q1.328125 -1.1875 1.875 -2.296875l1.359375 0l0 17.25zm16.488281 -2.03125l0 2.03125l-11.34375 0q-0.03125 -0.765625 0.234375 -1.46875q0.4375 -1.15625 1.390625 -2.28125q0.953125 -1.125 2.765625 -2.609375q2.796875 -2.296875 3.78125 -3.625q0.984375 -1.34375 0.984375 -2.546875q0 -1.25 -0.90625 -2.109375q-0.890625 -0.859375 -2.328125 -0.859375q-1.515625 0 -2.4375 0.921875q-0.90625 0.90625 -0.921875 2.515625l-2.171875 -0.21875q0.21875 -2.421875 1.671875 -3.6875q1.453125 -1.28125 3.90625 -1.28125q2.46875 0 3.90625 1.375q1.453125 1.359375 1.453125 3.390625q0 1.03125 -0.421875 2.03125q-0.421875 1.0 -1.40625 2.109375q-0.96875 1.09375 -3.25 3.015625q-1.890625 1.59375 -2.4375 2.15625q-0.53125 0.5625 -0.890625 1.140625l8.421875 0z" fill-rule="nonzero"/><path fill="#000000" fill-opacity="0.0" d="m468.3622 230.75853l0 57.732285" fill-rule="evenodd"/><path stroke="#000000" stroke-width="2.0" stroke-linejoin="round" stroke-linecap="butt" d="m468.3622 230.75853l0 45.732285" fill-rule="evenodd"/><path fill="#000000" stroke="#000000" stroke-width="2.0" stroke-linecap="butt" d="m465.05875 276.4908l3.3034668 9.076202l3.3034668 -9.076202z" fill-rule="evenodd"/><path fill="#cfe2f3" d="m791.1496 288.4987l84.22046 0l0 58.960632l-84.22046 0z" fill-rule="evenodd"/><path stroke="#a4c2f4" stroke-width="1.0" stroke-linejoin="round" stroke-linecap="butt" d="m791.1496 288.4987l84.22046 0l0 58.960632l-84.22046 0z" fill-rule="evenodd"/><path fill="#000000" d="m814.81647 326.519l0 -17.1875l2.109375 0l0 6.171875q1.484375 -1.71875 3.734375 -1.71875q1.375 0 2.390625 0.546875q1.03125 0.546875 1.46875 1.515625q0.4375 0.953125 0.4375 2.78125l0 7.890625l-2.109375 0l0 -7.890625q0 -1.578125 -0.6875 -2.296875q-0.6875 -0.71875 -1.9375 -0.71875q-0.9375 0 -1.765625 0.484375q-0.828125 0.484375 -1.1875 1.3125q-0.34375 0.828125 -0.34375 2.296875l0 6.8125l-2.109375 0zm20.707031 0l-2.109375 0l0 -13.4375q-0.75 0.71875 -2.0 1.453125q-1.234375 0.71875 -2.21875 1.078125l0 -2.03125q1.78125 -0.828125 3.09375 -2.015625q1.328125 -1.1875 1.875 -2.296875l1.359375 0l0 17.25zm5.9882812 0l0 -12.453125l1.90625 0l0 1.78125q1.375 -2.0625 3.953125 -2.0625q1.125 0 2.0625 0.40625q0.953125 0.40625 1.421875 1.0625q0.46875 0.65625 0.65625 1.5625q0.125 0.578125 0.125 2.046875l0 7.65625l-2.109375 0l0 -7.578125q0 -1.28125 -0.25 -1.921875q-0.25 -0.640625 -0.875 -1.015625q-0.625 -0.390625 -1.46875 -0.390625q-1.34375 0 -2.328125 0.859375q-0.984375 0.859375 -0.984375 3.25l0 6.796875l-2.109375 0z" fill-rule="nonzero"/><path fill="#000000" fill-opacity="0.0" d="m833.2598 230.75853l0 57.732285" fill-rule="evenodd"/><path stroke="#000000" stroke-width="2.0" stroke-linejoin="round" stroke-linecap="butt" d="m833.2598 230.75853l0 45.732285" fill-rule="evenodd"/><path fill="#000000" stroke="#000000" stroke-width="2.0" stroke-linecap="butt" d="m829.95636 276.4908l3.3034668 9.076202l3.3034668 -9.076202z" fill-rule="evenodd"/><path fill="#f4cccc" d="m149.1916 405.19946l166.01573 0l0 66.17325l-166.01573 0z" fill-rule="evenodd"/><path stroke="#ea9999" stroke-width="1.0" stroke-linejoin="round" stroke-linecap="butt" d="m149.1916 405.19946l166.01573 0l0 66.17325l-166.01573 0z" fill-rule="evenodd"/><path fill="#000000" d="m191.95338 446.82608l0 -17.1875l2.265625 0l0 15.15625l8.46875 0l0 2.03125l-10.734375 0zm12.660156 -5.515625l2.140625 -0.1875q0.15625 1.28125 0.703125 2.109375q0.5625 0.828125 1.734375 1.34375q1.171875 0.5 2.640625 0.5q1.296875 0 2.296875 -0.375q1.0 -0.390625 1.484375 -1.0625q0.484375 -0.6875 0.484375 -1.484375q0 -0.796875 -0.46875 -1.40625q-0.46875 -0.609375 -1.546875 -1.015625q-0.6875 -0.265625 -3.0625 -0.828125q-2.359375 -0.578125 -3.3125 -1.078125q-1.234375 -0.640625 -1.84375 -1.59375q-0.59375 -0.96875 -0.59375 -2.140625q0 -1.3125 0.734375 -2.4375q0.75 -1.125 2.15625 -1.703125q1.421875 -0.59375 3.15625 -0.59375q1.90625 0 3.359375 0.609375q1.46875 0.609375 2.25 1.8125q0.796875 1.1875 0.84375 2.703125l-2.171875 0.171875q-0.171875 -1.640625 -1.1875 -2.46875q-1.015625 -0.828125 -3.0 -0.828125q-2.0625 0 -3.015625 0.765625q-0.9375 0.75 -0.9375 1.8125q0 0.921875 0.671875 1.515625q0.65625 0.609375 3.421875 1.234375q2.78125 0.625 3.8125 1.09375q1.5 0.6875 2.203125 1.75q0.71875 1.0625 0.71875 2.4375q0 1.375 -0.78125 2.59375q-0.78125 1.203125 -2.25 1.890625q-1.46875 0.671875 -3.3125 0.671875q-2.328125 0 -3.90625 -0.671875q-1.578125 -0.6875 -2.484375 -2.046875q-0.890625 -1.375 -0.9375 -3.09375zm21.148438 5.515625l0 -15.15625l-5.65625 0l0 -2.03125l13.625 0l0 2.03125l-5.6875 0l0 15.15625l-2.28125 0zm10.222656 0l0 -17.1875l3.421875 0l4.0625 12.171875q0.5625 1.703125 0.828125 2.546875q0.296875 -0.9375 0.90625 -2.765625l4.125 -11.953125l3.046875 0l0 17.1875l-2.1875 0l0 -14.375l-4.984375 14.375l-2.0625 0l-4.96875 -14.625l0 14.625l-2.1875 0zm36.957016 -2.03125l0 2.03125l-11.34375 0q-0.03125 -0.765625 0.234375 -1.46875q0.4375 -1.15625 1.390625 -2.28125q0.953125 -1.125 2.765625 -2.609375q2.796875 -2.296875 3.78125 -3.625q0.984375 -1.34375 0.984375 -2.546875q0 -1.25 -0.90625 -2.109375q-0.890625 -0.859375 -2.328125 -0.859375q-1.515625 0 -2.4375 0.921875q-0.90625 0.90625 -0.921875 2.515625l-2.171875 -0.21875q0.21875 -2.421875 1.671875 -3.6875q1.453125 -1.28125 3.90625 -1.28125q2.46875 0 3.90625 1.375q1.453125 1.359375 1.453125 3.390625q0 1.03125 -0.421875 2.03125q-0.421875 1.0 -1.40625 2.109375q-0.96875 1.09375 -3.25 3.015625q-1.890625 1.59375 -2.4375 2.15625q-0.53125 0.5625 -0.890625 1.140625l8.421875 0z" fill-rule="nonzero"/><path fill="#000000" fill-opacity="0.0" d="m233.39633 347.45932l-1.1968536 57.73227" fill-rule="evenodd"/><path stroke="#000000" stroke-width="2.0" stroke-linejoin="round" stroke-linecap="butt" d="m233.39633 347.45932l-0.9481354 45.734863" fill-rule="evenodd"/><path fill="#000000" stroke="#000000" stroke-width="2.0" stroke-linecap="butt" d="m229.14543 393.1257l3.1146393 9.142731l3.4908752 -9.005798z" fill-rule="evenodd"/><path fill="#f4cccc" d="m385.35434 405.19946l166.01572 0l0 66.17325l-166.01572 0z" fill-rule="evenodd"/><path stroke="#ea9999" stroke-width="1.0" stroke-linejoin="round" stroke-linecap="butt" d="m385.35434 405.19946l166.01572 0l0 66.17325l-166.01572 0z" fill-rule="evenodd"/><path fill="#000000" d="m428.11612 446.82608l0 -17.1875l2.265625 0l0 15.15625l8.46875 0l0 2.03125l-10.734375 0zm12.660156 -5.515625l2.140625 -0.1875q0.15625 1.28125 0.703125 2.109375q0.5625 0.828125 1.734375 1.34375q1.171875 0.5 2.640625 0.5q1.296875 0 2.296875 -0.375q1.0 -0.390625 1.484375 -1.0625q0.484375 -0.6875 0.484375 -1.484375q0 -0.796875 -0.46875 -1.40625q-0.46875 -0.609375 -1.546875 -1.015625q-0.6875 -0.265625 -3.0625 -0.828125q-2.359375 -0.578125 -3.3125 -1.078125q-1.234375 -0.640625 -1.84375 -1.59375q-0.59375 -0.96875 -0.59375 -2.140625q0 -1.3125 0.734375 -2.4375q0.75 -1.125 2.15625 -1.703125q1.421875 -0.59375 3.15625 -0.59375q1.90625 0 3.359375 0.609375q1.46875 0.609375 2.25 1.8125q0.796875 1.1875 0.84375 2.703125l-2.171875 0.171875q-0.171875 -1.640625 -1.1875 -2.46875q-1.015625 -0.828125 -3.0 -0.828125q-2.0625 0 -3.015625 0.765625q-0.9375 0.75 -0.9375 1.8125q0 0.921875 0.671875 1.515625q0.65625 0.609375 3.421875 1.234375q2.78125 0.625 3.8125 1.09375q1.5 0.6875 2.203125 1.75q0.71875 1.0625 0.71875 2.4375q0 1.375 -0.78125 2.59375q-0.78125 1.203125 -2.25 1.890625q-1.46875 0.671875 -3.3125 0.671875q-2.328125 0 -3.90625 -0.671875q-1.578125 -0.6875 -2.484375 -2.046875q-0.890625 -1.375 -0.9375 -3.09375zm21.148438 5.515625l0 -15.15625l-5.65625 0l0 -2.03125l13.625 0l0 2.03125l-5.6875 0l0 15.15625l-2.28125 0zm10.222656 0l0 -17.1875l3.421875 0l4.0625 12.171875q0.5625 1.703125 0.828125 2.546875q0.296875 -0.9375 0.90625 -2.765625l4.125 -11.953125l3.046875 0l0 17.1875l-2.1875 0l0 -14.375l-4.984375 14.375l-2.0625 0l-4.96875 -14.625l0 14.625l-2.1875 0zm36.95703 -2.03125l0 2.03125l-11.34375 0q-0.03125 -0.765625 0.234375 -1.46875q0.4375 -1.15625 1.390625 -2.28125q0.953125 -1.125 2.765625 -2.609375q2.796875 -2.296875 3.78125 -3.625q0.984375 -1.34375 0.984375 -2.546875q0 -1.25 -0.90625 -2.109375q-0.890625 -0.859375 -2.328125 -0.859375q-1.515625 0 -2.4375 0.921875q-0.90625 0.90625 -0.921875 2.515625l-2.171875 -0.21875q0.21875 -2.421875 1.671875 -3.6875q1.453125 -1.28125 3.90625 -1.28125q2.46875 0 3.90625 1.375q1.453125 1.359375 1.453125 3.390625q0 1.03125 -0.421875 2.03125q-0.421875 1.0 -1.40625 2.109375q-0.96875 1.09375 -3.25 3.015625q-1.890625 1.59375 -2.4375 2.15625q-0.53125 0.5625 -0.890625 1.140625l8.421875 0z" fill-rule="nonzero"/><path fill="#000000" fill-opacity="0.0" d="m468.3622 347.45932l0 57.73227" fill-rule="evenodd"/><path stroke="#000000" stroke-width="2.0" stroke-linejoin="round" stroke-linecap="butt" d="m468.3622 347.45932l0 45.73227" fill-rule="evenodd"/><path fill="#000000" stroke="#000000" stroke-width="2.0" stroke-linecap="butt" d="m465.05875 393.1916l3.3034668 9.076202l3.3034668 -9.076202z" fill-rule="evenodd"/><path fill="#000000" fill-opacity="0.0" d="m315.20734 438.2861l70.141754 0" fill-rule="evenodd"/><path stroke="#ff0000" stroke-width="2.0" stroke-linejoin="round" stroke-linecap="butt" d="m315.20734 438.2861l58.141754 0" fill-rule="evenodd"/><path fill="#ff0000" stroke="#ff0000" stroke-width="2.0" stroke-linecap="butt" d="m373.3491 441.58957l9.076172 -3.3034668l-9.076172 -3.3034668z" fill-rule="evenodd"/><path fill="#f4cccc" d="m750.25195 405.19946l166.01575 0l0 66.17325l-166.01575 0z" fill-rule="evenodd"/><path stroke="#ea9999" stroke-width="1.0" stroke-linejoin="round" stroke-linecap="butt" d="m750.25195 405.19946l166.01575 0l0 66.17325l-166.01575 0z" fill-rule="evenodd"/><path fill="#000000" d="m793.01373 446.82608l0 -17.1875l2.265625 0l0 15.15625l8.46875 0l0 2.03125l-10.734375 0zm12.660156 -5.515625l2.140625 -0.1875q0.15625 1.28125 0.703125 2.109375q0.5625 0.828125 1.734375 1.34375q1.171875 0.5 2.640625 0.5q1.296875 0 2.296875 -0.375q1.0 -0.390625 1.484375 -1.0625q0.484375 -0.6875 0.484375 -1.484375q0 -0.796875 -0.46875 -1.40625q-0.46875 -0.609375 -1.546875 -1.015625q-0.6875 -0.265625 -3.0625 -0.828125q-2.359375 -0.578125 -3.3125 -1.078125q-1.234375 -0.640625 -1.84375 -1.59375q-0.59375 -0.96875 -0.59375 -2.140625q0 -1.3125 0.734375 -2.4375q0.75 -1.125 2.15625 -1.703125q1.421875 -0.59375 3.15625 -0.59375q1.90625 0 3.359375 0.609375q1.46875 0.609375 2.25 1.8125q0.796875 1.1875 0.84375 2.703125l-2.171875 0.171875q-0.171875 -1.640625 -1.1875 -2.46875q-1.015625 -0.828125 -3.0 -0.828125q-2.0625 0 -3.015625 0.765625q-0.9375 0.75 -0.9375 1.8125q0 0.921875 0.671875 1.515625q0.65625 0.609375 3.421875 1.234375q2.78125 0.625 3.8125 1.09375q1.5 0.6875 2.203125 1.75q0.71875 1.0625 0.71875 2.4375q0 1.375 -0.78125 2.59375q-0.78125 1.203125 -2.25 1.890625q-1.46875 0.671875 -3.3125 0.671875q-2.328125 0 -3.90625 -0.671875q-1.578125 -0.6875 -2.484375 -2.046875q-0.890625 -1.375 -0.9375 -3.09375zm21.148438 5.515625l0 -15.15625l-5.65625 0l0 -2.03125l13.625 0l0 2.03125l-5.6875 0l0 15.15625l-2.28125 0zm10.222656 0l0 -17.1875l3.421875 0l4.0625 12.171875q0.5625 1.703125 0.828125 2.546875q0.296875 -0.9375 0.90625 -2.765625l4.125 -11.953125l3.046875 0l0 17.1875l-2.1875 0l0 -14.375l-4.984375 14.375l-2.0625 0l-4.96875 -14.625l0 14.625l-2.1875 0zm36.95703 -2.03125l0 2.03125l-11.34375 0q-0.03125 -0.765625 0.234375 -1.46875q0.4375 -1.15625 1.390625 -2.28125q0.953125 -1.125 2.765625 -2.609375q2.796875 -2.296875 3.78125 -3.625q0.984375 -1.34375 0.984375 -2.546875q0 -1.25 -0.90625 -2.109375q-0.890625 -0.859375 -2.328125 -0.859375q-1.515625 0 -2.4375 0.921875q-0.90625 0.90625 -0.921875 2.515625l-2.171875 -0.21875q0.21875 -2.421875 1.671875 -3.6875q1.453125 -1.28125 3.90625 -1.28125q2.46875 0 3.90625 1.375q1.453125 1.359375 1.453125 3.390625q0 1.03125 -0.421875 2.03125q-0.421875 1.0 -1.40625 2.109375q-0.96875 1.09375 -3.25 3.015625q-1.890625 1.59375 -2.4375 2.15625q-0.53125 0.5625 -0.890625 1.140625l8.421875 0z" fill-rule="nonzero"/><path fill="#000000" fill-opacity="0.0" d="m551.37006 438.2861l198.89764 0" fill-rule="evenodd"/><path stroke="#ff0000" stroke-width="2.0" stroke-linejoin="round" stroke-linecap="butt" d="m551.37006 438.2861l186.89764 0" fill-rule="evenodd"/><path fill="#ff0000" stroke="#ff0000" stroke-width="2.0" stroke-linecap="butt" d="m738.2677 441.58957l9.076233 -3.3034668l-9.076233 -3.3034668z" fill-rule="evenodd"/><path fill="#000000" fill-opacity="0.0" d="m833.2598 347.45932l0 57.73227" fill-rule="evenodd"/><path stroke="#000000" stroke-width="2.0" stroke-linejoin="round" stroke-linecap="butt" d="m833.2598 347.45932l0 45.73227" fill-rule="evenodd"/><path fill="#000000" stroke="#000000" stroke-width="2.0" stroke-linecap="butt" d="m829.95636 393.1916l3.3034668 9.076202l3.3034668 -9.076202z" fill-rule="evenodd"/><path fill="#cfe2f3" d="m190.08923 529.11285l84.22049 0l0 58.960632l-84.22049 0z" fill-rule="evenodd"/><path stroke="#a4c2f4" stroke-width="1.0" stroke-linejoin="round" stroke-linecap="butt" d="m190.08923 529.11285l84.22049 0l0 58.960632l-84.22049 0z" fill-rule="evenodd"/><path fill="#000000" d="m213.75612 567.1332l0 -17.1875l2.109375 0l0 6.171875q1.484375 -1.71875 3.734375 -1.71875q1.375 0 2.390625 0.546875q1.03125 0.546875 1.46875 1.515625q0.4375 0.953125 0.4375 2.78125l0 7.890625l-2.109375 0l0 -7.890625q0 -1.578125 -0.6875 -2.296875q-0.6875 -0.71875 -1.9375 -0.71875q-0.9375 0 -1.765625 0.484375q-0.828125 0.484375 -1.1875 1.3125q-0.34375 0.828125 -0.34375 2.296875l0 6.8125l-2.109375 0zm23.847656 -2.03125l0 2.03125l-11.34375 0q-0.03125 -0.765625 0.234375 -1.46875q0.4375 -1.15625 1.390625 -2.28125q0.953125 -1.125 2.765625 -2.609375q2.796875 -2.296875 3.78125 -3.625q0.984375 -1.34375 0.984375 -2.546875q0 -1.25 -0.90625 -2.109375q-0.890625 -0.859375 -2.328125 -0.859375q-1.515625 0 -2.4375 0.921875q-0.90625 0.90625 -0.921875 2.515625l-2.171875 -0.21875q0.21875 -2.421875 1.671875 -3.6875q1.453125 -1.28125 3.90625 -1.28125q2.46875 0 3.90625 1.375q1.453125 1.359375 1.453125 3.390625q0 1.03125 -0.421875 2.03125q-0.421875 1.0 -1.40625 2.109375q-0.96875 1.09375 -3.25 3.015625q-1.890625 1.59375 -2.4375 2.15625q-0.53125 0.5625 -0.890625 1.140625l8.421875 0zm10.207031 2.03125l-2.109375 0l0 -13.4375q-0.75 0.71875 -2.0 1.453125q-1.234375 0.71875 -2.21875 1.078125l0 -2.03125q1.78125 -0.828125 3.09375 -2.015625q1.328125 -1.1875 1.875 -2.296875l1.359375 0l0 17.25z" fill-rule="nonzero"/><path fill="#000000" fill-opacity="0.0" d="m232.19948 471.3727l0 57.73227" fill-rule="evenodd"/><path stroke="#000000" stroke-width="2.0" stroke-linejoin="round" stroke-linecap="butt" d="m232.19948 471.3727l0 45.73227" fill-rule="evenodd"/><path fill="#000000" stroke="#000000" stroke-width="2.0" stroke-linecap="butt" d="m228.89601 517.105l3.3034668 9.076172l3.3034668 -9.076172z" fill-rule="evenodd"/><path fill="#cfe2f3" d="m426.25198 529.11285l84.22046 0l0 58.960632l-84.22046 0z" fill-rule="evenodd"/><path stroke="#a4c2f4" stroke-width="1.0" stroke-linejoin="round" stroke-linecap="butt" d="m426.25198 529.11285l84.22046 0l0 58.960632l-84.22046 0z" fill-rule="evenodd"/><path fill="#000000" d="m449.91885 567.1332l0 -17.1875l2.109375 0l0 6.171875q1.484375 -1.71875 3.734375 -1.71875q1.375 0 2.390625 0.546875q1.03125 0.546875 1.46875 1.515625q0.4375 0.953125 0.4375 2.78125l0 7.890625l-2.109375 0l0 -7.890625q0 -1.578125 -0.6875 -2.296875q-0.6875 -0.71875 -1.9375 -0.71875q-0.9375 0 -1.765625 0.484375q-0.828125 0.484375 -1.1875 1.3125q-0.34375 0.828125 -0.34375 2.296875l0 6.8125l-2.109375 0zm23.847656 -2.03125l0 2.03125l-11.34375 0q-0.03125 -0.765625 0.234375 -1.46875q0.4375 -1.15625 1.390625 -2.28125q0.953125 -1.125 2.765625 -2.609375q2.796875 -2.296875 3.78125 -3.625q0.984375 -1.34375 0.984375 -2.546875q0 -1.25 -0.90625 -2.109375q-0.890625 -0.859375 -2.328125 -0.859375q-1.515625 0 -2.4375 0.921875q-0.90625 0.90625 -0.921875 2.515625l-2.171875 -0.21875q0.21875 -2.421875 1.671875 -3.6875q1.453125 -1.28125 3.90625 -1.28125q2.46875 0 3.90625 1.375q1.453125 1.359375 1.453125 3.390625q0 1.03125 -0.421875 2.03125q-0.421875 1.0 -1.40625 2.109375q-0.96875 1.09375 -3.25 3.015625q-1.890625 1.59375 -2.4375 2.15625q-0.53125 0.5625 -0.890625 1.140625l8.421875 0zm13.347656 0l0 2.03125l-11.34375 0q-0.03125 -0.765625 0.234375 -1.46875q0.4375 -1.15625 1.390625 -2.28125q0.953125 -1.125 2.765625 -2.609375q2.796875 -2.296875 3.78125 -3.625q0.984375 -1.34375 0.984375 -2.546875q0 -1.25 -0.90625 -2.109375q-0.890625 -0.859375 -2.328125 -0.859375q-1.515625 0 -2.4375 0.921875q-0.90625 0.90625 -0.921875 2.515625l-2.171875 -0.21875q0.21875 -2.421875 1.671875 -3.6875q1.453125 -1.28125 3.90625 -1.28125q2.46875 0 3.90625 1.375q1.453125 1.359375 1.453125 3.390625q0 1.03125 -0.421875 2.03125q-0.421875 1.0 -1.40625 2.109375q-0.96875 1.09375 -3.25 3.015625q-1.890625 1.59375 -2.4375 2.15625q-0.53125 0.5625 -0.890625 1.140625l8.421875 0z" fill-rule="nonzero"/><path fill="#000000" fill-opacity="0.0" d="m468.3622 471.3727l0 57.73227" fill-rule="evenodd"/><path stroke="#000000" stroke-width="2.0" stroke-linejoin="round" stroke-linecap="butt" d="m468.3622 471.3727l0 45.73227" fill-rule="evenodd"/><path fill="#000000" stroke="#000000" stroke-width="2.0" stroke-linecap="butt" d="m465.05875 517.105l3.3034668 9.076172l3.3034668 -9.076172z" fill-rule="evenodd"/><path fill="#cfe2f3" d="m791.1496 529.11285l84.22046 0l0 58.960632l-84.22046 0z" fill-rule="evenodd"/><path stroke="#a4c2f4" stroke-width="1.0" stroke-linejoin="round" stroke-linecap="butt" d="m791.1496 529.11285l84.22046 0l0 58.960632l-84.22046 0z" fill-rule="evenodd"/><path fill="#000000" d="m814.81647 567.1332l0 -17.1875l2.109375 0l0 6.171875q1.484375 -1.71875 3.734375 -1.71875q1.375 0 2.390625 0.546875q1.03125 0.546875 1.46875 1.515625q0.4375 0.953125 0.4375 2.78125l0 7.890625l-2.109375 0l0 -7.890625q0 -1.578125 -0.6875 -2.296875q-0.6875 -0.71875 -1.9375 -0.71875q-0.9375 0 -1.765625 0.484375q-0.828125 0.484375 -1.1875 1.3125q-0.34375 0.828125 -0.34375 2.296875l0 6.8125l-2.109375 0zm23.847656 -2.03125l0 2.03125l-11.34375 0q-0.03125 -0.765625 0.234375 -1.46875q0.4375 -1.15625 1.390625 -2.28125q0.953125 -1.125 2.765625 -2.609375q2.796875 -2.296875 3.78125 -3.625q0.984375 -1.34375 0.984375 -2.546875q0 -1.25 -0.90625 -2.109375q-0.890625 -0.859375 -2.328125 -0.859375q-1.515625 0 -2.4375 0.921875q-0.90625 0.90625 -0.921875 2.515625l-2.171875 -0.21875q0.21875 -2.421875 1.671875 -3.6875q1.453125 -1.28125 3.90625 -1.28125q2.46875 0 3.90625 1.375q1.453125 1.359375 1.453125 3.390625q0 1.03125 -0.421875 2.03125q-0.421875 1.0 -1.40625 2.109375q-0.96875 1.09375 -3.25 3.015625q-1.890625 1.59375 -2.4375 2.15625q-0.53125 0.5625 -0.890625 1.140625l8.421875 0zm2.8476562 2.03125l0 -12.453125l1.90625 0l0 1.78125q1.375 -2.0625 3.953125 -2.0625q1.125 0 2.0625 0.40625q0.953125 0.40625 1.421875 1.0625q0.46875 0.65625 0.65625 1.5625q0.125 0.578125 0.125 2.046875l0 7.65625l-2.109375 0l0 -7.578125q0 -1.28125 -0.25 -1.921875q-0.25 -0.640625 -0.875 -1.015625q-0.625 -0.390625 -1.46875 -0.390625q-1.34375 0 -2.328125 0.859375q-0.984375 0.859375 -0.984375 3.25l0 6.796875l-2.109375 0z" fill-rule="nonzero"/><path fill="#000000" fill-opacity="0.0" d="m833.2598 471.3727l0 57.73227" fill-rule="evenodd"/><path stroke="#000000" stroke-width="2.0" stroke-linejoin="round" stroke-linecap="butt" d="m833.2598 471.3727l0 45.73227" fill-rule="evenodd"/><path fill="#000000" stroke="#000000" stroke-width="2.0" stroke-linecap="butt" d="m829.95636 517.105l3.3034668 9.076172l3.3034668 -9.076172z" fill-rule="evenodd"/><path fill="#f4cccc" d="m149.1916 645.81366l166.01573 0l0 66.17322l-166.01573 0z" fill-rule="evenodd"/><path stroke="#ea9999" stroke-width="1.0" stroke-linejoin="round" stroke-linecap="butt" d="m149.1916 645.81366l166.01573 0l0 66.17322l-166.01573 0z" fill-rule="evenodd"/><path fill="#000000" d="m191.95338 687.44025l0 -17.1875l2.265625 0l0 15.15625l8.46875 0l0 2.03125l-10.734375 0zm12.660156 -5.515625l2.140625 -0.1875q0.15625 1.28125 0.703125 2.109375q0.5625 0.828125 1.734375 1.34375q1.171875 0.5 2.640625 0.5q1.296875 0 2.296875 -0.375q1.0 -0.390625 1.484375 -1.0625q0.484375 -0.6875 0.484375 -1.484375q0 -0.796875 -0.46875 -1.40625q-0.46875 -0.609375 -1.546875 -1.015625q-0.6875 -0.265625 -3.0625 -0.828125q-2.359375 -0.578125 -3.3125 -1.078125q-1.234375 -0.640625 -1.84375 -1.59375q-0.59375 -0.96875 -0.59375 -2.140625q0 -1.3125 0.734375 -2.4375q0.75 -1.125 2.15625 -1.703125q1.421875 -0.59375 3.15625 -0.59375q1.90625 0 3.359375 0.609375q1.46875 0.609375 2.25 1.8125q0.796875 1.1875 0.84375 2.703125l-2.171875 0.171875q-0.171875 -1.640625 -1.1875 -2.46875q-1.015625 -0.828125 -3.0 -0.828125q-2.0625 0 -3.015625 0.765625q-0.9375 0.75 -0.9375 1.8125q0 0.921875 0.671875 1.515625q0.65625 0.609375 3.421875 1.234375q2.78125 0.625 3.8125 1.09375q1.5 0.6875 2.203125 1.75q0.71875 1.0625 0.71875 2.4375q0 1.375 -0.78125 2.59375q-0.78125 1.203125 -2.25 1.890625q-1.46875 0.671875 -3.3125 0.671875q-2.328125 0 -3.90625 -0.671875q-1.578125 -0.6875 -2.484375 -2.046875q-0.890625 -1.375 -0.9375 -3.09375zm21.148438 5.515625l0 -15.15625l-5.65625 0l0 -2.03125l13.625 0l0 2.03125l-5.6875 0l0 15.15625l-2.28125 0zm10.222656 0l0 -17.1875l3.421875 0l4.0625 12.171875q0.5625 1.703125 0.828125 2.546875q0.296875 -0.9375 0.90625 -2.765625l4.125 -11.953125l3.046875 0l0 17.1875l-2.1875 0l0 -14.375l-4.984375 14.375l-2.0625 0l-4.96875 -14.625l0 14.625l-2.1875 0zm25.894516 -4.53125l2.109375 -0.28125q0.359375 1.78125 1.234375 2.578125q0.875 0.796875 2.125 0.796875q1.484375 0 2.5 -1.03125q1.03125 -1.03125 1.03125 -2.5625q0 -1.453125 -0.953125 -2.390625q-0.9375 -0.953125 -2.40625 -0.953125q-0.59375 0 -1.484375 0.234375l0.234375 -1.84375q0.203125 0.015625 0.34375 0.015625q1.34375 0 2.421875 -0.703125q1.078125 -0.703125 1.078125 -2.15625q0 -1.171875 -0.796875 -1.921875q-0.78125 -0.765625 -2.015625 -0.765625q-1.234375 0 -2.0625 0.78125q-0.8125 0.765625 -1.046875 2.3125l-2.109375 -0.375q0.390625 -2.125 1.75 -3.28125q1.375 -1.171875 3.421875 -1.171875q1.40625 0 2.578125 0.609375q1.1875 0.59375 1.8125 1.640625q0.640625 1.046875 0.640625 2.21875q0 1.109375 -0.609375 2.03125q-0.59375 0.90625 -1.765625 1.4375q1.53125 0.359375 2.375 1.46875q0.84375 1.109375 0.84375 2.765625q0 2.25 -1.640625 3.828125q-1.640625 1.5625 -4.15625 1.5625q-2.265625 0 -3.765625 -1.34375q-1.484375 -1.359375 -1.6875 -3.5z" fill-rule="nonzero"/><path fill="#000000" fill-opacity="0.0" d="m232.19948 588.0735l0 57.7323" fill-rule="evenodd"/><path stroke="#000000" stroke-width="2.0" stroke-linejoin="round" stroke-linecap="butt" d="m232.19948 588.0735l0 45.7323" fill-rule="evenodd"/><path fill="#000000" stroke="#000000" stroke-width="2.0" stroke-linecap="butt" d="m228.89601 633.8058l3.3034668 9.076172l3.3034668 -9.076172z" fill-rule="evenodd"/><path fill="#f4cccc" d="m385.35434 645.81366l166.01572 0l0 66.17322l-166.01572 0z" fill-rule="evenodd"/><path stroke="#ea9999" stroke-width="1.0" stroke-linejoin="round" stroke-linecap="butt" d="m385.35434 645.81366l166.01572 0l0 66.17322l-166.01572 0z" fill-rule="evenodd"/><path fill="#000000" d="m428.11612 687.44025l0 -17.1875l2.265625 0l0 15.15625l8.46875 0l0 2.03125l-10.734375 0zm12.660156 -5.515625l2.140625 -0.1875q0.15625 1.28125 0.703125 2.109375q0.5625 0.828125 1.734375 1.34375q1.171875 0.5 2.640625 0.5q1.296875 0 2.296875 -0.375q1.0 -0.390625 1.484375 -1.0625q0.484375 -0.6875 0.484375 -1.484375q0 -0.796875 -0.46875 -1.40625q-0.46875 -0.609375 -1.546875 -1.015625q-0.6875 -0.265625 -3.0625 -0.828125q-2.359375 -0.578125 -3.3125 -1.078125q-1.234375 -0.640625 -1.84375 -1.59375q-0.59375 -0.96875 -0.59375 -2.140625q0 -1.3125 0.734375 -2.4375q0.75 -1.125 2.15625 -1.703125q1.421875 -0.59375 3.15625 -0.59375q1.90625 0 3.359375 0.609375q1.46875 0.609375 2.25 1.8125q0.796875 1.1875 0.84375 2.703125l-2.171875 0.171875q-0.171875 -1.640625 -1.1875 -2.46875q-1.015625 -0.828125 -3.0 -0.828125q-2.0625 0 -3.015625 0.765625q-0.9375 0.75 -0.9375 1.8125q0 0.921875 0.671875 1.515625q0.65625 0.609375 3.421875 1.234375q2.78125 0.625 3.8125 1.09375q1.5 0.6875 2.203125 1.75q0.71875 1.0625 0.71875 2.4375q0 1.375 -0.78125 2.59375q-0.78125 1.203125 -2.25 1.890625q-1.46875 0.671875 -3.3125 0.671875q-2.328125 0 -3.90625 -0.671875q-1.578125 -0.6875 -2.484375 -2.046875q-0.890625 -1.375 -0.9375 -3.09375zm21.148438 5.515625l0 -15.15625l-5.65625 0l0 -2.03125l13.625 0l0 2.03125l-5.6875 0l0 15.15625l-2.28125 0zm10.222656 0l0 -17.1875l3.421875 0l4.0625 12.171875q0.5625 1.703125 0.828125 2.546875q0.296875 -0.9375 0.90625 -2.765625l4.125 -11.953125l3.046875 0l0 17.1875l-2.1875 0l0 -14.375l-4.984375 14.375l-2.0625 0l-4.96875 -14.625l0 14.625l-2.1875 0zm25.894531 -4.53125l2.109375 -0.28125q0.359375 1.78125 1.234375 2.578125q0.875 0.796875 2.125 0.796875q1.484375 0 2.5 -1.03125q1.03125 -1.03125 1.03125 -2.5625q0 -1.453125 -0.953125 -2.390625q-0.9375 -0.953125 -2.40625 -0.953125q-0.59375 0 -1.484375 0.234375l0.234375 -1.84375q0.203125 0.015625 0.34375 0.015625q1.34375 0 2.421875 -0.703125q1.078125 -0.703125 1.078125 -2.15625q0 -1.171875 -0.796875 -1.921875q-0.78125 -0.765625 -2.015625 -0.765625q-1.234375 0 -2.0625 0.78125q-0.8125 0.765625 -1.046875 2.3125l-2.109375 -0.375q0.390625 -2.125 1.75 -3.28125q1.375 -1.171875 3.421875 -1.171875q1.40625 0 2.578125 0.609375q1.1875 0.59375 1.8125 1.640625q0.640625 1.046875 0.640625 2.21875q0 1.109375 -0.609375 2.03125q-0.59375 0.90625 -1.765625 1.4375q1.53125 0.359375 2.375 1.46875q0.84375 1.109375 0.84375 2.765625q0 2.25 -1.640625 3.828125q-1.640625 1.5625 -4.15625 1.5625q-2.265625 0 -3.765625 -1.34375q-1.484375 -1.359375 -1.6875 -3.5z" fill-rule="nonzero"/><path fill="#000000" fill-opacity="0.0" d="m468.3622 588.0735l0 57.7323" fill-rule="evenodd"/><path stroke="#000000" stroke-width="2.0" stroke-linejoin="round" stroke-linecap="butt" d="m468.3622 588.0735l0 45.7323" fill-rule="evenodd"/><path fill="#000000" stroke="#000000" stroke-width="2.0" stroke-linecap="butt" d="m465.05875 633.8058l3.3034668 9.076172l3.3034668 -9.076172z" fill-rule="evenodd"/><path fill="#000000" fill-opacity="0.0" d="m315.20734 678.90027l70.141754 0" fill-rule="evenodd"/><path stroke="#ff0000" stroke-width="2.0" stroke-linejoin="round" stroke-linecap="butt" d="m315.20734 678.90027l58.141754 0" fill-rule="evenodd"/><path fill="#ff0000" stroke="#ff0000" stroke-width="2.0" stroke-linecap="butt" d="m373.3491 682.20374l9.076172 -3.3034668l-9.076172 -3.3034668z" fill-rule="evenodd"/><path fill="#f4cccc" d="m750.25195 645.81366l166.01575 0l0 66.17322l-166.01575 0z" fill-rule="evenodd"/><path stroke="#ea9999" stroke-width="1.0" stroke-linejoin="round" stroke-linecap="butt" d="m750.25195 645.81366l166.01575 0l0 66.17322l-166.01575 0z" fill-rule="evenodd"/><path fill="#000000" d="m793.01373 687.44025l0 -17.1875l2.265625 0l0 15.15625l8.46875 0l0 2.03125l-10.734375 0zm12.660156 -5.515625l2.140625 -0.1875q0.15625 1.28125 0.703125 2.109375q0.5625 0.828125 1.734375 1.34375q1.171875 0.5 2.640625 0.5q1.296875 0 2.296875 -0.375q1.0 -0.390625 1.484375 -1.0625q0.484375 -0.6875 0.484375 -1.484375q0 -0.796875 -0.46875 -1.40625q-0.46875 -0.609375 -1.546875 -1.015625q-0.6875 -0.265625 -3.0625 -0.828125q-2.359375 -0.578125 -3.3125 -1.078125q-1.234375 -0.640625 -1.84375 -1.59375q-0.59375 -0.96875 -0.59375 -2.140625q0 -1.3125 0.734375 -2.4375q0.75 -1.125 2.15625 -1.703125q1.421875 -0.59375 3.15625 -0.59375q1.90625 0 3.359375 0.609375q1.46875 0.609375 2.25 1.8125q0.796875 1.1875 0.84375 2.703125l-2.171875 0.171875q-0.171875 -1.640625 -1.1875 -2.46875q-1.015625 -0.828125 -3.0 -0.828125q-2.0625 0 -3.015625 0.765625q-0.9375 0.75 -0.9375 1.8125q0 0.921875 0.671875 1.515625q0.65625 0.609375 3.421875 1.234375q2.78125 0.625 3.8125 1.09375q1.5 0.6875 2.203125 1.75q0.71875 1.0625 0.71875 2.4375q0 1.375 -0.78125 2.59375q-0.78125 1.203125 -2.25 1.890625q-1.46875 0.671875 -3.3125 0.671875q-2.328125 0 -3.90625 -0.671875q-1.578125 -0.6875 -2.484375 -2.046875q-0.890625 -1.375 -0.9375 -3.09375zm21.148438 5.515625l0 -15.15625l-5.65625 0l0 -2.03125l13.625 0l0 2.03125l-5.6875 0l0 15.15625l-2.28125 0zm10.222656 0l0 -17.1875l3.421875 0l4.0625 12.171875q0.5625 1.703125 0.828125 2.546875q0.296875 -0.9375 0.90625 -2.765625l4.125 -11.953125l3.046875 0l0 17.1875l-2.1875 0l0 -14.375l-4.984375 14.375l-2.0625 0l-4.96875 -14.625l0 14.625l-2.1875 0zm25.894531 -4.53125l2.109375 -0.28125q0.359375 1.78125 1.234375 2.578125q0.875 0.796875 2.125 0.796875q1.484375 0 2.5 -1.03125q1.03125 -1.03125 1.03125 -2.5625q0 -1.453125 -0.953125 -2.390625q-0.9375 -0.953125 -2.40625 -0.953125q-0.59375 0 -1.484375 0.234375l0.234375 -1.84375q0.203125 0.015625 0.34375 0.015625q1.34375 0 2.421875 -0.703125q1.078125 -0.703125 1.078125 -2.15625q0 -1.171875 -0.796875 -1.921875q-0.78125 -0.765625 -2.015625 -0.765625q-1.234375 0 -2.0625 0.78125q-0.8125 0.765625 -1.046875 2.3125l-2.109375 -0.375q0.390625 -2.125 1.75 -3.28125q1.375 -1.171875 3.421875 -1.171875q1.40625 0 2.578125 0.609375q1.1875 0.59375 1.8125 1.640625q0.640625 1.046875 0.640625 2.21875q0 1.109375 -0.609375 2.03125q-0.59375 0.90625 -1.765625 1.4375q1.53125 0.359375 2.375 1.46875q0.84375 1.109375 0.84375 2.765625q0 2.25 -1.640625 3.828125q-1.640625 1.5625 -4.15625 1.5625q-2.265625 0 -3.765625 -1.34375q-1.484375 -1.359375 -1.6875 -3.5z" fill-rule="nonzero"/><path fill="#000000" fill-opacity="0.0" d="m833.2598 588.0735l0 57.7323" fill-rule="evenodd"/><path stroke="#000000" stroke-width="2.0" stroke-linejoin="round" stroke-linecap="butt" d="m833.2598 588.0735l0 45.7323" fill-rule="evenodd"/><path fill="#000000" stroke="#000000" stroke-width="2.0" stroke-linecap="butt" d="m829.95636 633.8058l3.3034668 9.076172l3.3034668 -9.076172z" fill-rule="evenodd"/><path fill="#000000" fill-opacity="0.0" d="m551.37006 678.90027l198.89764 0" fill-rule="evenodd"/><path stroke="#ff0000" stroke-width="2.0" stroke-linejoin="round" stroke-linecap="butt" d="m551.37006 678.90027l186.89764 0" fill-rule="evenodd"/><path fill="#ff0000" stroke="#ff0000" stroke-width="2.0" stroke-linecap="butt" d="m738.2677 682.20374l9.076233 -3.3034668l-9.076233 -3.3034668z" fill-rule="evenodd"/><path fill="#fce5cd" d="m758.4252 886.4278l149.66931 0l0 121.66931l-149.66931 0z" fill-rule="evenodd"/><path stroke="#ff9900" stroke-width="1.0" stroke-linejoin="round" stroke-linecap="butt" d="m758.4252 886.4278l149.66931 0l0 121.66931l-149.66931 0z" fill-rule="evenodd"/><path fill="#000000" d="m799.73834 941.3025l0 -17.1875l2.328125 0l9.03125 13.5l0 -13.5l2.171875 0l0 17.1875l-2.328125 0l-9.015625 -13.5l0 13.5l-2.1875 0zm25.613281 -4.015625l2.171875 0.28125q-0.515625 1.90625 -1.90625 2.96875q-1.390625 1.046875 -3.5625 1.046875q-2.734375 0 -4.34375 -1.671875q-1.59375 -1.6875 -1.59375 -4.734375q0 -3.140625 1.609375 -4.875q1.625 -1.734375 4.203125 -1.734375q2.5 0 4.078125 1.703125q1.59375 1.703125 1.59375 4.78125q0 0.1875 -0.015625 0.5625l-9.28125 0q0.109375 2.046875 1.15625 3.140625q1.046875 1.09375 2.609375 1.09375q1.15625 0 1.96875 -0.609375q0.828125 -0.609375 1.3125 -1.953125zm-6.9375 -3.40625l6.953125 0q-0.140625 -1.5625 -0.796875 -2.359375q-1.0 -1.21875 -2.609375 -1.21875q-1.453125 0 -2.453125 0.984375q-0.984375 0.96875 -1.09375 2.59375zm19.910156 7.421875l0 -1.828125q-1.453125 2.109375 -3.9375 2.109375q-1.109375 0 -2.0625 -0.421875q-0.953125 -0.421875 -1.421875 -1.0625q-0.453125 -0.640625 -0.640625 -1.5625q-0.140625 -0.625 -0.140625 -1.96875l0 -7.71875l2.109375 0l0 6.90625q0 1.65625 0.140625 2.234375q0.1875 0.828125 0.828125 1.3125q0.65625 0.46875 1.609375 0.46875q0.9375 0 1.765625 -0.484375q0.84375 -0.5 1.1875 -1.328125q0.34375 -0.84375 0.34375 -2.4375l0 -6.671875l2.109375 0l0 12.453125l-1.890625 0zm5.1757812 0l0 -12.453125l1.890625 0l0 1.890625q0.734375 -1.328125 1.34375 -1.75q0.625 -0.421875 1.359375 -0.421875q1.0625 0 2.171875 0.6875l-0.734375 1.953125q-0.765625 -0.453125 -1.546875 -0.453125q-0.6875 0 -1.25 0.421875q-0.546875 0.40625 -0.78125 1.140625q-0.34375 1.125 -0.34375 2.46875l0 6.515625l-2.109375 0zm16.132812 -1.53125q-1.171875 0.984375 -2.265625 1.40625q-1.078125 0.40625 -2.3125 0.40625q-2.046875 0 -3.15625 -1.0q-1.09375 -1.0 -1.09375 -2.5625q0 -0.921875 0.40625 -1.671875q0.421875 -0.75 1.09375 -1.203125q0.671875 -0.46875 1.515625 -0.703125q0.625 -0.15625 1.875 -0.3125q2.5625 -0.3125 3.765625 -0.734375q0.015625 -0.421875 0.015625 -0.546875q0 -1.28125 -0.609375 -1.8125q-0.796875 -0.71875 -2.390625 -0.71875q-1.5 0 -2.203125 0.53125q-0.703125 0.515625 -1.046875 1.84375l-2.0625 -0.28125q0.28125 -1.328125 0.921875 -2.140625q0.640625 -0.8125 1.859375 -1.25q1.21875 -0.453125 2.828125 -0.453125q1.59375 0 2.59375 0.375q1.0 0.375 1.46875 0.953125q0.46875 0.5625 0.65625 1.4375q0.09375 0.53125 0.09375 1.9375l0 2.8125q0 2.9375 0.140625 3.71875q0.140625 0.78125 0.53125 1.5l-2.203125 0q-0.328125 -0.65625 -0.421875 -1.53125zm-0.171875 -4.71875q-1.15625 0.46875 -3.453125 0.796875q-1.296875 0.1875 -1.84375 0.421875q-0.53125 0.234375 -0.828125 0.6875q-0.28125 0.453125 -0.28125 1.0q0 0.84375 0.625 1.40625q0.640625 0.5625 1.875 0.5625q1.21875 0 2.171875 -0.53125q0.953125 -0.53125 1.390625 -1.453125q0.34375 -0.71875 0.34375 -2.109375l0 -0.78125zm5.3476562 6.25l0 -17.1875l2.109375 0l0 17.1875l-2.109375 0z" fill-rule="nonzero"/><path fill="#000000" d="m791.0782 970.3025l0 -17.1875l2.328125 0l9.03125 13.5l0 -13.5l2.171875 0l0 17.1875l-2.328125 0l-9.015625 -13.5l0 13.5l-2.1875 0zm25.613281 -4.015625l2.171875 0.28125q-0.515625 1.90625 -1.90625 2.96875q-1.390625 1.046875 -3.5625 1.046875q-2.734375 0 -4.34375 -1.671875q-1.59375 -1.6875 -1.59375 -4.734375q0 -3.140625 1.609375 -4.875q1.625 -1.734375 4.203125 -1.734375q2.5 0 4.078125 1.703125q1.59375 1.703125 1.59375 4.78125q0 0.1875 -0.015625 0.5625l-9.28125 0q0.109375 2.046875 1.15625 3.140625q1.046875 1.09375 2.609375 1.09375q1.15625 0 1.96875 -0.609375q0.828125 -0.609375 1.3125 -1.953125zm-6.9375 -3.40625l6.953125 0q-0.140625 -1.5625 -0.796875 -2.359375q-1.0 -1.21875 -2.609375 -1.21875q-1.453125 0 -2.453125 0.984375q-0.984375 0.96875 -1.09375 2.59375zm16.363281 5.53125l0.3125 1.859375q-0.890625 0.203125 -1.59375 0.203125q-1.15625 0 -1.796875 -0.359375q-0.625 -0.375 -0.890625 -0.96875q-0.25 -0.59375 -0.25 -2.484375l0 -7.171875l-1.546875 0l0 -1.640625l1.546875 0l0 -3.078125l2.09375 -1.265625l0 4.34375l2.125 0l0 1.640625l-2.125 0l0 7.28125q0 0.90625 0.109375 1.171875q0.125 0.25 0.375 0.40625q0.25 0.140625 0.71875 0.140625q0.34375 0 0.921875 -0.078125zm4.3554688 1.890625l-3.796875 -12.453125l2.171875 0l1.984375 7.1875l0.734375 2.671875q0.046875 -0.203125 0.640625 -2.5625l1.984375 -7.296875l2.171875 0l1.859375 7.21875l0.625 2.390625l0.71875 -2.40625l2.125 -7.203125l2.046875 0l-3.890625 12.453125l-2.1875 0l-1.984375 -7.453125l-0.46875 -2.125l-2.53125 9.578125l-2.203125 0zm14.253906 -6.21875q0 -3.46875 1.921875 -5.125q1.609375 -1.390625 3.921875 -1.390625q2.5625 0 4.1875 1.6875q1.625 1.6875 1.625 4.640625q0 2.40625 -0.71875 3.78125q-0.71875 1.375 -2.09375 2.140625q-1.375 0.765625 -3.0 0.765625q-2.625 0 -4.234375 -1.671875q-1.609375 -1.6875 -1.609375 -4.828125zm2.171875 0q0 2.390625 1.03125 3.578125q1.046875 1.1875 2.640625 1.1875q1.5625 0 2.609375 -1.1875q1.046875 -1.203125 1.046875 -3.65625q0 -2.3125 -1.0625 -3.5q-1.046875 -1.1875 -2.59375 -1.1875q-1.59375 0 -2.640625 1.1875q-1.03125 1.1875 -1.03125 3.578125zm11.941406 6.21875l0 -12.453125l1.890625 0l0 1.890625q0.734375 -1.328125 1.34375 -1.75q0.625 -0.421875 1.359375 -0.421875q1.0625 0 2.171875 0.6875l-0.734375 1.953125q-0.765625 -0.453125 -1.546875 -0.453125q-0.6875 0 -1.25 0.421875q-0.546875 0.40625 -0.78125 1.140625q-0.34375 1.125 -0.34375 2.46875l0 6.515625l-2.109375 0zm8.0234375 0l0 -17.1875l2.109375 0l0 9.796875l5.0 -5.0625l2.71875 0l-4.75 4.625l5.234375 7.828125l-2.59375 0l-4.125 -6.359375l-1.484375 1.421875l0 4.9375l-2.109375 0z" fill-rule="nonzero"/><path fill="#cfe2f3" d="m791.1496 769.72705l84.22046 0l0 58.960632l-84.22046 0z" fill-rule="evenodd"/><path stroke="#a4c2f4" stroke-width="1.0" stroke-linejoin="round" stroke-linecap="butt" d="m791.1496 769.72705l84.22046 0l0 58.960632l-84.22046 0z" fill-rule="evenodd"/><path fill="#000000" d="m814.81647 807.7474l0 -17.1875l2.109375 0l0 6.171875q1.484375 -1.71875 3.734375 -1.71875q1.375 0 2.390625 0.546875q1.03125 0.546875 1.46875 1.515625q0.4375 0.953125 0.4375 2.78125l0 7.890625l-2.109375 0l0 -7.890625q0 -1.578125 -0.6875 -2.296875q-0.6875 -0.71875 -1.9375 -0.71875q-0.9375 0 -1.765625 0.484375q-0.828125 0.484375 -1.1875 1.3125q-0.34375 0.828125 -0.34375 2.296875l0 6.8125l-2.109375 0zm12.785156 -4.53125l2.109375 -0.28125q0.359375 1.78125 1.234375 2.578125q0.875 0.796875 2.125 0.796875q1.484375 0 2.5 -1.03125q1.03125 -1.03125 1.03125 -2.5625q0 -1.453125 -0.953125 -2.390625q-0.9375 -0.953125 -2.40625 -0.953125q-0.59375 0 -1.484375 0.234375l0.234375 -1.84375q0.203125 0.015625 0.34375 0.015625q1.34375 0 2.421875 -0.703125q1.078125 -0.703125 1.078125 -2.15625q0 -1.171875 -0.796875 -1.921875q-0.78125 -0.765625 -2.015625 -0.765625q-1.234375 0 -2.0625 0.78125q-0.8125 0.765625 -1.046875 2.3125l-2.109375 -0.375q0.390625 -2.125 1.75 -3.28125q1.375 -1.171875 3.421875 -1.171875q1.40625 0 2.578125 0.609375q1.1875 0.59375 1.8125 1.640625q0.640625 1.046875 0.640625 2.21875q0 1.109375 -0.609375 2.03125q-0.59375 0.90625 -1.765625 1.4375q1.53125 0.359375 2.375 1.46875q0.84375 1.109375 0.84375 2.765625q0 2.25 -1.640625 3.828125q-1.640625 1.5625 -4.15625 1.5625q-2.265625 0 -3.765625 -1.34375q-1.484375 -1.359375 -1.6875 -3.5zm13.910156 4.53125l0 -12.453125l1.90625 0l0 1.78125q1.375 -2.0625 3.953125 -2.0625q1.125 0 2.0625 0.40625q0.953125 0.40625 1.421875 1.0625q0.46875 0.65625 0.65625 1.5625q0.125 0.578125 0.125 2.046875l0 7.65625l-2.109375 0l0 -7.578125q0 -1.28125 -0.25 -1.921875q-0.25 -0.640625 -0.875 -1.015625q-0.625 -0.390625 -1.46875 -0.390625q-1.34375 0 -2.328125 0.859375q-0.984375 0.859375 -0.984375 3.25l0 6.796875l-2.109375 0z" fill-rule="nonzero"/><path fill="#000000" fill-opacity="0.0" d="m833.2598 711.9869l0 57.7323" fill-rule="evenodd"/><path stroke="#000000" stroke-width="2.0" stroke-linejoin="round" stroke-linecap="butt" d="m833.2598 711.9869l0 45.7323" fill-rule="evenodd"/><path fill="#000000" stroke="#000000" stroke-width="2.0" stroke-linecap="butt" d="m829.95636 757.7192l3.3034668 9.076172l3.3034668 -9.076172z" fill-rule="evenodd"/><path fill="#000000" fill-opacity="0.0" d="m833.2598 828.6877l0 57.73224" fill-rule="evenodd"/><path stroke="#000000" stroke-width="2.0" stroke-linejoin="round" stroke-linecap="butt" d="m833.2598 828.6877l0 45.73224" fill-rule="evenodd"/><path fill="#000000" stroke="#000000" stroke-width="2.0" stroke-linecap="butt" d="m829.95636 874.4199l3.3034668 9.076233l3.3034668 -9.076233z" fill-rule="evenodd"/><path fill="#d9ead3" d="m989.2913 914.17584l181.29132 0l0 66.17322l-181.29132 0z" fill-rule="evenodd"/><path stroke="#b6d7a8" stroke-width="1.0" stroke-linejoin="round" stroke-linecap="butt" d="m989.2913 914.17584l181.29132 0l0 66.17322l-181.29132 0z" fill-rule="evenodd"/><path fill="#000000" d="m1028.435 955.8025l0 -17.1875l6.46875 0q1.71875 0 2.625 0.171875q1.265625 0.203125 2.109375 0.796875q0.859375 0.59375 1.375 1.671875q0.53125 1.0625 0.53125 2.328125q0 2.203125 -1.40625 3.71875q-1.390625 1.515625 -5.03125 1.515625l-4.40625 0l0 6.984375l-2.265625 0zm2.265625 -9.015625l4.4375 0q2.203125 0 3.125 -0.8125q0.9375 -0.828125 0.9375 -2.3125q0 -1.078125 -0.546875 -1.84375q-0.546875 -0.765625 -1.4375 -1.015625q-0.578125 -0.15625 -2.125 -0.15625l-4.390625 0l0 6.140625zm13.4453125 9.015625l0 -12.453125l1.890625 0l0 1.890625q0.734375 -1.328125 1.34375 -1.75q0.625 -0.421875 1.359375 -0.421875q1.0625 0 2.171875 0.6875l-0.734375 1.953125q-0.765625 -0.453125 -1.546875 -0.453125q-0.6875 0 -1.25 0.421875q-0.546875 0.40625 -0.78125 1.140625q-0.34375 1.125 -0.34375 2.46875l0 6.515625l-2.109375 0zm16.539062 -4.015625l2.171875 0.28125q-0.515625 1.90625 -1.90625 2.96875q-1.390625 1.046875 -3.5625 1.046875q-2.734375 0 -4.34375 -1.671875q-1.59375 -1.6875 -1.59375 -4.734375q0 -3.140625 1.609375 -4.875q1.625 -1.734375 4.203125 -1.734375q2.5 0 4.078125 1.703125q1.59375 1.703125 1.59375 4.78125q0 0.1875 -0.015625 0.5625l-9.28125 0q0.109375 2.046875 1.15625 3.140625q1.046875 1.09375 2.609375 1.09375q1.15625 0 1.96875 -0.609375q0.828125 -0.609375 1.3125 -1.953125zm-6.9375 -3.40625l6.953125 0q-0.140625 -1.5625 -0.796875 -2.359375q-1.0 -1.21875 -2.609375 -1.21875q-1.453125 0 -2.453125 0.984375q-0.984375 0.96875 -1.09375 2.59375zm19.832031 7.421875l0 -1.578125q-1.1875 1.859375 -3.484375 1.859375q-1.484375 0 -2.734375 -0.8125q-1.25 -0.828125 -1.9375 -2.296875q-0.671875 -1.46875 -0.671875 -3.390625q0 -1.859375 0.609375 -3.375q0.625 -1.515625 1.859375 -2.328125q1.25 -0.8125 2.78125 -0.8125q1.125 0 2.0 0.484375q0.890625 0.46875 1.4375 1.234375l0 -6.171875l2.09375 0l0 17.1875l-1.953125 0zm-6.671875 -6.21875q0 2.390625 1.0 3.578125q1.015625 1.1875 2.390625 1.1875q1.390625 0 2.34375 -1.125q0.96875 -1.140625 0.96875 -3.453125q0 -2.5625 -0.984375 -3.75q-0.984375 -1.203125 -2.421875 -1.203125q-1.40625 0 -2.359375 1.15625q-0.9375 1.140625 -0.9375 3.609375zm11.957031 -8.53125l0 -2.4375l2.109375 0l0 2.4375l-2.109375 0zm0 14.75l0 -12.453125l2.109375 0l0 12.453125l-2.109375 0zm13.441406 -4.5625l2.078125 0.265625q-0.34375 2.15625 -1.75 3.375q-1.390625 1.203125 -3.4375 1.203125q-2.546875 0 -4.109375 -1.671875q-1.546875 -1.671875 -1.546875 -4.78125q0 -2.015625 0.671875 -3.53125q0.671875 -1.515625 2.03125 -2.265625q1.359375 -0.765625 2.96875 -0.765625q2.03125 0 3.3125 1.03125q1.296875 1.03125 1.65625 2.90625l-2.046875 0.328125q-0.296875 -1.265625 -1.046875 -1.890625q-0.734375 -0.640625 -1.796875 -0.640625q-1.59375 0 -2.59375 1.15625q-0.984375 1.140625 -0.984375 3.609375q0 2.5 0.953125 3.640625q0.96875 1.140625 2.515625 1.140625q1.234375 0 2.0625 -0.765625q0.84375 -0.765625 1.0625 -2.34375zm8.484375 2.671875l0.3125 1.859375q-0.890625 0.203125 -1.59375 0.203125q-1.15625 0 -1.796875 -0.359375q-0.625 -0.375 -0.890625 -0.96875q-0.25 -0.59375 -0.25 -2.484375l0 -7.171875l-1.546875 0l0 -1.640625l1.546875 0l0 -3.078125l2.09375 -1.265625l0 4.34375l2.125 0l0 1.640625l-2.125 0l0 7.28125q0 0.90625 0.109375 1.171875q0.125 0.25 0.375 0.40625q0.25 0.140625 0.71875 0.140625q0.34375 0 0.921875 -0.078125zm2.0742188 -12.859375l0 -2.4375l2.109375 0l0 2.4375l-2.109375 0zm0 14.75l0 -12.453125l2.109375 0l0 12.453125l-2.109375 0zm4.5351562 -6.21875q0 -3.46875 1.921875 -5.125q1.609375 -1.390625 3.921875 -1.390625q2.5625 0 4.1875 1.6875q1.625 1.6875 1.625 4.640625q0 2.40625 -0.71875 3.78125q-0.71875 1.375 -2.09375 2.140625q-1.375 0.765625 -3.0 0.765625q-2.625 0 -4.234375 -1.671875q-1.609375 -1.6875 -1.609375 -4.828125zm2.171875 0q0 2.390625 1.03125 3.578125q1.046875 1.1875 2.640625 1.1875q1.5625 0 2.609375 -1.1875q1.046875 -1.203125 1.046875 -3.65625q0 -2.3125 -1.0625 -3.5q-1.046875 -1.1875 -2.59375 -1.1875q-1.59375 0 -2.640625 1.1875q-1.03125 1.1875 -1.03125 3.578125zm11.957031 6.21875l0 -12.453125l1.90625 0l0 1.78125q1.375 -2.0625 3.953125 -2.0625q1.125 0 2.0625 0.40625q0.953125 0.40625 1.421875 1.0625q0.46875 0.65625 0.65625 1.5625q0.125 0.578125 0.125 2.046875l0 7.65625l-2.109375 0l0 -7.578125q0 -1.28125 -0.25 -1.921875q-0.25 -0.640625 -0.875 -1.015625q-0.625 -0.390625 -1.46875 -0.390625q-1.34375 0 -2.328125 0.859375q-0.984375 0.859375 -0.984375 3.25l0 6.796875l-2.109375 0z" fill-rule="nonzero"/><path fill="#000000" fill-opacity="0.0" d="m908.0945 947.26245l81.19684 0" fill-rule="evenodd"/><path stroke="#000000" stroke-width="2.0" stroke-linejoin="round" stroke-linecap="butt" d="m908.0945 947.26245l69.19684 0" fill-rule="evenodd"/><path fill="#000000" stroke="#000000" stroke-width="2.0" stroke-linecap="butt" d="m977.2913 950.5659l9.076233 -3.3034668l-9.076233 -3.3034668z" fill-rule="evenodd"/></g></svg>