<svg version="1.1" viewBox="0.0 0.0 1325.2020997375328 727.5328083989501" fill="none" stroke="none" stroke-linecap="square" stroke-miterlimit="10" xmlns:xlink="http://www.w3.org/1999/xlink" xmlns="http://www.w3.org/2000/svg"><clipPath id="p.0"><path d="m0 0l1325.2021 0l0 727.53284l-1325.2021 0l0 -727.53284z" clip-rule="nonzero"/></clipPath><g clip-path="url(#p.0)"><path fill="#000000" fill-opacity="0.0" d="m0 0l1325.2021 0l0 727.53284l-1325.2021 0z" fill-rule="evenodd"/><path fill="#cfe2f3" d="m131.51706 66.84646l203.49606 0l0 77.5118l-203.49606 0z" fill-rule="evenodd"/><path stroke="#4a86e8" stroke-width="1.0" stroke-linejoin="round" stroke-linecap="butt" d="m131.51706 66.84646l203.49606 0l0 77.5118l-203.49606 0z" fill-rule="evenodd"/><path fill="#000000" d="m161.40767 114.142365l4.546875 -6.46875l-4.203125 -5.984375l2.640625 0l1.90625 2.921875q0.546875 0.828125 0.875 1.390625q0.515625 -0.765625 0.9375 -1.359375l2.109375 -2.953125l2.515625 0l-4.296875 5.859375l4.625 6.59375l-2.59375 0l-2.546875 -3.875l-0.6875 -1.03125l-3.265625 4.90625l-2.5625 0zm20.765625 0l-2.109375 0l0 -13.4375q-0.75 0.71875 -2.0 1.453125q-1.234375 0.71875 -2.21875 1.078125l0 -2.03125q1.78125 -0.828125 3.09375 -2.015625q1.328125 -1.1875 1.875 -2.296875l1.359375 0l0 17.25zm6.5507812 0l0 -2.40625l2.390625 0l0 2.40625q0 1.328125 -0.46875 2.140625q-0.46875 0.8125 -1.484375 1.265625l-0.578125 -0.90625q0.65625 -0.296875 0.96875 -0.875q0.328125 -0.5625 0.359375 -1.625l-1.1875 0zm11.3671875 0l4.546875 -6.46875l-4.203125 -5.984375l2.640625 0l1.90625 2.921875q0.546875 0.828125 0.875 1.390625q0.515625 -0.765625 0.9375 -1.359375l2.109375 -2.953125l2.515625 0l-4.296875 5.859375l4.625 6.59375l-2.59375 0l-2.546875 -3.875l-0.6875 -1.03125l-3.265625 4.90625l-2.5625 0zm23.90625 -2.03125l0 2.03125l-11.34375 0q-0.03125 -0.765625 0.234375 -1.46875q0.4375 -1.15625 1.390625 -2.28125q0.953125 -1.125 2.765625 -2.609375q2.796875 -2.296875 3.78125 -3.625q0.984375 -1.34375 0.984375 -2.546875q0 -1.25 -0.90625 -2.109375q-0.890625 -0.859375 -2.328125 -0.859375q-1.515625 0 -2.4375 0.921875q-0.90625 0.90625 -0.921875 2.515625l-2.171875 -0.21875q0.21875 -2.421875 1.671875 -3.6875q1.453125 -1.28125 3.90625 -1.28125q2.46875 0 3.90625 1.375q1.453125 1.359375 1.453125 3.390625q0 1.03125 -0.421875 2.03125q-0.421875 1.0 -1.40625 2.109375q-0.96875 1.09375 -3.25 3.015625q-1.890625 1.59375 -2.4375 2.15625q-0.53125 0.5625 -0.890625 1.140625l8.421875 0zm3.4101562 2.03125l0 -2.40625l2.390625 0l0 2.40625q0 1.328125 -0.46875 2.140625q-0.46875 0.8125 -1.484375 1.265625l-0.578125 -0.90625q0.65625 -0.296875 0.96875 -0.875q0.328125 -0.5625 0.359375 -1.625l-1.1875 0zm13.9921875 0l0 -2.40625l2.40625 0l0 2.40625l-2.40625 0zm8.015625 0l0 -2.40625l2.390625 0l0 2.40625l-2.390625 0zm7.9843903 0l0 -2.40625l2.421875 0l0 2.40625l-2.421875 0zm7.34375 0l0 -2.40625l2.390625 0l0 2.40625q0 1.328125 -0.46875 2.140625q-0.46875 0.8125 -1.484375 1.265625l-0.578125 -0.90625q0.65625 -0.296875 0.96875 -0.875q0.328125 -0.5625 0.359375 -1.625l-1.1875 0zm11.3046875 0l6.640625 -8.953125l-5.859375 -8.234375l2.703125 0l3.125 4.40625q0.96875 1.375 1.375 2.109375q0.578125 -0.9375 1.359375 -1.953125l3.46875 -4.5625l2.46875 0l-6.03125 8.109375l6.5 9.078125l-2.8125 0l-4.328125 -6.125q-0.359375 -0.53125 -0.75 -1.15625q-0.578125 0.9375 -0.8125 1.296875l-4.3125 5.984375l-2.734375 0zm17.476562 0l0 -12.453125l1.90625 0l0 1.78125q1.375 -2.0625 3.953125 -2.0625q1.125 0 2.0625 0.40625q0.953125 0.40625 1.421875 1.0625q0.46875 0.65625 0.65625 1.5625q0.125 0.578125 0.125 2.046875l0 7.65625l-2.109375 0l0 -7.578125q0 -1.28125 -0.25 -1.921875q-0.25 -0.640625 -0.875 -1.015625q-0.625 -0.390625 -1.46875 -0.390625q-1.34375 0 -2.328125 0.859375q-0.984375 0.859375 -0.984375 3.25l0 6.796875l-2.109375 0z" fill-rule="nonzero"/><path fill="#f4cccc" d="m83.06036 238.85432l300.40945 0l0 83.59056l-300.40945 0z" fill-rule="evenodd"/><path stroke="#ea9999" stroke-width="1.0" stroke-linejoin="round" stroke-linecap="butt" d="m83.06036 238.85432l300.40945 0l0 83.59056l-300.40945 0z" fill-rule="evenodd"/><path fill="#000000" d="m203.02681 289.1896l0 -17.1875l2.265625 0l0 15.15625l8.46875 0l0 2.03125l-10.734375 0zm12.660156 -5.515625l2.140625 -0.1875q0.15625 1.28125 0.703125 2.109375q0.5625 0.828125 1.734375 1.34375q1.171875 0.5 2.640625 0.5q1.296875 0 2.296875 -0.375q1.0 -0.390625 1.484375 -1.0625q0.484375 -0.6875 0.484375 -1.484375q0 -0.796875 -0.46875 -1.40625q-0.46875 -0.609375 -1.546875 -1.015625q-0.6875 -0.265625 -3.0625 -0.828125q-2.359375 -0.578125 -3.3125 -1.078125q-1.234375 -0.640625 -1.84375 -1.59375q-0.59375 -0.96875 -0.59375 -2.140625q0 -1.3125 0.734375 -2.4375q0.75 -1.125 2.15625 -1.703125q1.421875 -0.59375 3.15625 -0.59375q1.90625 0 3.359375 0.609375q1.46875 0.609375 2.25 1.8125q0.796875 1.1875 0.84375 2.703125l-2.171875 0.171875q-0.171875 -1.640625 -1.1875 -2.46875q-1.015625 -0.828125 -3.0 -0.828125q-2.0625 0 -3.015625 0.765625q-0.9375 0.75 -0.9375 1.8125q0 0.921875 0.671875 1.515625q0.65625 0.609375 3.421875 1.234375q2.78125 0.625 3.8125 1.09375q1.5 0.6875 2.203125 1.75q0.71875 1.0625 0.71875 2.4375q0 1.375 -0.78125 2.59375q-0.78125 1.203125 -2.25 1.890625q-1.46875 0.671875 -3.3125 0.671875q-2.328125 0 -3.90625 -0.671875q-1.578125 -0.6875 -2.484375 -2.046875q-0.890625 -1.375 -0.9375 -3.09375zm21.148438 5.515625l0 -15.15625l-5.65625 0l0 -2.03125l13.625 0l0 2.03125l-5.6875 0l0 15.15625l-2.28125 0zm10.222656 0l0 -17.1875l3.421875 0l4.0625 12.171875q0.5625 1.703125 0.828125 2.546875q0.296875 -0.9375 0.90626526 -2.765625l4.125 -11.953125l3.046875 0l0 17.1875l-2.1875 0l0 -14.375l-4.984375 14.375l-2.0625153 0l-4.96875 -14.625l0 14.625l-2.1875 0z" fill-rule="nonzero"/><path fill="#000000" d="m209.04462 191.6063l12.110245 0l0 -24.220459l24.220474 0l0 24.220459l12.1102295 0l-24.220474 24.220474z" fill-rule="evenodd"/><path stroke="#000000" stroke-width="1.0" stroke-linejoin="round" stroke-linecap="butt" d="m209.04462 191.6063l12.110245 0l0 -24.220459l24.220474 0l0 24.220459l12.1102295 0l-24.220474 24.220474z" fill-rule="evenodd"/><path fill="#000000" d="m209.04462 369.69028l12.110245 0l0 -24.220459l24.220474 0l0 24.220459l12.1102295 0l-24.220474 24.22049z" fill-rule="evenodd"/><path stroke="#000000" stroke-width="1.0" stroke-linejoin="round" stroke-linecap="butt" d="m209.04462 369.69028l12.110245 0l0 -24.220459l24.220474 0l0 24.220459l12.1102295 0l-24.220474 24.22049z" fill-rule="evenodd"/><path fill="#cfe2f3" d="m131.51706 416.93832l203.49606 0l0 77.51181l-203.49606 0z" fill-rule="evenodd"/><path stroke="#4a86e8" stroke-width="1.0" stroke-linejoin="round" stroke-linecap="butt" d="m131.51706 416.93832l203.49606 0l0 77.51181l-203.49606 0z" fill-rule="evenodd"/><path fill="#000000" d="m142.77486 464.23422l0 -17.1875l2.109375 0l0 6.171875q1.484375 -1.71875 3.734375 -1.71875q1.375 0 2.390625 0.546875q1.03125 0.546875 1.46875 1.515625q0.4375 0.953125 0.4375 2.78125l0 7.890625l-2.109375 0l0 -7.890625q0 -1.578125 -0.6875 -2.296875q-0.6875 -0.71875 -1.9375 -0.71875q-0.9375 0 -1.765625 0.484375q-0.828125 0.484375 -1.1875 1.3125q-0.34375 0.828125 -0.34375 2.296875l0 6.8125l-2.109375 0zm20.707031 0l-2.109375 0l0 -13.4375q-0.75 0.71875 -2.0 1.453125q-1.234375 0.71875 -2.21875 1.078125l0 -2.03125q1.78125 -0.828125 3.09375 -2.015625q1.328125 -1.1875 1.875 -2.296875l1.359375 0l0 17.25zm13.347656 0l-2.109375 0l0 -13.4375q-0.75 0.71875 -2.0 1.453125q-1.234375 0.71875 -2.21875 1.078125l0 -2.03125q1.78125 -0.828125 3.09375 -2.015625q1.328125 -1.1875 1.875 -2.296875l1.359375 0l0 17.25zm6.5507812 0l0 -2.40625l2.390625 0l0 2.40625q0 1.328125 -0.46875 2.140625q-0.46875 0.8125 -1.484375 1.265625l-0.578125 -0.90625q0.65625 -0.296875 0.96875 -0.875q0.328125 -0.5625 0.359375 -1.625l-1.1875 0zm12.7734375 0l0 -17.1875l2.109375 0l0 6.171875q1.484375 -1.71875 3.734375 -1.71875q1.375 0 2.390625 0.546875q1.03125 0.546875 1.46875 1.515625q0.4375 0.953125 0.4375 2.78125l0 7.890625l-2.109375 0l0 -7.890625q0 -1.578125 -0.6875 -2.296875q-0.6875 -0.71875 -1.9375 -0.71875q-0.9375 0 -1.765625 0.484375q-0.828125 0.484375 -1.1875 1.3125q-0.34375 0.828125 -0.34375 2.296875l0 6.8125l-2.109375 0zm20.707031 0l-2.109375 0l0 -13.4375q-0.75 0.71875 -2.0 1.453125q-1.234375 0.71875 -2.21875 1.078125l0 -2.03125q1.78125 -0.828125 3.09375 -2.015625q1.328125 -1.1875 1.875 -2.296875l1.359375 0l0 17.25zm16.488281 -2.03125l0 2.03125l-11.34375 0q-0.03125 -0.765625 0.234375 -1.46875q0.4375 -1.15625 1.390625 -2.28125q0.953125 -1.125 2.765625 -2.609375q2.796875 -2.296875 3.78125 -3.625q0.984375 -1.34375 0.984375 -2.546875q0 -1.25 -0.90625 -2.109375q-0.890625 -0.859375 -2.328125 -0.859375q-1.515625 0 -2.4375 0.921875q-0.90625 0.90625 -0.921875 2.515625l-2.171875 -0.21875q0.21875 -2.421875 1.671875 -3.6875q1.453125 -1.28125 3.90625 -1.28125q2.46875 0 3.90625 1.375q1.453125 1.359375 1.453125 3.390625q0 1.03125 -0.421875 2.03125q-0.421875 1.0 -1.40625 2.109375q-0.96875 1.09375 -3.25 3.015625q-1.890625 1.59375 -2.4375 2.15625q-0.53125 0.5625 -0.890625 1.140625l8.421875 0zm3.4101562 2.03125l0 -2.40625l2.390625 0l0 2.40625q0 1.328125 -0.46875 2.140625q-0.46875 0.8125 -1.484375 1.265625l-0.578125 -0.90625q0.65625 -0.296875 0.96875 -0.875q0.328125 -0.5625 0.359375 -1.625l-1.1875 0zm13.9921875 0l0 -2.40625l2.40625 0l0 2.40625l-2.40625 0zm8.01564 0l0 -2.40625l2.390625 0l0 2.40625l-2.390625 0zm7.984375 0l0 -2.40625l2.421875 0l0 2.40625l-2.421875 0zm7.34375 0l0 -2.40625l2.390625 0l0 2.40625q0 1.328125 -0.46875 2.140625q-0.46875 0.8125 -1.484375 1.265625l-0.578125 -0.90625q0.65625 -0.296875 0.96875 -0.875q0.328125 -0.5625 0.359375 -1.625l-1.1875 0zm12.7734375 0l0 -17.1875l2.109375 0l0 6.171875q1.484375 -1.71875 3.734375 -1.71875q1.375 0 2.390625 0.546875q1.03125 0.546875 1.46875 1.515625q0.4375 0.953125 0.4375 2.78125l0 7.890625l-2.109375 0l0 -7.890625q0 -1.578125 -0.6875 -2.296875q-0.6875 -0.71875 -1.9375 -0.71875q-0.9375 0 -1.765625 0.484375q-0.828125 0.484375 -1.1875 1.3125q-0.34375 0.828125 -0.34375 2.296875l0 6.8125l-2.109375 0zm20.707031 0l-2.109375 0l0 -13.4375q-0.75 0.71875 -2.0 1.453125q-1.234375 0.71875 -2.21875 1.078125l0 -2.03125q1.78125 -0.828125 3.09375 -2.015625q1.328125 -1.1875 1.875 -2.296875l1.359375 0l0 17.25zm5.9882812 0l0 -12.453125l1.90625 0l0 1.78125q1.375 -2.0625 3.953125 -2.0625q1.125 0 2.0625 0.40625q0.953125 0.40625 1.421875 1.0625q0.46875 0.65625 0.65625 1.5625q0.125 0.578125 0.125 2.046875l0 7.65625l-2.109375 0l0 -7.578125q0 -1.28125 -0.25 -1.921875q-0.25 -0.640625 -0.875 -1.015625q-0.625 -0.390625 -1.46875 -0.390625q-1.34375 0 -2.328125 0.859375q-0.984375 0.859375 -0.984375 3.25l0 6.796875l-2.109375 0z" fill-rule="nonzero"/><path fill="#f4cccc" d="m83.06036 579.75195l300.40945 0l0 83.590576l-300.40945 0z" fill-rule="evenodd"/><path stroke="#ea9999" stroke-width="1.0" stroke-linejoin="round" stroke-linecap="butt" d="m83.06036 579.75195l300.40945 0l0 83.590576l-300.40945 0z" fill-rule="evenodd"/><path fill="#000000" d="m203.02681 630.0872l0 -17.1875l2.265625 0l0 15.15625l8.46875 0l0 2.03125l-10.734375 0zm12.660156 -5.515625l2.140625 -0.1875q0.15625 1.28125 0.703125 2.109375q0.5625 0.828125 1.734375 1.34375q1.171875 0.5 2.640625 0.5q1.296875 0 2.296875 -0.375q1.0 -0.390625 1.484375 -1.0625q0.484375 -0.6875 0.484375 -1.484375q0 -0.796875 -0.46875 -1.40625q-0.46875 -0.609375 -1.546875 -1.015625q-0.6875 -0.265625 -3.0625 -0.828125q-2.359375 -0.578125 -3.3125 -1.078125q-1.234375 -0.640625 -1.84375 -1.59375q-0.59375 -0.96875 -0.59375 -2.140625q0 -1.3125 0.734375 -2.4375q0.75 -1.125 2.15625 -1.703125q1.421875 -0.59375 3.15625 -0.59375q1.90625 0 3.359375 0.609375q1.46875 0.609375 2.25 1.8125q0.796875 1.1875 0.84375 2.703125l-2.171875 0.171875q-0.171875 -1.640625 -1.1875 -2.46875q-1.015625 -0.828125 -3.0 -0.828125q-2.0625 0 -3.015625 0.765625q-0.9375 0.75 -0.9375 1.8125q0 0.921875 0.671875 1.515625q0.65625 0.609375 3.421875 1.234375q2.78125 0.625 3.8125 1.09375q1.5 0.6875 2.203125 1.75q0.71875 1.0625 0.71875 2.4375q0 1.375 -0.78125 2.59375q-0.78125 1.203125 -2.25 1.890625q-1.46875 0.671875 -3.3125 0.671875q-2.328125 0 -3.90625 -0.671875q-1.578125 -0.6875 -2.484375 -2.046875q-0.890625 -1.375 -0.9375 -3.09375zm21.148438 5.515625l0 -15.15625l-5.65625 0l0 -2.03125l13.625 0l0 2.03125l-5.6875 0l0 15.15625l-2.28125 0zm10.222656 0l0 -17.1875l3.421875 0l4.0625 12.171875q0.5625 1.703125 0.828125 2.546875q0.296875 -0.9375 0.90626526 -2.765625l4.125 -11.953125l3.046875 0l0 17.1875l-2.1875 0l0 -14.375l-4.984375 14.375l-2.0625153 0l-4.96875 -14.625l0 14.625l-2.1875 0z" fill-rule="nonzero"/><path fill="#000000" d="m209.04462 537.09973l12.110245 0l0 -24.220459l24.220474 0l0 24.220459l12.1102295 0l-24.220474 24.220459z" fill-rule="evenodd"/><path stroke="#000000" stroke-width="1.0" stroke-linejoin="round" stroke-linecap="butt" d="m209.04462 537.09973l12.110245 0l0 -24.220459l24.220474 0l0 24.220459l12.1102295 0l-24.220474 24.220459z" fill-rule="evenodd"/><path fill="#000000" d="m647.46716 191.6063l12.110291 0l0 -24.220459l24.220459 0l0 24.220459l12.1102295 0l-24.220459 24.220474z" fill-rule="evenodd"/><path stroke="#000000" stroke-width="1.0" stroke-linejoin="round" stroke-linecap="butt" d="m647.46716 191.6063l12.110291 0l0 -24.220459l24.220459 0l0 24.220459l12.1102295 0l-24.220459 24.220474z" fill-rule="evenodd"/><path fill="#cfe2f3" d="m569.93964 241.8937l203.49603 0l0 77.51181l-203.49603 0z" fill-rule="evenodd"/><path stroke="#4a86e8" stroke-width="1.0" stroke-linejoin="round" stroke-linecap="butt" d="m569.93964 241.8937l203.49603 0l0 77.51181l-203.49603 0z" fill-rule="evenodd"/><path fill="#000000" d="m581.19745 289.1896l0 -17.1875l2.109375 0l0 6.171875q1.484375 -1.71875 3.734375 -1.71875q1.375 0 2.390625 0.546875q1.03125 0.546875 1.46875 1.515625q0.4375 0.953125 0.4375 2.78125l0 7.890625l-2.109375 0l0 -7.890625q0 -1.578125 -0.6875 -2.296875q-0.6875 -0.71875 -1.9375 -0.71875q-0.9375 0 -1.765625 0.484375q-0.828125 0.484375 -1.1875 1.3125q-0.34375 0.828125 -0.34375 2.296875l0 6.8125l-2.109375 0zm23.847656 -2.03125l0 2.03125l-11.34375 0q-0.03125 -0.765625 0.234375 -1.46875q0.4375 -1.15625 1.390625 -2.28125q0.953125 -1.125 2.765625 -2.609375q2.796875 -2.296875 3.78125 -3.625q0.984375 -1.34375 0.984375 -2.546875q0 -1.25 -0.90625 -2.109375q-0.890625 -0.859375 -2.328125 -0.859375q-1.515625 0 -2.4375 0.921875q-0.90625 0.90625 -0.921875 2.515625l-2.171875 -0.21875q0.21875 -2.421875 1.671875 -3.6875q1.453125 -1.28125 3.90625 -1.28125q2.46875 0 3.90625 1.375q1.453125 1.359375 1.453125 3.390625q0 1.03125 -0.421875 2.03125q-0.421875 1.0 -1.40625 2.109375q-0.96875 1.09375 -3.25 3.015625q-1.890625 1.59375 -2.4375 2.15625q-0.53125 0.5625 -0.890625 1.140625l8.421875 0zm10.207031 2.03125l-2.109375 0l0 -13.4375q-0.75 0.71875 -2.0 1.453125q-1.234375 0.71875 -2.21875 1.078125l0 -2.03125q1.78125 -0.828125 3.09375 -2.015625q1.328125 -1.1875 1.875 -2.296875l1.359375 0l0 17.25zm6.5507812 0l0 -2.40625l2.390625 0l0 2.40625q0 1.328125 -0.46875 2.140625q-0.46875 0.8125 -1.484375 1.265625l-0.578125 -0.90625q0.65625 -0.296875 0.96875 -0.875q0.328125 -0.5625 0.359375 -1.625l-1.1875 0zm12.7734375 0l0 -17.1875l2.109375 0l0 6.171875q1.484375 -1.71875 3.734375 -1.71875q1.375 0 2.390625 0.546875q1.03125 0.546875 1.46875 1.515625q0.4375 0.953125 0.4375 2.78125l0 7.890625l-2.109375 0l0 -7.890625q0 -1.578125 -0.6875 -2.296875q-0.6875 -0.71875 -1.9375 -0.71875q-0.9375 0 -1.765625 0.484375q-0.828125 0.484375 -1.1875 1.3125q-0.34375 0.828125 -0.34375 2.296875l0 6.8125l-2.109375 0zm23.847656 -2.03125l0 2.03125l-11.34375 0q-0.03125 -0.765625 0.234375 -1.46875q0.4375 -1.15625 1.390625 -2.28125q0.953125 -1.125 2.765625 -2.609375q2.796875 -2.296875 3.78125 -3.625q0.984375 -1.34375 0.984375 -2.546875q0 -1.25 -0.90625 -2.109375q-0.890625 -0.859375 -2.328125 -0.859375q-1.515625 0 -2.4375 0.921875q-0.90625 0.90625 -0.921875 2.515625l-2.171875 -0.21875q0.21875 -2.421875 1.671875 -3.6875q1.453125 -1.28125 3.90625 -1.28125q2.46875 0 3.90625 1.375q1.453125 1.359375 1.453125 3.390625q0 1.03125 -0.421875 2.03125q-0.421875 1.0 -1.40625 2.109375q-0.96875 1.09375 -3.25 3.015625q-1.890625 1.59375 -2.4375 2.15625q-0.53125 0.5625 -0.890625 1.140625l8.421875 0zm13.347656 0l0 2.03125l-11.34375 0q-0.03125 -0.765625 0.234375 -1.46875q0.4375 -1.15625 1.390625 -2.28125q0.953125 -1.125 2.765625 -2.609375q2.796875 -2.296875 3.78125 -3.625q0.984375 -1.34375 0.984375 -2.546875q0 -1.25 -0.90625 -2.109375q-0.890625 -0.859375 -2.328125 -0.859375q-1.515625 0 -2.4375 0.921875q-0.90625 0.90625 -0.921875 2.515625l-2.171875 -0.21875q0.21875 -2.421875 1.671875 -3.6875q1.453125 -1.28125 3.90625 -1.28125q2.46875 0 3.90625 1.375q1.453125 1.359375 1.453125 3.390625q0 1.03125 -0.421875 2.03125q-0.421875 1.0 -1.40625 2.109375q-0.96875 1.09375 -3.25 3.015625q-1.890625 1.59375 -2.4375 2.15625q-0.53125 0.5625 -0.890625 1.140625l8.421875 0zm3.4101562 2.03125l0 -2.40625l2.390625 0l0 2.40625q0 1.328125 -0.46875 2.140625q-0.46875 0.8125 -1.484375 1.265625l-0.578125 -0.90625q0.65625 -0.296875 0.96875 -0.875q0.328125 -0.5625 0.359375 -1.625l-1.1875 0zm13.9921875 0l0 -2.40625l2.40625 0l0 2.40625l-2.40625 0zm8.015625 0l0 -2.40625l2.390625 0l0 2.40625l-2.390625 0zm7.984375 0l0 -2.40625l2.421875 0l0 2.40625l-2.421875 0zm7.34375 0l0 -2.40625l2.390625 0l0 2.40625q0 1.328125 -0.46875 2.140625q-0.46875 0.8125 -1.484375 1.265625l-0.578125 -0.90625q0.65625 -0.296875 0.96875 -0.875q0.328125 -0.5625 0.359375 -1.625l-1.1875 0zm12.7734375 0l0 -17.1875l2.109375 0l0 6.171875q1.484375 -1.71875 3.734375 -1.71875q1.375 0 2.390625 0.546875q1.03125 0.546875 1.46875 1.515625q0.4375 0.953125 0.4375 2.78125l0 7.890625l-2.109375 0l0 -7.890625q0 -1.578125 -0.6875 -2.296875q-0.6875 -0.71875 -1.9375 -0.71875q-0.9375 0 -1.765625 0.484375q-0.828125 0.484375 -1.1875 1.3125q-0.34375 0.828125 -0.34375 2.296875l0 6.8125l-2.109375 0zm23.847656 -2.03125l0 2.03125l-11.34375 0q-0.03125 -0.765625 0.234375 -1.46875q0.4375 -1.15625 1.390625 -2.28125q0.953125 -1.125 2.765625 -2.609375q2.796875 -2.296875 3.78125 -3.625q0.984375 -1.34375 0.984375 -2.546875q0 -1.25 -0.90625 -2.109375q-0.890625 -0.859375 -2.328125 -0.859375q-1.515625 0 -2.4375 0.921875q-0.90625 0.90625 -0.921875 2.515625l-2.171875 -0.21875q0.21875 -2.421875 1.671875 -3.6875q1.453125 -1.28125 3.90625 -1.28125q2.46875 0 3.90625 1.375q1.453125 1.359375 1.453125 3.390625q0 1.03125 -0.421875 2.03125q-0.421875 1.0 -1.40625 2.109375q-0.96875 1.09375 -3.25 3.015625q-1.890625 1.59375 -2.4375 2.15625q-0.53125 0.5625 -0.890625 1.140625l8.421875 0zm2.8476562 2.03125l0 -12.453125l1.90625 0l0 1.78125q1.375 -2.0625 3.953125 -2.0625q1.125 0 2.0625 0.40625q0.953125 0.40625 1.421875 1.0625q0.46875 0.65625 0.65625 1.5625q0.125 0.578125 0.125 2.046875l0 7.65625l-2.109375 0l0 -7.578125q0 -1.28125 -0.25 -1.921875q-0.25 -0.640625 -0.875 -1.015625q-0.625 -0.390625 -1.46875 -0.390625q-1.34375 0 -2.328125 0.859375q-0.984375 0.859375 -0.984375 3.25l0 6.796875l-2.109375 0z" fill-rule="nonzero"/><path fill="#000000" d="m647.46716 364.3491l12.110291 0l0 -24.22049l24.220459 0l0 24.22049l12.1102295 0l-24.220459 24.220459z" fill-rule="evenodd"/><path stroke="#000000" stroke-width="1.0" stroke-linejoin="round" stroke-linecap="butt" d="m647.46716 364.3491l12.110291 0l0 -24.22049l24.220459 0l0 24.22049l12.1102295 0l-24.220459 24.220459z" fill-rule="evenodd"/><path fill="#f4cccc" d="m521.4829 409.2953l300.4095 0l0 83.590546l-300.4095 0z" fill-rule="evenodd"/><path stroke="#ea9999" stroke-width="1.0" stroke-linejoin="round" stroke-linecap="butt" d="m521.4829 409.2953l300.4095 0l0 83.590546l-300.4095 0z" fill-rule="evenodd"/><path fill="#000000" d="m641.4494 459.63055l0 -17.1875l2.265625 0l0 15.15625l8.46875 0l0 2.03125l-10.734375 0zm12.660156 -5.515625l2.140625 -0.1875q0.15625 1.28125 0.703125 2.109375q0.5625 0.828125 1.734375 1.34375q1.171875 0.5 2.640625 0.5q1.296875 0 2.296875 -0.375q1.0 -0.390625 1.484375 -1.0625q0.484375 -0.6875 0.484375 -1.484375q0 -0.796875 -0.46875 -1.40625q-0.46875 -0.609375 -1.546875 -1.015625q-0.6875 -0.265625 -3.0625 -0.828125q-2.359375 -0.578125 -3.3125 -1.078125q-1.234375 -0.640625 -1.84375 -1.59375q-0.59375 -0.96875 -0.59375 -2.140625q0 -1.3125 0.734375 -2.4375q0.75 -1.125 2.15625 -1.703125q1.421875 -0.59375 3.15625 -0.59375q1.90625 0 3.359375 0.609375q1.46875 0.609375 2.25 1.8125q0.796875 1.1875 0.84375 2.703125l-2.171875 0.171875q-0.171875 -1.640625 -1.1875 -2.46875q-1.015625 -0.828125 -3.0 -0.828125q-2.0625 0 -3.015625 0.765625q-0.9375 0.75 -0.9375 1.8125q0 0.921875 0.671875 1.515625q0.65625 0.609375 3.421875 1.234375q2.78125 0.625 3.8125 1.09375q1.5 0.6875 2.203125 1.75q0.71875 1.0625 0.71875 2.4375q0 1.375 -0.78125 2.59375q-0.78125 1.203125 -2.25 1.890625q-1.46875 0.671875 -3.3125 0.671875q-2.328125 0 -3.90625 -0.671875q-1.578125 -0.6875 -2.484375 -2.046875q-0.890625 -1.375 -0.9375 -3.09375zm21.148438 5.515625l0 -15.15625l-5.65625 0l0 -2.03125l13.625 0l0 2.03125l-5.6875 0l0 15.15625l-2.28125 0zm10.222656 0l0 -17.1875l3.421875 0l4.0625 12.171875q0.5625 1.703125 0.828125 2.546875q0.296875 -0.9375 0.90625 -2.765625l4.125 -11.953125l3.046875 0l0 17.1875l-2.1875 0l0 -14.375l-4.984375 14.375l-2.0625 0l-4.96875 -14.625l0 14.625l-2.1875 0z" fill-rule="nonzero"/><path fill="#000000" d="m647.46716 537.8294l12.110291 0l0 -24.220459l24.220459 0l0 24.220459l12.1102295 0l-24.220459 24.220459z" fill-rule="evenodd"/><path stroke="#000000" stroke-width="1.0" stroke-linejoin="round" stroke-linecap="butt" d="m647.46716 537.8294l12.110291 0l0 -24.220459l24.220459 0l0 24.220459l12.1102295 0l-24.220459 24.220459z" fill-rule="evenodd"/><path fill="#cfe2f3" d="m569.93964 582.7756l203.49603 0l0 77.51184l-203.49603 0z" fill-rule="evenodd"/><path stroke="#4a86e8" stroke-width="1.0" stroke-linejoin="round" stroke-linecap="butt" d="m569.93964 582.7756l203.49603 0l0 77.51184l-203.49603 0z" fill-rule="evenodd"/><path fill="#000000" d="m653.2443 630.0715l0 -17.1875l2.109375 0l0 6.171875q1.484375 -1.71875 3.734375 -1.71875q1.375 0 2.390625 0.546875q1.03125 0.546875 1.46875 1.515625q0.4375 0.953125 0.4375 2.78125l0 7.890625l-2.109375 0l0 -7.890625q0 -1.578125 -0.6875 -2.296875q-0.6875 -0.71875 -1.9375 -0.71875q-0.9375 0 -1.765625 0.484375q-0.828125 0.484375 -1.1875 1.3125q-0.34375 0.828125 -0.34375 2.296875l0 6.8125l-2.109375 0zm12.785156 -4.53125l2.109375 -0.28125q0.359375 1.78125 1.234375 2.578125q0.875 0.796875 2.125 0.796875q1.484375 0 2.5 -1.03125q1.03125 -1.03125 1.03125 -2.5625q0 -1.453125 -0.953125 -2.390625q-0.9375 -0.953125 -2.40625 -0.953125q-0.59375 0 -1.484375 0.234375l0.234375 -1.84375q0.203125 0.015625 0.34375 0.015625q1.34375 0 2.421875 -0.703125q1.078125 -0.703125 1.078125 -2.15625q0 -1.171875 -0.796875 -1.921875q-0.78125 -0.765625 -2.015625 -0.765625q-1.234375 0 -2.0625 0.78125q-0.8125 0.765625 -1.046875 2.3125l-2.109375 -0.375q0.390625 -2.125 1.75 -3.28125q1.375 -1.171875 3.421875 -1.171875q1.40625 0 2.578125 0.609375q1.1875 0.59375 1.8125 1.640625q0.640625 1.046875 0.640625 2.21875q0 1.109375 -0.609375 2.03125q-0.59375 0.90625 -1.765625 1.4375q1.53125 0.359375 2.375 1.46875q0.84375 1.109375 0.84375 2.765625q0 2.25 -1.640625 3.828125q-1.640625 1.5625 -4.15625 1.5625q-2.265625 0 -3.765625 -1.34375q-1.484375 -1.359375 -1.6875 -3.5zm13.910156 4.53125l0 -12.453125l1.90625 0l0 1.78125q1.375 -2.0625 3.953125 -2.0625q1.125 0 2.0625 0.40625q0.953125 0.40625 1.421875 1.0625q0.46875 0.65625 0.65625 1.5625q0.125 0.578125 0.125 2.046875l0 7.65625l-2.109375 0l0 -7.578125q0 -1.28125 -0.25 -1.921875q-0.25 -0.640625 -0.875 -1.015625q-0.625 -0.390625 -1.46875 -0.390625q-1.34375 0 -2.328125 0.859375q-0.984375 0.859375 -0.984375 3.25l0 6.796875l-2.109375 0z" fill-rule="nonzero"/><path fill="#000000" d="m1037.4541 191.6063l12.1102295 0l0 -24.220459l24.220459 0l0 24.220459l12.1102295 0l-24.220459 24.220474z" fill-rule="evenodd"/><path stroke="#000000" stroke-width="1.0" stroke-linejoin="round" stroke-linecap="butt" d="m1037.4541 191.6063l12.1102295 0l0 -24.220459l24.220459 0l0 24.220459l12.1102295 0l-24.220459 24.220474z" fill-rule="evenodd"/><path fill="#fce5cd" d="m928.35693 288.53806l0 0c0 -13.376587 10.843872 -24.220459 24.22052 -24.220459l0 0c6.423645 0 12.5842285 2.5517883 17.126465 7.093994c4.5421753 4.5422363 7.093994 10.702789 7.093994 17.126465l0 0c0 13.376587 -10.843872 24.22049 -24.220459 24.22049l0 0c-13.376648 0 -24.22052 -10.843903 -24.22052 -24.22049z" fill-rule="evenodd"/><path stroke="#ff9900" stroke-width="1.0" stroke-linejoin="round" stroke-linecap="butt" d="m928.35693 288.53806l0 0c0 -13.376587 10.843872 -24.220459 24.22052 -24.220459l0 0c6.423645 0 12.5842285 2.5517883 17.126465 7.093994c4.5421753 4.5422363 7.093994 10.702789 7.093994 17.126465l0 0c0 13.376587 -10.843872 24.22049 -24.220459 24.22049l0 0c-13.376648 0 -24.22052 -10.843903 -24.22052 -24.22049z" fill-rule="evenodd"/><path fill="#fce5cd" d="m1045.3701 288.53806l0 0c0 -13.376587 10.843872 -24.220459 24.220459 -24.220459l0 0c6.423584 0 12.5842285 2.5517883 17.126465 7.093994c4.5422363 4.5422363 7.093994 10.702789 7.093994 17.126465l0 0c0 13.376587 -10.843872 24.22049 -24.220459 24.22049l0 0c-13.376587 0 -24.220459 -10.843903 -24.220459 -24.22049z" fill-rule="evenodd"/><path stroke="#ff9900" stroke-width="1.0" stroke-linejoin="round" stroke-linecap="butt" d="m1045.3701 288.53806l0 0c0 -13.376587 10.843872 -24.220459 24.220459 -24.220459l0 0c6.423584 0 12.5842285 2.5517883 17.126465 7.093994c4.5422363 4.5422363 7.093994 10.702789 7.093994 17.126465l0 0c0 13.376587 -10.843872 24.22049 -24.220459 24.22049l0 0c-13.376587 0 -24.220459 -10.843903 -24.220459 -24.22049z" fill-rule="evenodd"/><path fill="#fce5cd" d="m1162.3832 288.53806l0 0c0 -13.376587 10.843872 -24.220459 24.220459 -24.220459l0 0c6.423706 0 12.5842285 2.5517883 17.126465 7.093994c4.5422363 4.5422363 7.093994 10.702789 7.093994 17.126465l0 0c0 13.376587 -10.843872 24.22049 -24.220459 24.22049l0 0c-13.376587 0 -24.220459 -10.843903 -24.220459 -24.22049z" fill-rule="evenodd"/><path stroke="#ff9900" stroke-width="1.0" stroke-linejoin="round" stroke-linecap="butt" d="m1162.3832 288.53806l0 0c0 -13.376587 10.843872 -24.220459 24.220459 -24.220459l0 0c6.423706 0 12.5842285 2.5517883 17.126465 7.093994c4.5422363 4.5422363 7.093994 10.702789 7.093994 17.126465l0 0c0 13.376587 -10.843872 24.22049 -24.220459 24.22049l0 0c-13.376587 0 -24.220459 -10.843903 -24.220459 -24.22049z" fill-rule="evenodd"/><path fill="#d9ead3" d="m888.5748 392.71915l0 0c0 -13.376587 10.843872 -24.220459 24.220459 -24.220459l0 0c6.423645 0 12.5842285 2.5517883 17.126465 7.0940247c4.5421753 4.542206 7.093994 10.702789 7.093994 17.126434l0 0c0 13.376617 -10.843872 24.22049 -24.220459 24.22049l0 0c-13.376587 0 -24.220459 -10.843872 -24.220459 -24.22049z" fill-rule="evenodd"/><path stroke="#b6d7a8" stroke-width="1.0" stroke-linejoin="round" stroke-linecap="butt" d="m888.5748 392.71915l0 0c0 -13.376587 10.843872 -24.220459 24.220459 -24.220459l0 0c6.423645 0 12.5842285 2.5517883 17.126465 7.0940247c4.5421753 4.542206 7.093994 10.702789 7.093994 17.126434l0 0c0 13.376617 -10.843872 24.22049 -24.220459 24.22049l0 0c-13.376587 0 -24.220459 -10.843872 -24.220459 -24.22049z" fill-rule="evenodd"/><path fill="#d9ead3" d="m996.8753 392.71915l0 0c0 -13.376587 10.843872 -24.220459 24.22052 -24.220459l0 0c6.423584 0 12.5842285 2.5517883 17.126465 7.0940247c4.5422363 4.542206 7.093994 10.702789 7.093994 17.126434l0 0c0 13.376617 -10.843872 24.22049 -24.220459 24.22049l0 0c-13.376648 0 -24.22052 -10.843872 -24.22052 -24.22049z" fill-rule="evenodd"/><path stroke="#b6d7a8" stroke-width="1.0" stroke-linejoin="round" stroke-linecap="butt" d="m996.8753 392.71915l0 0c0 -13.376587 10.843872 -24.220459 24.22052 -24.220459l0 0c6.423584 0 12.5842285 2.5517883 17.126465 7.0940247c4.5422363 4.542206 7.093994 10.702789 7.093994 17.126434l0 0c0 13.376617 -10.843872 24.22049 -24.220459 24.22049l0 0c-13.376648 0 -24.22052 -10.843872 -24.22052 -24.22049z" fill-rule="evenodd"/><path fill="#d9ead3" d="m1109.105 392.71915l0 0c0 -13.376587 10.843872 -24.220459 24.220459 -24.220459l0 0c6.423706 0 12.5842285 2.5517883 17.126465 7.0940247c4.5422363 4.542206 7.093994 10.702789 7.093994 17.126434l0 0c0 13.376617 -10.843872 24.22049 -24.220459 24.22049l0 0c-13.376587 0 -24.220459 -10.843872 -24.220459 -24.22049z" fill-rule="evenodd"/><path stroke="#b6d7a8" stroke-width="1.0" stroke-linejoin="round" stroke-linecap="butt" d="m1109.105 392.71915l0 0c0 -13.376587 10.843872 -24.220459 24.220459 -24.220459l0 0c6.423706 0 12.5842285 2.5517883 17.126465 7.0940247c4.5422363 4.542206 7.093994 10.702789 7.093994 17.126434l0 0c0 13.376617 -10.843872 24.22049 -24.220459 24.22049l0 0c-13.376587 0 -24.220459 -10.843872 -24.220459 -24.22049z" fill-rule="evenodd"/><path fill="#d9ead3" d="m1221.3359 392.71915l0 0c0 -13.376587 10.843872 -24.220459 24.220459 -24.220459l0 0c6.423706 0 12.5842285 2.5517883 17.126465 7.0940247c4.5422363 4.542206 7.093994 10.702789 7.093994 17.126434l0 0c0 13.376617 -10.843872 24.22049 -24.220459 24.22049l0 0c-13.376587 0 -24.220459 -10.843872 -24.220459 -24.22049z" fill-rule="evenodd"/><path stroke="#b6d7a8" stroke-width="1.0" stroke-linejoin="round" stroke-linecap="butt" d="m1221.3359 392.71915l0 0c0 -13.376587 10.843872 -24.220459 24.220459 -24.220459l0 0c6.423706 0 12.5842285 2.5517883 17.126465 7.0940247c4.5422363 4.542206 7.093994 10.702789 7.093994 17.126434l0 0c0 13.376617 -10.843872 24.22049 -24.220459 24.22049l0 0c-13.376587 0 -24.220459 -10.843872 -24.220459 -24.22049z" fill-rule="evenodd"/><path fill="#d9d2e9" d="m996.87665 489.38846l0 0c0 -13.376617 10.843872 -24.22049 24.220459 -24.22049l0 0c6.423645 0 12.58429 2.5517883 17.126526 7.0940247c4.5421143 4.542206 7.093994 10.702789 7.093994 17.126465l0 0c0 13.376587 -10.843872 24.22049 -24.22052 24.22049l0 0c-13.376587 0 -24.220459 -10.843903 -24.220459 -24.22049z" fill-rule="evenodd"/><path stroke="#b4a7d6" stroke-width="1.0" stroke-linejoin="round" stroke-linecap="butt" d="m996.87665 489.38846l0 0c0 -13.376617 10.843872 -24.22049 24.220459 -24.22049l0 0c6.423645 0 12.58429 2.5517883 17.126526 7.0940247c4.5421143 4.542206 7.093994 10.702789 7.093994 17.126465l0 0c0 13.376587 -10.843872 24.22049 -24.22052 24.22049l0 0c-13.376587 0 -24.220459 -10.843903 -24.220459 -24.22049z" fill-rule="evenodd"/><path fill="#d9d2e9" d="m1109.105 489.38846l0 0c0 -13.376617 10.843872 -24.22049 24.220459 -24.22049l0 0c6.423706 0 12.5842285 2.5517883 17.126465 7.0940247c4.5422363 4.542206 7.093994 10.702789 7.093994 17.126465l0 0c0 13.376587 -10.843872 24.22049 -24.220459 24.22049l0 0c-13.376587 0 -24.220459 -10.843903 -24.220459 -24.22049z" fill-rule="evenodd"/><path stroke="#b4a7d6" stroke-width="1.0" stroke-linejoin="round" stroke-linecap="butt" d="m1109.105 489.38846l0 0c0 -13.376617 10.843872 -24.22049 24.220459 -24.22049l0 0c6.423706 0 12.5842285 2.5517883 17.126465 7.0940247c4.5422363 4.542206 7.093994 10.702789 7.093994 17.126465l0 0c0 13.376587 -10.843872 24.22049 -24.220459 24.22049l0 0c-13.376587 0 -24.220459 -10.843903 -24.220459 -24.22049z" fill-rule="evenodd"/><path fill="#000000" fill-opacity="0.0" d="m952.57745 312.75854l-39.77954 55.748016" fill-rule="evenodd"/><path stroke="#000000" stroke-width="1.0" stroke-linejoin="round" stroke-linecap="butt" d="m952.57745 312.75854l-36.294495 50.863953" fill-rule="evenodd"/><path fill="#000000" stroke="#000000" stroke-width="1.0" stroke-linecap="butt" d="m914.9385 362.6631l-1.2914429 4.653473l3.9804688 -2.7346802z" fill-rule="evenodd"/><path fill="#000000" fill-opacity="0.0" d="m1069.5906 312.75854l-156.78741 55.748016" fill-rule="evenodd"/><path stroke="#000000" stroke-width="1.0" stroke-linejoin="round" stroke-linecap="butt" d="m1069.5906 312.75854l-151.13416 53.737915" fill-rule="evenodd"/><path fill="#000000" stroke="#000000" stroke-width="1.0" stroke-linecap="butt" d="m917.9031 364.9402l-3.7225342 3.0765991l4.8292236 0.035949707z" fill-rule="evenodd"/><path fill="#000000" fill-opacity="0.0" d="m1186.6036 312.75854l-273.79523 55.748016" fill-rule="evenodd"/><path stroke="#000000" stroke-width="1.0" stroke-linejoin="round" stroke-linecap="butt" d="m1186.6036 312.75854l-267.9159 54.550934" fill-rule="evenodd"/><path fill="#000000" stroke="#000000" stroke-width="1.0" stroke-linecap="butt" d="m918.3582 365.69092l-4.1173096 2.5239563l4.776428 0.71310425z" fill-rule="evenodd"/><path fill="#000000" fill-opacity="0.0" d="m952.57745 312.75854l68.50391 55.748016" fill-rule="evenodd"/><path stroke="#000000" stroke-width="1.0" stroke-linejoin="round" stroke-linecap="butt" d="m952.57745 312.75854l63.85022 51.960815" fill-rule="evenodd"/><path fill="#000000" stroke="#000000" stroke-width="1.0" stroke-linecap="butt" d="m1015.3851 366.00052l4.562439 1.5832825l-2.477295 -4.1455383z" fill-rule="evenodd"/><path fill="#000000" fill-opacity="0.0" d="m1069.5906 312.75854l-48.503967 55.748016" fill-rule="evenodd"/><path stroke="#000000" stroke-width="1.0" stroke-linejoin="round" stroke-linecap="butt" d="m1069.5906 312.75854l-44.565674 51.221497" fill-rule="evenodd"/><path fill="#000000" stroke="#000000" stroke-width="1.0" stroke-linecap="butt" d="m1023.7789 362.89584l-1.732666 4.5078125l4.2247925 -2.339447z" fill-rule="evenodd"/><path fill="#000000" fill-opacity="0.0" d="m1186.6036 312.75854l-165.51178 55.748016" fill-rule="evenodd"/><path stroke="#000000" stroke-width="1.0" stroke-linejoin="round" stroke-linecap="butt" d="m1186.6036 312.75854l-159.82568 53.832794" fill-rule="evenodd"/><path fill="#000000" stroke="#000000" stroke-width="1.0" stroke-linecap="butt" d="m1026.2507 365.02603l-3.7734375 3.0138855l4.827881 0.116760254z" fill-rule="evenodd"/><path fill="#000000" fill-opacity="0.0" d="m952.57745 312.75854l180.75592 55.748016" fill-rule="evenodd"/><path stroke="#000000" stroke-width="1.0" stroke-linejoin="round" stroke-linecap="butt" d="m952.57745 312.75854l175.0224 53.979736" fill-rule="evenodd"/><path fill="#000000" stroke="#000000" stroke-width="1.0" stroke-linecap="butt" d="m1127.113 368.31662l4.8233643 -0.24090576l-3.8497314 -2.9158325z" fill-rule="evenodd"/><path fill="#000000" fill-opacity="0.0" d="m1069.5906 312.75854l63.748047 55.748016" fill-rule="evenodd"/><path stroke="#000000" stroke-width="1.0" stroke-linejoin="round" stroke-linecap="butt" d="m1069.5906 312.75854l59.231445 51.79825" fill-rule="evenodd"/><path fill="#000000" stroke="#000000" stroke-width="1.0" stroke-linecap="butt" d="m1127.7347 365.80017l4.503418 1.7440186l-2.3288574 -4.2307434z" fill-rule="evenodd"/><path fill="#000000" fill-opacity="0.0" d="m1186.6036 312.75854l-53.29126 55.748016" fill-rule="evenodd"/><path stroke="#000000" stroke-width="1.0" stroke-linejoin="round" stroke-linecap="butt" d="m1186.6036 312.75854l-49.145264 51.41086" fill-rule="evenodd"/><path fill="#000000" stroke="#000000" stroke-width="1.0" stroke-linecap="butt" d="m1136.2644 363.02808l-1.9418945 4.421753l4.329834 -2.139038z" fill-rule="evenodd"/><path fill="#000000" fill-opacity="0.0" d="m952.57745 312.75854l292.97638 55.748016" fill-rule="evenodd"/><path stroke="#000000" stroke-width="1.0" stroke-linejoin="round" stroke-linecap="butt" d="m952.57745 312.75854l287.0821 54.626465" fill-rule="evenodd"/><path fill="#000000" stroke="#000000" stroke-width="1.0" stroke-linecap="butt" d="m1239.3508 369.0076l4.7668457 -0.774292l-4.149414 -2.4709167z" fill-rule="evenodd"/><path fill="#000000" fill-opacity="0.0" d="m1069.5906 312.75854l175.9685 55.748016" fill-rule="evenodd"/><path stroke="#000000" stroke-width="1.0" stroke-linejoin="round" stroke-linecap="butt" d="m1069.5906 312.75854l170.24866 53.935913" fill-rule="evenodd"/><path fill="#000000" stroke="#000000" stroke-width="1.0" stroke-linecap="butt" d="m1239.3403 368.26907l4.8250732 -0.20404053l-3.8272705 -2.94516z" fill-rule="evenodd"/><path fill="#000000" fill-opacity="0.0" d="m1186.6036 312.75854l58.960693 55.748016" fill-rule="evenodd"/><path stroke="#000000" stroke-width="1.0" stroke-linejoin="round" stroke-linecap="butt" d="m1186.6036 312.75854l54.600952 51.625793" fill-rule="evenodd"/><path fill="#000000" stroke="#000000" stroke-width="1.0" stroke-linecap="butt" d="m1240.0697 365.58456l4.432373 1.917633l-2.1627197 -4.3180237z" fill-rule="evenodd"/><path fill="#000000" fill-opacity="0.0" d="m912.7953 416.93964l108.31494 48.22046" fill-rule="evenodd"/><path stroke="#000000" stroke-width="1.0" stroke-linejoin="round" stroke-linecap="butt" d="m912.7953 416.93964l102.83356 45.780212" fill-rule="evenodd"/><path fill="#000000" stroke="#000000" stroke-width="1.0" stroke-linecap="butt" d="m1014.9571 464.22882l4.817627 0.33673096l-3.47406 -3.3546448z" fill-rule="evenodd"/><path fill="#000000" fill-opacity="0.0" d="m1021.0958 416.93964l0 48.22046" fill-rule="evenodd"/><path stroke="#000000" stroke-width="1.0" stroke-linejoin="round" stroke-linecap="butt" d="m1021.0958 416.93964l0 42.22046" fill-rule="evenodd"/><path fill="#000000" stroke="#000000" stroke-width="1.0" stroke-linecap="butt" d="m1019.4441 459.1601l1.6517334 4.5381165l1.6517334 -4.5381165z" fill-rule="evenodd"/><path fill="#000000" fill-opacity="0.0" d="m1133.3254 416.93964l-112.22046 48.22046" fill-rule="evenodd"/><path stroke="#000000" stroke-width="1.0" stroke-linejoin="round" stroke-linecap="butt" d="m1133.3254 416.93964l-106.70776 45.851746" fill-rule="evenodd"/><path fill="#000000" stroke="#000000" stroke-width="1.0" stroke-linecap="butt" d="m1025.9656 461.2738l-3.517456 3.309143l4.821533 -0.27401733z" fill-rule="evenodd"/><path fill="#000000" fill-opacity="0.0" d="m1245.5564 416.93964l-224.47241 48.22046" fill-rule="evenodd"/><path stroke="#000000" stroke-width="1.0" stroke-linejoin="round" stroke-linecap="butt" d="m1245.5564 416.93964l-218.60632 46.960297" fill-rule="evenodd"/><path fill="#000000" stroke="#000000" stroke-width="1.0" stroke-linecap="butt" d="m1026.6033 462.28506l-4.089966 2.5679932l4.7838135 0.6617737z" fill-rule="evenodd"/><path fill="#000000" fill-opacity="0.0" d="m912.7953 416.93964l220.5354 48.22046" fill-rule="evenodd"/><path stroke="#000000" stroke-width="1.0" stroke-linejoin="round" stroke-linecap="butt" d="m912.7953 416.93964l214.67383 46.938843" fill-rule="evenodd"/><path fill="#000000" stroke="#000000" stroke-width="1.0" stroke-linecap="butt" d="m1127.1163 465.4921l4.786255 -0.6442566l-4.0805664 -2.5829773z" fill-rule="evenodd"/><path fill="#000000" fill-opacity="0.0" d="m1021.0958 416.93964l112.22046 48.22046" fill-rule="evenodd"/><path stroke="#000000" stroke-width="1.0" stroke-linejoin="round" stroke-linecap="butt" d="m1021.0958 416.93964l106.70776 45.851746" fill-rule="evenodd"/><path fill="#000000" stroke="#000000" stroke-width="1.0" stroke-linecap="butt" d="m1127.1516 464.30893l4.821533 0.27401733l-3.517456 -3.309143z" fill-rule="evenodd"/><path fill="#000000" fill-opacity="0.0" d="m1133.3254 416.93964l0 48.22046" fill-rule="evenodd"/><path stroke="#000000" stroke-width="1.0" stroke-linejoin="round" stroke-linecap="butt" d="m1133.3254 416.93964l0 42.22046" fill-rule="evenodd"/><path fill="#000000" stroke="#000000" stroke-width="1.0" stroke-linecap="butt" d="m1131.6737 459.1601l1.6517334 4.5381165l1.6517334 -4.5381165z" fill-rule="evenodd"/><path fill="#000000" fill-opacity="0.0" d="m1245.5564 416.93964l-112.22046 48.22046" fill-rule="evenodd"/><path stroke="#000000" stroke-width="1.0" stroke-linejoin="round" stroke-linecap="butt" d="m1245.5564 416.93964l-106.70776 45.851746" fill-rule="evenodd"/><path fill="#000000" stroke="#000000" stroke-width="1.0" stroke-linecap="butt" d="m1138.1965 461.2738l-3.517456 3.309143l4.8216553 -0.27401733z" fill-rule="evenodd"/></g></svg>