<svg version="1.1" viewBox="0.0 0.0 1282.1942257217847 719.7611548556431" fill="none" stroke="none" stroke-linecap="square" stroke-miterlimit="10" xmlns:xlink="http://www.w3.org/1999/xlink" xmlns="http://www.w3.org/2000/svg"><clipPath id="p.0"><path d="m0 0l1282.1942 0l0 719.76117l-1282.1942 0l0 -719.76117z" clip-rule="nonzero"/></clipPath><g clip-path="url(#p.0)"><path fill="#000000" fill-opacity="0.0" d="m0 0l1282.1942 0l0 719.76117l-1282.1942 0z" fill-rule="evenodd"/><path fill="#cfe2f3" d="m79.86089 290.85434l181.73227 0l0 112.37793l-181.73227 0z" fill-rule="evenodd"/><path stroke="#4a86e8" stroke-width="1.0" stroke-linejoin="round" stroke-linecap="butt" d="m79.86089 290.85434l181.73227 0l0 112.37793l-181.73227 0z" fill-rule="evenodd"/><path fill="#f4cccc" d="m123.49869 149.77296l94.456696 0l0 59.779526l-94.456696 0z" fill-rule="evenodd"/><path stroke="#ea9999" stroke-width="1.0" stroke-linejoin="round" stroke-linecap="butt" d="m123.49869 149.77296l94.456696 0l0 59.779526l-94.456696 0z" fill-rule="evenodd"/><path fill="#000000" d="m148.64305 188.20273l0 -17.1875l2.28125 0l0 7.0625l8.921875 0l0 -7.0625l2.28125 0l0 17.1875l-2.28125 0l0 -8.09375l-8.921875 0l0 8.09375l-2.28125 0zm16.207031 -6.21875q0 -3.46875 1.921875 -5.125q1.609375 -1.390625 3.921875 -1.390625q2.5625 0 4.1875 1.6875q1.625 1.6875 1.625 4.640625q0 2.40625 -0.71875 3.78125q-0.71875 1.375 -2.09375 2.140625q-1.375 0.765625 -3.0 0.765625q-2.625 0 -4.234375 -1.671875q-1.609375 -1.6875 -1.609375 -4.828125zm2.171875 0q0 2.390625 1.03125 3.578125q1.046875 1.1875 2.640625 1.1875q1.5625 0 2.609375 -1.1875q1.046875 -1.203125 1.046875 -3.65625q0 -2.3125 -1.0625 -3.5q-1.046875 -1.1875 -2.59375 -1.1875q-1.59375 0 -2.640625 1.1875q-1.03125 1.1875 -1.03125 3.578125zm14.253906 6.21875l-3.796875 -12.453125l2.171875 0l1.984375 7.1875l0.734375 2.671875q0.046875 -0.203125 0.640625 -2.5625l1.984375 -7.296875l2.171875 0l1.859375 7.21875l0.625 2.390625l0.71875 -2.40625l2.125 -7.203125l2.046875 0l-3.890625 12.453125l-2.1875 0l-1.984375 -7.453125l-0.46875 -2.125l-2.53125 9.578125l-2.203125 0z" fill-rule="nonzero"/><path fill="#fce5cd" d="m101.67191 475.43176l138.11023 0l0 59.77954l-138.11023 0z" fill-rule="evenodd"/><path stroke="#f9cb9c" stroke-width="1.0" stroke-linejoin="round" stroke-linecap="butt" d="m101.67191 475.43176l138.11023 0l0 59.77954l-138.11023 0z" fill-rule="evenodd"/><path fill="#000000" d="m169.62743 513.8615l0 -17.1875l2.28125 0l0 17.1875l-2.28125 0z" fill-rule="nonzero"/><path fill="#000000" fill-opacity="0.0" d="m170.72704 209.55249l0 81.29135" fill-rule="evenodd"/><path stroke="#000000" stroke-width="2.0" stroke-linejoin="round" stroke-linecap="butt" d="m170.72704 209.55249l0 69.29135" fill-rule="evenodd"/><path fill="#000000" stroke="#000000" stroke-width="2.0" stroke-linecap="butt" d="m167.42357 278.84384l3.3034668 9.076172l3.3034668 -9.076172z" fill-rule="evenodd"/><path fill="#000000" fill-opacity="0.0" d="m170.72704 403.23227l0 72.188995" fill-rule="evenodd"/><path stroke="#000000" stroke-width="2.0" stroke-linejoin="round" stroke-linecap="butt" d="m170.72704 403.23227l0 60.188995" fill-rule="evenodd"/><path fill="#000000" stroke="#000000" stroke-width="2.0" stroke-linecap="butt" d="m167.42357 463.42126l3.3034668 9.076202l3.3034668 -9.076202z" fill-rule="evenodd"/><path fill="#cfe2f3" d="m346.50394 290.85434l181.73227 0l0 112.37793l-181.73227 0z" fill-rule="evenodd"/><path stroke="#4a86e8" stroke-width="1.0" stroke-linejoin="round" stroke-linecap="butt" d="m346.50394 290.85434l181.73227 0l0 112.37793l-181.73227 0z" fill-rule="evenodd"/><path fill="#f4cccc" d="m390.14172 149.77296l94.456696 0l0 59.779526l-94.456696 0z" fill-rule="evenodd"/><path stroke="#ea9999" stroke-width="1.0" stroke-linejoin="round" stroke-linecap="butt" d="m390.14172 149.77296l94.456696 0l0 59.779526l-94.456696 0z" fill-rule="evenodd"/><path fill="#000000" d="m429.72946 186.67148q-1.171875 0.984375 -2.265625 1.40625q-1.078125 0.40625 -2.3125 0.40625q-2.046875 0 -3.15625 -1.0q-1.09375 -1.0 -1.09375 -2.5625q0 -0.921875 0.40625 -1.671875q0.421875 -0.75 1.09375 -1.203125q0.671875 -0.46875 1.515625 -0.703125q0.625 -0.15625 1.875 -0.3125q2.5625 -0.3125 3.765625 -0.734375q0.015625 -0.421875 0.015625 -0.546875q0 -1.28125 -0.609375 -1.8125q-0.796875 -0.71875 -2.390625 -0.71875q-1.5 0 -2.203125 0.53125q-0.703125 0.515625 -1.046875 1.84375l-2.0625 -0.28125q0.28125 -1.328125 0.921875 -2.140625q0.640625 -0.8125 1.859375 -1.25q1.21875 -0.453125 2.828125 -0.453125q1.59375 0 2.59375 0.375q1.0 0.375 1.46875 0.953125q0.46875 0.5625 0.65625 1.4375q0.09375 0.53125 0.09375 1.9375l0 2.8125q0 2.9375 0.140625 3.71875q0.140625 0.78125 0.53125 1.5l-2.203125 0q-0.328125 -0.65625 -0.421875 -1.53125zm-0.171875 -4.71875q-1.15625 0.46875 -3.453125 0.796875q-1.296875 0.1875 -1.84375 0.421875q-0.53125 0.234375 -0.828125 0.6875q-0.28125 0.453125 -0.28125 1.0q0 0.84375 0.625 1.40625q0.640625 0.5625 1.875 0.5625q1.21875 0 2.171875 -0.53125q0.953125 -0.53125 1.390625 -1.453125q0.34375 -0.71875 0.34375 -2.109375l0 -0.78125zm5.3789062 6.25l0 -12.453125l1.890625 0l0 1.890625q0.734375 -1.328125 1.34375 -1.75q0.625 -0.421875 1.359375 -0.421875q1.0625 0 2.171875 0.6875l-0.734375 1.953125q-0.765625 -0.453125 -1.546875 -0.453125q-0.6875 0 -1.25 0.421875q-0.546875 0.40625 -0.78125 1.140625q-0.34375 1.125 -0.34375 2.46875l0 6.515625l-2.109375 0zm16.539062 -4.015625l2.171875 0.28125q-0.515625 1.90625 -1.90625 2.96875q-1.390625 1.046875 -3.5625 1.046875q-2.734375 0 -4.34375 -1.671875q-1.59375 -1.6875 -1.59375 -4.734375q0 -3.140625 1.609375 -4.875q1.625 -1.734375 4.203125 -1.734375q2.5 0 4.078125 1.703125q1.59375 1.703125 1.59375 4.78125q0 0.1875 -0.015625 0.5625l-9.28125 0q0.109375 2.046875 1.15625 3.140625q1.046875 1.09375 2.609375 1.09375q1.15625 0 1.96875 -0.609375q0.828125 -0.609375 1.3125 -1.953125zm-6.9375 -3.40625l6.953125 0q-0.140625 -1.5625 -0.796875 -2.359375q-1.0 -1.21875 -2.609375 -1.21875q-1.453125 0 -2.453125 0.984375q-0.984375 0.96875 -1.09375 2.59375z" fill-rule="nonzero"/><path fill="#fce5cd" d="m368.31497 475.43176l138.11023 0l0 59.77954l-138.11023 0z" fill-rule="evenodd"/><path stroke="#f9cb9c" stroke-width="1.0" stroke-linejoin="round" stroke-linecap="butt" d="m368.31497 475.43176l138.11023 0l0 59.77954l-138.11023 0z" fill-rule="evenodd"/><path fill="#000000" d="m430.4033 512.33026q-1.171875 0.984375 -2.265625 1.40625q-1.078125 0.40625 -2.3125 0.40625q-2.046875 0 -3.15625 -1.0q-1.09375 -1.0 -1.09375 -2.5625q0 -0.921875 0.40625 -1.671875q0.421875 -0.75 1.09375 -1.203125q0.671875 -0.46875 1.515625 -0.703125q0.625 -0.15625 1.875 -0.3125q2.5625 -0.3125 3.765625 -0.734375q0.015625 -0.421875 0.015625 -0.546875q0 -1.28125 -0.609375 -1.8125q-0.796875 -0.71875 -2.390625 -0.71875q-1.5 0 -2.203125 0.53125q-0.703125 0.515625 -1.046875 1.84375l-2.0625 -0.28125q0.28125 -1.328125 0.921875 -2.140625q0.640625 -0.8125 1.859375 -1.25q1.21875 -0.453125 2.828125 -0.453125q1.59375 0 2.59375 0.375q1.0 0.375 1.46875 0.953125q0.46875 0.5625 0.65625 1.4375q0.09375 0.53125 0.09375 1.9375l0 2.8125q0 2.9375 0.140625 3.71875q0.140625 0.78125 0.53125 1.5l-2.203125 0q-0.328125 -0.65625 -0.421875 -1.53125zm-0.171875 -4.71875q-1.15625 0.46875 -3.453125 0.796875q-1.296875 0.1875 -1.84375 0.421875q-0.53125 0.234375 -0.828125 0.6875q-0.28125 0.453125 -0.28125 1.0q0 0.84375 0.625 1.40625q0.640625 0.5625 1.875 0.5625q1.21875 0 2.171875 -0.53125q0.953125 -0.53125 1.390625 -1.453125q0.34375 -0.71875 0.34375 -2.109375l0 -0.78125zm5.3945312 6.25l0 -12.453125l1.890625 0l0 1.75q0.59375 -0.90625 1.5625 -1.46875q0.96875 -0.5625 2.21875 -0.5625q1.375 0 2.25 0.578125q0.890625 0.578125 1.265625 1.609375q1.46875 -2.1875 3.84375 -2.1875q1.84375 0 2.84375 1.03125q1.0 1.03125 1.0 3.15625l0 8.546875l-2.109375 0l0 -7.84375q0 -1.265625 -0.203125 -1.8125q-0.203125 -0.5625 -0.75 -0.90625q-0.53125 -0.34375 -1.25 -0.34375q-1.3125 0 -2.1875 0.875q-0.859375 0.875 -0.859375 2.796875l0 7.234375l-2.109375 0l0 -8.09375q0 -1.40625 -0.515625 -2.109375q-0.515625 -0.703125 -1.6875 -0.703125q-0.890625 0 -1.65625 0.46875q-0.75 0.46875 -1.09375 1.375q-0.34375 0.90625 -0.34375 2.609375l0 6.453125l-2.109375 0z" fill-rule="nonzero"/><path fill="#000000" fill-opacity="0.0" d="m437.3701 209.55249l0 81.29135" fill-rule="evenodd"/><path stroke="#000000" stroke-width="2.0" stroke-linejoin="round" stroke-linecap="butt" d="m437.3701 209.55249l0 69.29135" fill-rule="evenodd"/><path fill="#000000" stroke="#000000" stroke-width="2.0" stroke-linecap="butt" d="m434.06662 278.84384l3.3034668 9.076172l3.3034668 -9.076172z" fill-rule="evenodd"/><path fill="#000000" fill-opacity="0.0" d="m437.3701 403.23227l0 72.188995" fill-rule="evenodd"/><path stroke="#000000" stroke-width="2.0" stroke-linejoin="round" stroke-linecap="butt" d="m437.3701 403.23227l0 60.188995" fill-rule="evenodd"/><path fill="#000000" stroke="#000000" stroke-width="2.0" stroke-linecap="butt" d="m434.06662 463.42126l3.3034668 9.076202l3.3034668 -9.076202z" fill-rule="evenodd"/><path fill="#000000" fill-opacity="0.0" d="m261.59317 347.0433l84.91339 0" fill-rule="evenodd"/><path stroke="#ff0000" stroke-width="2.0" stroke-linejoin="round" stroke-linecap="butt" d="m261.59317 347.0433l72.91339 0" fill-rule="evenodd"/><path fill="#ff0000" stroke="#ff0000" stroke-width="2.0" stroke-linecap="butt" d="m334.50656 350.34677l9.076202 -3.3034668l-9.076202 -3.3034668z" fill-rule="evenodd"/><path fill="#000000" fill-opacity="0.0" d="m827.35565 313.67322l138.11023 0l0 59.77954l-138.11023 0z" fill-rule="evenodd"/><path fill="#000000" d="m849.8092 355.283l0 -4.390625l4.390625 0l0 4.390625l-4.390625 0zm17.78125 0l0 -4.390625l4.390625 0l0 4.390625l-4.390625 0zm17.78125 0l0 -4.390625l4.390625 0l0 4.390625l-4.390625 0zm17.78125 0l0 -4.390625l4.390625 0l0 4.390625l-4.390625 0zm17.78125 0l0 -4.390625l4.390625 0l0 4.390625l-4.390625 0zm17.78125 0l0 -4.390625l4.390625 0l0 4.390625l-4.390625 0z" fill-rule="nonzero"/><path fill="#cfe2f3" d="m613.147 290.85434l181.7323 0l0 112.37793l-181.7323 0z" fill-rule="evenodd"/><path stroke="#4a86e8" stroke-width="1.0" stroke-linejoin="round" stroke-linecap="butt" d="m613.147 290.85434l181.7323 0l0 112.37793l-181.7323 0z" fill-rule="evenodd"/><path fill="#f4cccc" d="m656.7848 149.77296l94.456665 0l0 59.779526l-94.456665 0z" fill-rule="evenodd"/><path stroke="#ea9999" stroke-width="1.0" stroke-linejoin="round" stroke-linecap="butt" d="m656.7848 149.77296l94.456665 0l0 59.779526l-94.456665 0z" fill-rule="evenodd"/><path fill="#000000" d="m686.14984 192.9996l-0.234375 -1.984375q0.703125 0.1875 1.21875 0.1875q0.703125 0 1.125 -0.234375q0.421875 -0.234375 0.6875 -0.65625q0.203125 -0.3125 0.640625 -1.5625q0.0625 -0.1875 0.1875 -0.515625l-4.71875 -12.484375l2.265625 0l2.59375 7.21875q0.5 1.359375 0.90625 2.875q0.359375 -1.453125 0.859375 -2.828125l2.671875 -7.265625l2.109375 0l-4.734375 12.671875q-0.765625 2.046875 -1.1875 2.8125q-0.5625 1.046875 -1.296875 1.53125q-0.71875 0.484375 -1.734375 0.484375q-0.609375 0 -1.359375 -0.25zm11.3125 -11.015625q0 -3.46875 1.921875 -5.125q1.609375 -1.390625 3.921875 -1.390625q2.5625 0 4.1875 1.6875q1.625 1.6875 1.625 4.640625q0 2.40625 -0.71875 3.78125q-0.71875 1.375 -2.09375 2.140625q-1.375 0.765625 -3.0 0.765625q-2.625 0 -4.234375 -1.671875q-1.609375 -1.6875 -1.609375 -4.828125zm2.171875 0q0 2.390625 1.03125 3.578125q1.046875 1.1875 2.640625 1.1875q1.5625 0 2.609375 -1.1875q1.046875 -1.203125 1.046875 -3.65625q0 -2.3125 -1.0625 -3.5q-1.046875 -1.1875 -2.59375 -1.1875q-1.59375 0 -2.640625 1.1875q-1.03125 1.1875 -1.03125 3.578125zm20.113281 6.21875l0 -1.828125q-1.453125 2.109375 -3.9375 2.109375q-1.109375 0 -2.0625 -0.421875q-0.953125 -0.421875 -1.421875 -1.0625q-0.453125 -0.640625 -0.640625 -1.5625q-0.140625 -0.625 -0.140625 -1.96875l0 -7.71875l2.109375 0l0 6.90625q0 1.65625 0.140625 2.234375q0.1875 0.828125 0.828125 1.3125q0.65625 0.46875 1.609375 0.46875q0.9375 0 1.765625 -0.484375q0.84375 -0.5 1.1875 -1.328125q0.34375 -0.84375 0.34375 -2.4375l0 -6.671875l2.109375 0l0 12.453125l-1.890625 0z" fill-rule="nonzero"/><path fill="#fce5cd" d="m634.958 475.43176l138.11023 0l0 59.77954l-138.11023 0z" fill-rule="evenodd"/><path stroke="#f9cb9c" stroke-width="1.0" stroke-linejoin="round" stroke-linecap="butt" d="m634.958 475.43176l138.11023 0l0 59.77954l-138.11023 0z" fill-rule="evenodd"/><path fill="#000000" d="m686.7592 513.8615l0 -10.8125l-1.875 0l0 -1.640625l1.875 0l0 -1.3125q0 -1.265625 0.21875 -1.875q0.296875 -0.8125 1.0625 -1.3125q0.78125 -0.515625 2.15625 -0.515625q0.890625 0 1.96875 0.203125l-0.3125 1.84375q-0.65625 -0.125 -1.25 -0.125q-0.953125 0 -1.359375 0.421875q-0.390625 0.40625 -0.390625 1.53125l0 1.140625l2.421875 0l0 1.640625l-2.421875 0l0 10.8125l-2.09375 0zm6.1679688 -14.75l0 -2.4375l2.109375 0l0 2.4375l-2.109375 0zm0 14.75l0 -12.453125l2.109375 0l0 12.453125l-2.109375 0zm5.3164062 0l0 -12.453125l1.90625 0l0 1.78125q1.375 -2.0625 3.953125 -2.0625q1.125 0 2.0625 0.40625q0.953125 0.40625 1.421875 1.0625q0.46875 0.65625 0.65625 1.5625q0.125 0.578125 0.125 2.046875l0 7.65625l-2.109375 0l0 -7.578125q0 -1.28125 -0.25 -1.921875q-0.25 -0.640625 -0.875 -1.015625q-0.625 -0.390625 -1.46875 -0.390625q-1.34375 0 -2.328125 0.859375q-0.984375 0.859375 -0.984375 3.25l0 6.796875l-2.109375 0zm21.878906 -4.015625l2.171875 0.28125q-0.515625 1.90625 -1.90625 2.96875q-1.390625 1.046875 -3.5625 1.046875q-2.734375 0 -4.34375 -1.671875q-1.59375 -1.6875 -1.59375 -4.734375q0 -3.140625 1.609375 -4.875q1.625 -1.734375 4.203125 -1.734375q2.5 0 4.078125 1.703125q1.59375 1.703125 1.59375 4.78125q0 0.1875 -0.015625 0.5625l-9.28125 0q0.109375 2.046875 1.15625 3.140625q1.046875 1.09375 2.609375 1.09375q1.15625 0 1.96875 -0.609375q0.828125 -0.609375 1.3125 -1.953125zm-6.9375 -3.40625l6.953125 0q-0.140625 -1.5625 -0.796875 -2.359375q-1.0 -1.21875 -2.609375 -1.21875q-1.453125 0 -2.453125 0.984375q-0.984375 0.96875 -1.09375 2.59375z" fill-rule="nonzero"/><path fill="#000000" fill-opacity="0.0" d="m704.0131 209.55249l0 81.29135" fill-rule="evenodd"/><path stroke="#000000" stroke-width="2.0" stroke-linejoin="round" stroke-linecap="butt" d="m704.0131 209.55249l0 69.29135" fill-rule="evenodd"/><path fill="#000000" stroke="#000000" stroke-width="2.0" stroke-linecap="butt" d="m700.70966 278.84384l3.3034668 9.076172l3.3034668 -9.076172z" fill-rule="evenodd"/><path fill="#000000" fill-opacity="0.0" d="m704.0131 403.23227l0 72.188995" fill-rule="evenodd"/><path stroke="#000000" stroke-width="2.0" stroke-linejoin="round" stroke-linecap="butt" d="m704.0131 403.23227l0 60.188995" fill-rule="evenodd"/><path fill="#000000" stroke="#000000" stroke-width="2.0" stroke-linecap="butt" d="m700.70966 463.42126l3.3034668 9.076202l3.3034668 -9.076202z" fill-rule="evenodd"/><path fill="#000000" fill-opacity="0.0" d="m528.2362 347.0433l84.91339 0" fill-rule="evenodd"/><path stroke="#ff0000" stroke-width="2.0" stroke-linejoin="round" stroke-linecap="butt" d="m528.2362 347.0433l72.91339 0" fill-rule="evenodd"/><path fill="#ff0000" stroke="#ff0000" stroke-width="2.0" stroke-linecap="butt" d="m601.1496 350.34677l9.076233 -3.3034668l-9.076233 -3.3034668z" fill-rule="evenodd"/><path fill="#cfe2f3" d="m997.94226 290.85434l181.7323 0l0 112.37793l-181.7323 0z" fill-rule="evenodd"/><path stroke="#4a86e8" stroke-width="1.0" stroke-linejoin="round" stroke-linecap="butt" d="m997.94226 290.85434l181.7323 0l0 112.37793l-181.7323 0z" fill-rule="evenodd"/><path fill="#f4cccc" d="m1041.5801 149.77296l94.456665 0l0 59.779526l-94.456665 0z" fill-rule="evenodd"/><path stroke="#ea9999" stroke-width="1.0" stroke-linejoin="round" stroke-linecap="butt" d="m1041.5801 149.77296l94.456665 0l0 59.779526l-94.456665 0z" fill-rule="evenodd"/><path fill="#000000" d="m1063.7439 192.96835l0 -21.953125l4.65625 0l0 1.75l-2.546875 0l0 18.46875l2.546875 0l0 1.734375l-4.65625 0zm6.6210938 0l0 -17.21875l1.921875 0l0 1.625q0.6875 -0.953125 1.53125 -1.421875q0.859375 -0.484375 2.078125 -0.484375q1.59375 0 2.8125 0.828125q1.21875 0.8125 1.84375 2.3125q0.625 1.5 0.625 3.28125q0 1.90625 -0.6875 3.4375q-0.6875 1.53125 -2.0 2.34375q-1.296875 0.8125 -2.734375 0.8125q-1.0625 0 -1.90625 -0.4375q-0.828125 -0.453125 -1.375 -1.140625l0 6.0625l-2.109375 0zm1.921875 -10.921875q0 2.40625 0.96875 3.5625q0.96875 1.140625 2.359375 1.140625q1.40625 0 2.40625 -1.1875q1.0 -1.1875 1.0 -3.6875q0 -2.375 -0.984375 -3.5625q-0.96875 -1.1875 -2.328125 -1.1875q-1.359375 0 -2.390625 1.265625q-1.03125 1.25 -1.03125 3.65625zm19.550781 4.625q-1.171875 0.984375 -2.265625 1.40625q-1.078125 0.40625 -2.3125 0.40625q-2.046875 0 -3.15625 -1.0q-1.09375 -1.0 -1.09375 -2.5625q0 -0.921875 0.40625 -1.671875q0.421875 -0.75 1.09375 -1.203125q0.671875 -0.46875 1.515625 -0.703125q0.625 -0.15625 1.875 -0.3125q2.5625 -0.3125 3.765625 -0.734375q0.015625 -0.421875 0.015625 -0.546875q0 -1.28125 -0.609375 -1.8125q-0.796875 -0.71875 -2.390625 -0.71875q-1.5 0 -2.203125 0.53125q-0.703125 0.515625 -1.046875 1.84375l-2.0625 -0.28125q0.28125 -1.328125 0.921875 -2.140625q0.640625 -0.8125 1.859375 -1.25q1.21875 -0.453125 2.828125 -0.453125q1.59375 0 2.59375 0.375q1.0 0.375 1.46875 0.953125q0.46875 0.5625 0.65625 1.4375q0.09375 0.53125 0.09375 1.9375l0 2.8125q0 2.9375 0.140625 3.71875q0.140625 0.78125 0.53125 1.5l-2.203125 0q-0.328125 -0.65625 -0.421875 -1.53125zm-0.171875 -4.71875q-1.15625 0.46875 -3.453125 0.796875q-1.296875 0.1875 -1.84375 0.421875q-0.53125 0.234375 -0.828125 0.6875q-0.28125 0.453125 -0.28125 1.0q0 0.84375 0.625 1.40625q0.640625 0.5625 1.875 0.5625q1.21875 0 2.171875 -0.53125q0.953125 -0.53125 1.390625 -1.453125q0.34375 -0.71875 0.34375 -2.109375l0 -0.78125zm13.472656 6.25l0 -1.578125q-1.1875 1.859375 -3.484375 1.859375q-1.484375 0 -2.734375 -0.8125q-1.25 -0.828125 -1.9375 -2.296875q-0.671875 -1.46875 -0.671875 -3.390625q0 -1.859375 0.609375 -3.375q0.625 -1.515625 1.859375 -2.328125q1.25 -0.8125 2.78125 -0.8125q1.125 0 2.0 0.484375q0.890625 0.46875 1.4375 1.234375l0 -6.171875l2.09375 0l0 17.1875l-1.953125 0zm-6.671875 -6.21875q0 2.390625 1.0 3.578125q1.015625 1.1875 2.390625 1.1875q1.390625 0 2.34375 -1.125q0.96875 -1.140625 0.96875 -3.453125q0 -2.5625 -0.984375 -3.75q-0.984375 -1.203125 -2.421875 -1.203125q-1.40625 0 -2.359375 1.15625q-0.9375 1.140625 -0.9375 3.609375zm15.472656 10.984375l-4.65625 0l0 -1.734375l2.546875 0l0 -18.46875l-2.546875 0l0 -1.75l4.65625 0l0 21.953125z" fill-rule="nonzero"/><path fill="#fce5cd" d="m1019.7533 475.43176l138.11023 0l0 59.77954l-138.11023 0z" fill-rule="evenodd"/><path stroke="#f9cb9c" stroke-width="1.0" stroke-linejoin="round" stroke-linecap="butt" d="m1019.7533 475.43176l138.11023 0l0 59.77954l-138.11023 0z" fill-rule="evenodd"/><path fill="#000000" d="m1063.7439 518.62714l0 -21.953125l4.65625 0l0 1.75l-2.546875 0l0 18.46875l2.546875 0l0 1.734375l-4.65625 0zm6.6210938 0l0 -17.21875l1.921875 0l0 1.625q0.6875 -0.953125 1.53125 -1.421875q0.859375 -0.484375 2.078125 -0.484375q1.59375 0 2.8125 0.828125q1.21875 0.8125 1.84375 2.3125q0.625 1.5 0.625 3.28125q0 1.90625 -0.6875 3.4375q-0.6875 1.53125 -2.0 2.34375q-1.296875 0.8125 -2.734375 0.8125q-1.0625 0 -1.90625 -0.4375q-0.828125 -0.453125 -1.375 -1.140625l0 6.0625l-2.109375 0zm1.921875 -10.921875q0 2.40625 0.96875 3.5625q0.96875 1.140625 2.359375 1.140625q1.40625 0 2.40625 -1.1875q1.0 -1.1875 1.0 -3.6875q0 -2.375 -0.984375 -3.5625q-0.96875 -1.1875 -2.328125 -1.1875q-1.359375 0 -2.390625 1.265625q-1.03125 1.25 -1.03125 3.65625zm19.550781 4.625q-1.171875 0.984375 -2.265625 1.40625q-1.078125 0.40625 -2.3125 0.40625q-2.046875 0 -3.15625 -1.0q-1.09375 -1.0 -1.09375 -2.5625q0 -0.921875 0.40625 -1.671875q0.421875 -0.75 1.09375 -1.203125q0.671875 -0.46875 1.515625 -0.703125q0.625 -0.15625 1.875 -0.3125q2.5625 -0.3125 3.765625 -0.734375q0.015625 -0.421875 0.015625 -0.546875q0 -1.28125 -0.609375 -1.8125q-0.796875 -0.71875 -2.390625 -0.71875q-1.5 0 -2.203125 0.53125q-0.703125 0.515625 -1.046875 1.84375l-2.0625 -0.28125q0.28125 -1.328125 0.921875 -2.140625q0.640625 -0.8125 1.859375 -1.25q1.21875 -0.453125 2.828125 -0.453125q1.59375 0 2.59375 0.375q1.0 0.375 1.46875 0.953125q0.46875 0.5625 0.65625 1.4375q0.09375 0.53125 0.09375 1.9375l0 2.8125q0 2.9375 0.140625 3.71875q0.140625 0.78125 0.53125 1.5l-2.203125 0q-0.328125 -0.65625 -0.421875 -1.53125zm-0.171875 -4.71875q-1.15625 0.46875 -3.453125 0.796875q-1.296875 0.1875 -1.84375 0.421875q-0.53125 0.234375 -0.828125 0.6875q-0.28125 0.453125 -0.28125 1.0q0 0.84375 0.625 1.40625q0.640625 0.5625 1.875 0.5625q1.21875 0 2.171875 -0.53125q0.953125 -0.53125 1.390625 -1.453125q0.34375 -0.71875 0.34375 -2.109375l0 -0.78125zm13.472656 6.25l0 -1.578125q-1.1875 1.859375 -3.484375 1.859375q-1.484375 0 -2.734375 -0.8125q-1.25 -0.828125 -1.9375 -2.296875q-0.671875 -1.46875 -0.671875 -3.390625q0 -1.859375 0.609375 -3.375q0.625 -1.515625 1.859375 -2.328125q1.25 -0.8125 2.78125 -0.8125q1.125 0 2.0 0.484375q0.890625 0.46875 1.4375 1.234375l0 -6.171875l2.09375 0l0 17.1875l-1.953125 0zm-6.671875 -6.21875q0 2.390625 1.0 3.578125q1.015625 1.1875 2.390625 1.1875q1.390625 0 2.34375 -1.125q0.96875 -1.140625 0.96875 -3.453125q0 -2.5625 -0.984375 -3.75q-0.984375 -1.203125 -2.421875 -1.203125q-1.40625 0 -2.359375 1.15625q-0.9375 1.140625 -0.9375 3.609375zm15.472656 10.984375l-4.65625 0l0 -1.734375l2.546875 0l0 -18.46875l-2.546875 0l0 -1.75l4.65625 0l0 21.953125z" fill-rule="nonzero"/><path fill="#000000" fill-opacity="0.0" d="m1088.8083 209.55249l0 81.29135" fill-rule="evenodd"/><path stroke="#000000" stroke-width="2.0" stroke-linejoin="round" stroke-linecap="butt" d="m1088.8083 209.55249l0 69.29135" fill-rule="evenodd"/><path fill="#000000" stroke="#000000" stroke-width="2.0" stroke-linecap="butt" d="m1085.5049 278.84384l3.3034668 9.076172l3.3034668 -9.076172z" fill-rule="evenodd"/><path fill="#000000" fill-opacity="0.0" d="m1088.8083 403.23227l0 72.188995" fill-rule="evenodd"/><path stroke="#000000" stroke-width="2.0" stroke-linejoin="round" stroke-linecap="butt" d="m1088.8083 403.23227l0 60.188995" fill-rule="evenodd"/><path fill="#000000" stroke="#000000" stroke-width="2.0" stroke-linecap="butt" d="m1085.5049 463.42126l3.3034668 9.076202l3.3034668 -9.076202z" fill-rule="evenodd"/></g></svg>