<svg version="1.1" viewBox="0.0 0.0 829.6587926509186 444.99212598425197" fill="none" stroke="none" stroke-linecap="square" stroke-miterlimit="10" xmlns:xlink="http://www.w3.org/1999/xlink" xmlns="http://www.w3.org/2000/svg"><clipPath id="p.0"><path d="m0 0l829.6588 0l0 444.99213l-829.6588 0l0 -444.99213z" clip-rule="nonzero"/></clipPath><g clip-path="url(#p.0)"><path fill="#000000" fill-opacity="0.0" d="m0 0l829.6588 0l0 444.99213l-829.6588 0z" fill-rule="evenodd"/><path fill="#cfe2f3" d="m115.43569 37.632545l73.79528 0l0 76.15748l-73.79528 0z" fill-rule="evenodd"/><path stroke="#4a86e8" stroke-width="1.0" stroke-linejoin="round" stroke-linecap="butt" d="m115.43569 37.632545l73.79528 0l0 76.15748l-73.79528 0z" fill-rule="evenodd"/><path fill="#cfe2f3" d="m189.23097 37.632545l73.79527 0l0 76.15748l-73.79527 0z" fill-rule="evenodd"/><path stroke="#4a86e8" stroke-width="1.0" stroke-linejoin="round" stroke-linecap="butt" d="m189.23097 37.632545l73.79527 0l0 76.15748l-73.79527 0z" fill-rule="evenodd"/><path fill="#cfe2f3" d="m115.43569 113.79002l73.79528 0l0 76.157486l-73.79528 0z" fill-rule="evenodd"/><path stroke="#4a86e8" stroke-width="1.0" stroke-linejoin="round" stroke-linecap="butt" d="m115.43569 113.79002l73.79528 0l0 76.157486l-73.79528 0z" fill-rule="evenodd"/><path fill="#cfe2f3" d="m189.23097 113.79002l73.79527 0l0 76.157486l-73.79527 0z" fill-rule="evenodd"/><path stroke="#4a86e8" stroke-width="1.0" stroke-linejoin="round" stroke-linecap="butt" d="m189.23097 113.79002l73.79527 0l0 76.157486l-73.79527 0z" fill-rule="evenodd"/><path fill="#cfe2f3" d="m115.43569 189.94751l73.79528 0l0 76.15747l-73.79528 0z" fill-rule="evenodd"/><path stroke="#4a86e8" stroke-width="1.0" stroke-linejoin="round" stroke-linecap="butt" d="m115.43569 189.94751l73.79528 0l0 76.15747l-73.79528 0z" fill-rule="evenodd"/><path fill="#cfe2f3" d="m189.23097 189.94751l73.79527 0l0 76.15747l-73.79527 0z" fill-rule="evenodd"/><path stroke="#4a86e8" stroke-width="1.0" stroke-linejoin="round" stroke-linecap="butt" d="m189.23097 189.94751l73.79527 0l0 76.15747l-73.79527 0z" fill-rule="evenodd"/><path fill="#cfe2f3" d="m115.43569 266.10498l73.79528 0l0 76.1575l-73.79528 0z" fill-rule="evenodd"/><path stroke="#4a86e8" stroke-width="1.0" stroke-linejoin="round" stroke-linecap="butt" d="m115.43569 266.10498l73.79528 0l0 76.1575l-73.79528 0z" fill-rule="evenodd"/><path fill="#cfe2f3" d="m189.23097 266.10498l73.79527 0l0 76.1575l-73.79527 0z" fill-rule="evenodd"/><path stroke="#4a86e8" stroke-width="1.0" stroke-linejoin="round" stroke-linecap="butt" d="m189.23097 266.10498l73.79527 0l0 76.1575l-73.79527 0z" fill-rule="evenodd"/><path fill="#cfe2f3" d="m263.02625 37.632545l73.79529 0l0 76.15748l-73.79529 0z" fill-rule="evenodd"/><path stroke="#4a86e8" stroke-width="1.0" stroke-linejoin="round" stroke-linecap="butt" d="m263.02625 37.632545l73.79529 0l0 76.15748l-73.79529 0z" fill-rule="evenodd"/><path fill="#cfe2f3" d="m336.82153 37.632545l73.79526 0l0 76.15748l-73.79526 0z" fill-rule="evenodd"/><path stroke="#4a86e8" stroke-width="1.0" stroke-linejoin="round" stroke-linecap="butt" d="m336.82153 37.632545l73.79526 0l0 76.15748l-73.79526 0z" fill-rule="evenodd"/><path fill="#cfe2f3" d="m263.02625 113.79002l73.79529 0l0 76.157486l-73.79529 0z" fill-rule="evenodd"/><path stroke="#4a86e8" stroke-width="1.0" stroke-linejoin="round" stroke-linecap="butt" d="m263.02625 113.79002l73.79529 0l0 76.157486l-73.79529 0z" fill-rule="evenodd"/><path fill="#cfe2f3" d="m336.82153 113.79002l73.79526 0l0 76.157486l-73.79526 0z" fill-rule="evenodd"/><path stroke="#4a86e8" stroke-width="1.0" stroke-linejoin="round" stroke-linecap="butt" d="m336.82153 113.79002l73.79526 0l0 76.157486l-73.79526 0z" fill-rule="evenodd"/><path fill="#cfe2f3" d="m263.02625 189.94751l73.79529 0l0 76.15747l-73.79529 0z" fill-rule="evenodd"/><path stroke="#4a86e8" stroke-width="1.0" stroke-linejoin="round" stroke-linecap="butt" d="m263.02625 189.94751l73.79529 0l0 76.15747l-73.79529 0z" fill-rule="evenodd"/><path fill="#cfe2f3" d="m336.82153 189.94751l73.79526 0l0 76.15747l-73.79526 0z" fill-rule="evenodd"/><path stroke="#4a86e8" stroke-width="1.0" stroke-linejoin="round" stroke-linecap="butt" d="m336.82153 189.94751l73.79526 0l0 76.15747l-73.79526 0z" fill-rule="evenodd"/><path fill="#cfe2f3" d="m263.02625 266.10498l73.79529 0l0 76.1575l-73.79529 0z" fill-rule="evenodd"/><path stroke="#4a86e8" stroke-width="1.0" stroke-linejoin="round" stroke-linecap="butt" d="m263.02625 266.10498l73.79529 0l0 76.1575l-73.79529 0z" fill-rule="evenodd"/><path fill="#cfe2f3" d="m336.82153 266.10498l73.79526 0l0 76.1575l-73.79526 0z" fill-rule="evenodd"/><path stroke="#4a86e8" stroke-width="1.0" stroke-linejoin="round" stroke-linecap="butt" d="m336.82153 266.10498l73.79526 0l0 76.1575l-73.79526 0z" fill-rule="evenodd"/><path fill="#f4cccc" d="m98.314964 58.800526l73.795265 0l0 76.157486l-73.795265 0z" fill-rule="evenodd"/><path stroke="#ea9999" stroke-width="1.0" stroke-linejoin="round" stroke-linecap="butt" d="m98.314964 58.800526l73.795265 0l0 76.157486l-73.795265 0z" fill-rule="evenodd"/><path fill="#f4cccc" d="m172.11023 58.800526l73.79529 0l0 76.157486l-73.79529 0z" fill-rule="evenodd"/><path stroke="#ea9999" stroke-width="1.0" stroke-linejoin="round" stroke-linecap="butt" d="m172.11023 58.800526l73.79529 0l0 76.157486l-73.79529 0z" fill-rule="evenodd"/><path fill="#f4cccc" d="m98.314964 134.95801l73.795265 0l0 76.15747l-73.795265 0z" fill-rule="evenodd"/><path stroke="#ea9999" stroke-width="1.0" stroke-linejoin="round" stroke-linecap="butt" d="m98.314964 134.95801l73.795265 0l0 76.15747l-73.795265 0z" fill-rule="evenodd"/><path fill="#f4cccc" d="m172.11023 134.95801l73.79529 0l0 76.15747l-73.79529 0z" fill-rule="evenodd"/><path stroke="#ea9999" stroke-width="1.0" stroke-linejoin="round" stroke-linecap="butt" d="m172.11023 134.95801l73.79529 0l0 76.15747l-73.79529 0z" fill-rule="evenodd"/><path fill="#f4cccc" d="m98.314964 211.79396l73.795265 0l0 76.157486l-73.795265 0z" fill-rule="evenodd"/><path stroke="#ea9999" stroke-width="1.0" stroke-linejoin="round" stroke-linecap="butt" d="m98.314964 211.79396l73.795265 0l0 76.157486l-73.795265 0z" fill-rule="evenodd"/><path fill="#f4cccc" d="m172.11023 211.79396l73.79529 0l0 76.157486l-73.79529 0z" fill-rule="evenodd"/><path stroke="#ea9999" stroke-width="1.0" stroke-linejoin="round" stroke-linecap="butt" d="m172.11023 211.79396l73.79529 0l0 76.157486l-73.79529 0z" fill-rule="evenodd"/><path fill="#f4cccc" d="m98.314964 287.95145l73.795265 0l0 76.15747l-73.795265 0z" fill-rule="evenodd"/><path stroke="#ea9999" stroke-width="1.0" stroke-linejoin="round" stroke-linecap="butt" d="m98.314964 287.95145l73.795265 0l0 76.15747l-73.795265 0z" fill-rule="evenodd"/><path fill="#f4cccc" d="m172.11023 287.95145l73.79529 0l0 76.15747l-73.79529 0z" fill-rule="evenodd"/><path stroke="#ea9999" stroke-width="1.0" stroke-linejoin="round" stroke-linecap="butt" d="m172.11023 287.95145l73.79529 0l0 76.15747l-73.79529 0z" fill-rule="evenodd"/><path fill="#f4cccc" d="m245.90552 58.800526l73.79526 0l0 76.157486l-73.79526 0z" fill-rule="evenodd"/><path stroke="#ea9999" stroke-width="1.0" stroke-linejoin="round" stroke-linecap="butt" d="m245.90552 58.800526l73.79526 0l0 76.157486l-73.79526 0z" fill-rule="evenodd"/><path fill="#f4cccc" d="m319.70078 58.800526l73.79529 0l0 76.157486l-73.79529 0z" fill-rule="evenodd"/><path stroke="#ea9999" stroke-width="1.0" stroke-linejoin="round" stroke-linecap="butt" d="m319.70078 58.800526l73.79529 0l0 76.157486l-73.79529 0z" fill-rule="evenodd"/><path fill="#f4cccc" d="m245.90552 134.95801l73.79526 0l0 76.15747l-73.79526 0z" fill-rule="evenodd"/><path stroke="#ea9999" stroke-width="1.0" stroke-linejoin="round" stroke-linecap="butt" d="m245.90552 134.95801l73.79526 0l0 76.15747l-73.79526 0z" fill-rule="evenodd"/><path fill="#f4cccc" d="m319.70078 134.95801l73.79529 0l0 76.15747l-73.79529 0z" fill-rule="evenodd"/><path stroke="#ea9999" stroke-width="1.0" stroke-linejoin="round" stroke-linecap="butt" d="m319.70078 134.95801l73.79529 0l0 76.15747l-73.79529 0z" fill-rule="evenodd"/><path fill="#f4cccc" d="m245.90552 211.11548l73.79526 0l0 76.1575l-73.79526 0z" fill-rule="evenodd"/><path stroke="#ea9999" stroke-width="1.0" stroke-linejoin="round" stroke-linecap="butt" d="m245.90552 211.11548l73.79526 0l0 76.1575l-73.79526 0z" fill-rule="evenodd"/><path fill="#f4cccc" d="m319.70078 211.11548l73.79529 0l0 76.1575l-73.79529 0z" fill-rule="evenodd"/><path stroke="#ea9999" stroke-width="1.0" stroke-linejoin="round" stroke-linecap="butt" d="m319.70078 211.11548l73.79529 0l0 76.1575l-73.79529 0z" fill-rule="evenodd"/><path fill="#f4cccc" d="m245.90552 287.27298l73.79526 0l0 76.15747l-73.79526 0z" fill-rule="evenodd"/><path stroke="#ea9999" stroke-width="1.0" stroke-linejoin="round" stroke-linecap="butt" d="m245.90552 287.27298l73.79526 0l0 76.15747l-73.79526 0z" fill-rule="evenodd"/><path fill="#f4cccc" d="m319.70078 287.27298l73.79529 0l0 76.15747l-73.79529 0z" fill-rule="evenodd"/><path stroke="#ea9999" stroke-width="1.0" stroke-linejoin="round" stroke-linecap="butt" d="m319.70078 287.27298l73.79529 0l0 76.15747l-73.79529 0z" fill-rule="evenodd"/><path fill="#fce5cd" d="m74.385826 82.28609l73.79528 0l0 76.157486l-73.79528 0z" fill-rule="evenodd"/><path stroke="#ff9900" stroke-width="1.0" stroke-linejoin="round" stroke-linecap="butt" d="m74.385826 82.28609l73.79528 0l0 76.157486l-73.79528 0z" fill-rule="evenodd"/><path fill="#fce5cd" d="m148.1811 82.28609l73.79527 0l0 76.157486l-73.79527 0z" fill-rule="evenodd"/><path stroke="#ff9900" stroke-width="1.0" stroke-linejoin="round" stroke-linecap="butt" d="m148.1811 82.28609l73.79527 0l0 76.157486l-73.79527 0z" fill-rule="evenodd"/><path fill="#fce5cd" d="m74.385826 158.44357l73.79528 0l0 76.15747l-73.79528 0z" fill-rule="evenodd"/><path stroke="#ff9900" stroke-width="1.0" stroke-linejoin="round" stroke-linecap="butt" d="m74.385826 158.44357l73.79528 0l0 76.15747l-73.79528 0z" fill-rule="evenodd"/><path fill="#fce5cd" d="m148.1811 158.44357l73.79527 0l0 76.15747l-73.79527 0z" fill-rule="evenodd"/><path stroke="#ff9900" stroke-width="1.0" stroke-linejoin="round" stroke-linecap="butt" d="m148.1811 158.44357l73.79527 0l0 76.15747l-73.79527 0z" fill-rule="evenodd"/><path fill="#fce5cd" d="m74.385826 234.60104l73.79528 0l0 76.1575l-73.79528 0z" fill-rule="evenodd"/><path stroke="#ff9900" stroke-width="1.0" stroke-linejoin="round" stroke-linecap="butt" d="m74.385826 234.60104l73.79528 0l0 76.1575l-73.79528 0z" fill-rule="evenodd"/><path fill="#fce5cd" d="m148.1811 234.60104l73.79527 0l0 76.1575l-73.79527 0z" fill-rule="evenodd"/><path stroke="#ff9900" stroke-width="1.0" stroke-linejoin="round" stroke-linecap="butt" d="m148.1811 234.60104l73.79527 0l0 76.1575l-73.79527 0z" fill-rule="evenodd"/><path fill="#fce5cd" d="m74.385826 310.75854l73.79528 0l0 76.15747l-73.79528 0z" fill-rule="evenodd"/><path stroke="#ff9900" stroke-width="1.0" stroke-linejoin="round" stroke-linecap="butt" d="m74.385826 310.75854l73.79528 0l0 76.15747l-73.79528 0z" fill-rule="evenodd"/><path fill="#fce5cd" d="m148.1811 310.75854l73.79527 0l0 76.15747l-73.79527 0z" fill-rule="evenodd"/><path stroke="#ff9900" stroke-width="1.0" stroke-linejoin="round" stroke-linecap="butt" d="m148.1811 310.75854l73.79527 0l0 76.15747l-73.79527 0z" fill-rule="evenodd"/><path fill="#fce5cd" d="m221.97638 82.28609l73.79529 0l0 76.157486l-73.79529 0z" fill-rule="evenodd"/><path stroke="#ff9900" stroke-width="1.0" stroke-linejoin="round" stroke-linecap="butt" d="m221.97638 82.28609l73.79529 0l0 76.157486l-73.79529 0z" fill-rule="evenodd"/><path fill="#fce5cd" d="m295.77167 82.28609l73.79526 0l0 76.157486l-73.79526 0z" fill-rule="evenodd"/><path stroke="#ff9900" stroke-width="1.0" stroke-linejoin="round" stroke-linecap="butt" d="m295.77167 82.28609l73.79526 0l0 76.157486l-73.79526 0z" fill-rule="evenodd"/><path fill="#fce5cd" d="m221.97638 158.44357l73.79529 0l0 76.15747l-73.79529 0z" fill-rule="evenodd"/><path stroke="#ff9900" stroke-width="1.0" stroke-linejoin="round" stroke-linecap="butt" d="m221.97638 158.44357l73.79529 0l0 76.15747l-73.79529 0z" fill-rule="evenodd"/><path fill="#fce5cd" d="m295.77167 158.44357l73.79526 0l0 76.15747l-73.79526 0z" fill-rule="evenodd"/><path stroke="#ff9900" stroke-width="1.0" stroke-linejoin="round" stroke-linecap="butt" d="m295.77167 158.44357l73.79526 0l0 76.15747l-73.79526 0z" fill-rule="evenodd"/><path fill="#fce5cd" d="m221.97638 234.60104l73.79529 0l0 76.1575l-73.79529 0z" fill-rule="evenodd"/><path stroke="#ff9900" stroke-width="1.0" stroke-linejoin="round" stroke-linecap="butt" d="m221.97638 234.60104l73.79529 0l0 76.1575l-73.79529 0z" fill-rule="evenodd"/><path fill="#fce5cd" d="m295.77167 234.60104l73.79526 0l0 76.1575l-73.79526 0z" fill-rule="evenodd"/><path stroke="#ff9900" stroke-width="1.0" stroke-linejoin="round" stroke-linecap="butt" d="m295.77167 234.60104l73.79526 0l0 76.1575l-73.79526 0z" fill-rule="evenodd"/><path fill="#fce5cd" d="m221.97638 310.75854l73.79529 0l0 76.15747l-73.79529 0z" fill-rule="evenodd"/><path stroke="#ff9900" stroke-width="1.0" stroke-linejoin="round" stroke-linecap="butt" d="m221.97638 310.75854l73.79529 0l0 76.15747l-73.79529 0z" fill-rule="evenodd"/><path fill="#fce5cd" d="m295.77167 310.75854l73.79526 0l0 76.15747l-73.79526 0z" fill-rule="evenodd"/><path stroke="#ff9900" stroke-width="1.0" stroke-linejoin="round" stroke-linecap="butt" d="m295.77167 310.75854l73.79526 0l0 76.15747l-73.79526 0z" fill-rule="evenodd"/><path fill="#d9ead3" d="m50.102364 109.944885l73.79527 0l0 76.15747l-73.79527 0z" fill-rule="evenodd"/><path stroke="#93c47d" stroke-width="1.0" stroke-linejoin="round" stroke-linecap="butt" d="m50.102364 109.944885l73.79527 0l0 76.15747l-73.79527 0z" fill-rule="evenodd"/><path fill="#d9ead3" d="m123.89764 109.944885l73.79528 0l0 76.15747l-73.79528 0z" fill-rule="evenodd"/><path stroke="#93c47d" stroke-width="1.0" stroke-linejoin="round" stroke-linecap="butt" d="m123.89764 109.944885l73.79528 0l0 76.15747l-73.79528 0z" fill-rule="evenodd"/><path fill="#d9ead3" d="m50.102364 186.10236l73.79527 0l0 76.1575l-73.79527 0z" fill-rule="evenodd"/><path stroke="#93c47d" stroke-width="1.0" stroke-linejoin="round" stroke-linecap="butt" d="m50.102364 186.10236l73.79527 0l0 76.1575l-73.79527 0z" fill-rule="evenodd"/><path fill="#d9ead3" d="m123.89764 186.10236l73.79528 0l0 76.1575l-73.79528 0z" fill-rule="evenodd"/><path stroke="#93c47d" stroke-width="1.0" stroke-linejoin="round" stroke-linecap="butt" d="m123.89764 186.10236l73.79528 0l0 76.1575l-73.79528 0z" fill-rule="evenodd"/><path fill="#d9ead3" d="m50.102364 262.25986l73.79527 0l0 76.15747l-73.79527 0z" fill-rule="evenodd"/><path stroke="#93c47d" stroke-width="1.0" stroke-linejoin="round" stroke-linecap="butt" d="m50.102364 262.25986l73.79527 0l0 76.15747l-73.79527 0z" fill-rule="evenodd"/><path fill="#d9ead3" d="m123.89764 262.25986l73.79528 0l0 76.15747l-73.79528 0z" fill-rule="evenodd"/><path stroke="#93c47d" stroke-width="1.0" stroke-linejoin="round" stroke-linecap="butt" d="m123.89764 262.25986l73.79528 0l0 76.15747l-73.79528 0z" fill-rule="evenodd"/><path fill="#d9ead3" d="m50.102364 338.41733l73.79527 0l0 76.15747l-73.79527 0z" fill-rule="evenodd"/><path stroke="#93c47d" stroke-width="1.0" stroke-linejoin="round" stroke-linecap="butt" d="m50.102364 338.41733l73.79527 0l0 76.15747l-73.79527 0z" fill-rule="evenodd"/><path fill="#d9ead3" d="m123.89764 338.41733l73.79528 0l0 76.15747l-73.79528 0z" fill-rule="evenodd"/><path stroke="#93c47d" stroke-width="1.0" stroke-linejoin="round" stroke-linecap="butt" d="m123.89764 338.41733l73.79528 0l0 76.15747l-73.79528 0z" fill-rule="evenodd"/><path fill="#d9ead3" d="m197.69292 109.944885l73.79527 0l0 76.15747l-73.79527 0z" fill-rule="evenodd"/><path stroke="#93c47d" stroke-width="1.0" stroke-linejoin="round" stroke-linecap="butt" d="m197.69292 109.944885l73.79527 0l0 76.15747l-73.79527 0z" fill-rule="evenodd"/><path fill="#d9ead3" d="m271.4882 109.944885l73.79529 0l0 76.15747l-73.79529 0z" fill-rule="evenodd"/><path stroke="#93c47d" stroke-width="1.0" stroke-linejoin="round" stroke-linecap="butt" d="m271.4882 109.944885l73.79529 0l0 76.15747l-73.79529 0z" fill-rule="evenodd"/><path fill="#d9ead3" d="m197.69292 186.10236l73.79527 0l0 76.1575l-73.79527 0z" fill-rule="evenodd"/><path stroke="#93c47d" stroke-width="1.0" stroke-linejoin="round" stroke-linecap="butt" d="m197.69292 186.10236l73.79527 0l0 76.1575l-73.79527 0z" fill-rule="evenodd"/><path fill="#d9ead3" d="m271.4882 186.10236l73.79529 0l0 76.1575l-73.79529 0z" fill-rule="evenodd"/><path stroke="#93c47d" stroke-width="1.0" stroke-linejoin="round" stroke-linecap="butt" d="m271.4882 186.10236l73.79529 0l0 76.1575l-73.79529 0z" fill-rule="evenodd"/><path fill="#d9ead3" d="m197.69292 262.25986l73.79527 0l0 76.15747l-73.79527 0z" fill-rule="evenodd"/><path stroke="#93c47d" stroke-width="1.0" stroke-linejoin="round" stroke-linecap="butt" d="m197.69292 262.25986l73.79527 0l0 76.15747l-73.79527 0z" fill-rule="evenodd"/><path fill="#d9ead3" d="m271.4882 262.25986l73.79529 0l0 76.15747l-73.79529 0z" fill-rule="evenodd"/><path stroke="#93c47d" stroke-width="1.0" stroke-linejoin="round" stroke-linecap="butt" d="m271.4882 262.25986l73.79529 0l0 76.15747l-73.79529 0z" fill-rule="evenodd"/><path fill="#d9ead3" d="m197.69292 338.41733l73.79527 0l0 76.15747l-73.79527 0z" fill-rule="evenodd"/><path stroke="#93c47d" stroke-width="1.0" stroke-linejoin="round" stroke-linecap="butt" d="m197.69292 338.41733l73.79527 0l0 76.15747l-73.79527 0z" fill-rule="evenodd"/><path fill="#d9ead3" d="m271.4882 338.41733l73.79529 0l0 76.15747l-73.79529 0z" fill-rule="evenodd"/><path stroke="#93c47d" stroke-width="1.0" stroke-linejoin="round" stroke-linecap="butt" d="m271.4882 338.41733l73.79529 0l0 76.15747l-73.79529 0z" fill-rule="evenodd"/><path fill="#000000" d="m457.3386 185.7454l95.22836 0l0 -14.952759l29.905457 29.905518l-29.905457 29.905502l0 -14.952744l-95.22836 0z" fill-rule="evenodd"/><path stroke="#000000" stroke-width="1.0" stroke-linejoin="round" stroke-linecap="butt" d="m457.3386 185.7454l95.22836 0l0 -14.952759l29.905457 29.905518l-29.905457 29.905502l0 -14.952744l-95.22836 0z" fill-rule="evenodd"/><path fill="#cfe2f3" d="m643.1601 78.10499l0 0c0 -16.516361 13.22699 -29.905514 29.543335 -29.905514l0 0c7.835327 0 15.3497925 3.1507492 20.890259 8.759121c5.5404663 5.6083717 8.653015 13.214958 8.653015 21.146393l0 0c0 16.516357 -13.22699 29.90551 -29.543274 29.90551l0 0c-16.316345 0 -29.543335 -13.389153 -29.543335 -29.90551z" fill-rule="evenodd"/><path stroke="#4a86e8" stroke-width="1.0" stroke-linejoin="round" stroke-linecap="butt" d="m643.1601 78.10499l0 0c0 -16.516361 13.22699 -29.905514 29.543335 -29.905514l0 0c7.835327 0 15.3497925 3.1507492 20.890259 8.759121c5.5404663 5.6083717 8.653015 13.214958 8.653015 21.146393l0 0c0 16.516357 -13.22699 29.90551 -29.543274 29.90551l0 0c-16.316345 0 -29.543335 -13.389153 -29.543335 -29.90551z" fill-rule="evenodd"/><path fill="#f4cccc" d="m643.1601 167.01837l0 0c0 -16.516357 13.22699 -29.905518 29.543335 -29.905518l0 0c7.835327 0 15.3497925 3.1507568 20.890259 8.759125c5.5404663 5.608368 8.653015 13.214966 8.653015 21.146393l0 0c0 16.516357 -13.22699 29.905518 -29.543274 29.905518l0 0c-16.316345 0 -29.543335 -13.38916 -29.543335 -29.905518z" fill-rule="evenodd"/><path stroke="#e06666" stroke-width="1.0" stroke-linejoin="round" stroke-linecap="butt" d="m643.1601 167.01837l0 0c0 -16.516357 13.22699 -29.905518 29.543335 -29.905518l0 0c7.835327 0 15.3497925 3.1507568 20.890259 8.759125c5.5404663 5.608368 8.653015 13.214966 8.653015 21.146393l0 0c0 16.516357 -13.22699 29.905518 -29.543274 29.905518l0 0c-16.316345 0 -29.543335 -13.38916 -29.543335 -29.905518z" fill-rule="evenodd"/><path fill="#fce5cd" d="m643.1601 255.93176l0 0c0 -16.516357 13.22699 -29.905518 29.543335 -29.905518l0 0c7.835327 0 15.3497925 3.1507568 20.890259 8.759125c5.5404663 5.608368 8.653015 13.214951 8.653015 21.146393l0 0c0 16.516357 -13.22699 29.905518 -29.543274 29.905518l0 0c-16.316345 0 -29.543335 -13.38916 -29.543335 -29.905518z" fill-rule="evenodd"/><path stroke="#ff9900" stroke-width="1.0" stroke-linejoin="round" stroke-linecap="butt" d="m643.1601 255.93176l0 0c0 -16.516357 13.22699 -29.905518 29.543335 -29.905518l0 0c7.835327 0 15.3497925 3.1507568 20.890259 8.759125c5.5404663 5.608368 8.653015 13.214951 8.653015 21.146393l0 0c0 16.516357 -13.22699 29.905518 -29.543274 29.905518l0 0c-16.316345 0 -29.543335 -13.38916 -29.543335 -29.905518z" fill-rule="evenodd"/><path fill="#d9ead3" d="m643.1601 344.84515l0 0c0 -16.516357 13.22699 -29.905518 29.543335 -29.905518l0 0c7.835327 0 15.3497925 3.1507568 20.890259 8.759125c5.5404663 5.608368 8.653015 13.214935 8.653015 21.146393l0 0c0 16.516357 -13.22699 29.905518 -29.543274 29.905518l0 0c-16.316345 0 -29.543335 -13.38916 -29.543335 -29.905518z" fill-rule="evenodd"/><path stroke="#93c47d" stroke-width="1.0" stroke-linejoin="round" stroke-linecap="butt" d="m643.1601 344.84515l0 0c0 -16.516357 13.22699 -29.905518 29.543335 -29.905518l0 0c7.835327 0 15.3497925 3.1507568 20.890259 8.759125c5.5404663 5.608368 8.653015 13.214935 8.653015 21.146393l0 0c0 16.516357 -13.22699 29.905518 -29.543274 29.905518l0 0c-16.316345 0 -29.543335 -13.38916 -29.543335 -29.905518z" fill-rule="evenodd"/></g></svg>