<svg version="1.1" viewBox="0.0 0.0 906.2677165354331 481.246719160105" fill="none" stroke="none" stroke-linecap="square" stroke-miterlimit="10" xmlns:xlink="http://www.w3.org/1999/xlink" xmlns="http://www.w3.org/2000/svg"><clipPath id="p.0"><path d="m0 0l906.2677 0l0 481.2467l-906.2677 0l0 -481.2467z" clip-rule="nonzero"/></clipPath><g clip-path="url(#p.0)"><path fill="#000000" fill-opacity="0.0" d="m0 0l906.2677 0l0 481.2467l-906.2677 0z" fill-rule="evenodd"/><path fill="#cfe2f3" d="m115.43569 114.0105l73.79528 0l0 76.157486l-73.79528 0z" fill-rule="evenodd"/><path stroke="#4a86e8" stroke-width="1.0" stroke-linejoin="round" stroke-linecap="butt" d="m115.43569 114.0105l73.79528 0l0 76.157486l-73.79528 0z" fill-rule="evenodd"/><path fill="#cfe2f3" d="m189.23097 114.0105l73.79527 0l0 76.157486l-73.79527 0z" fill-rule="evenodd"/><path stroke="#4a86e8" stroke-width="1.0" stroke-linejoin="round" stroke-linecap="butt" d="m189.23097 114.0105l73.79527 0l0 76.157486l-73.79527 0z" fill-rule="evenodd"/><path fill="#cfe2f3" d="m115.43569 190.16798l73.79528 0l0 76.157486l-73.79528 0z" fill-rule="evenodd"/><path stroke="#4a86e8" stroke-width="1.0" stroke-linejoin="round" stroke-linecap="butt" d="m115.43569 190.16798l73.79528 0l0 76.157486l-73.79528 0z" fill-rule="evenodd"/><path fill="#cfe2f3" d="m189.23097 190.16798l73.79527 0l0 76.157486l-73.79527 0z" fill-rule="evenodd"/><path stroke="#4a86e8" stroke-width="1.0" stroke-linejoin="round" stroke-linecap="butt" d="m189.23097 190.16798l73.79527 0l0 76.157486l-73.79527 0z" fill-rule="evenodd"/><path fill="#f4cccc" d="m263.02625 114.0105l73.79529 0l0 76.157486l-73.79529 0z" fill-rule="evenodd"/><path stroke="#ea9999" stroke-width="1.0" stroke-linejoin="round" stroke-linecap="butt" d="m263.02625 114.0105l73.79529 0l0 76.157486l-73.79529 0z" fill-rule="evenodd"/><path fill="#f4cccc" d="m336.82153 114.0105l73.79526 0l0 76.157486l-73.79526 0z" fill-rule="evenodd"/><path stroke="#ea9999" stroke-width="1.0" stroke-linejoin="round" stroke-linecap="butt" d="m336.82153 114.0105l73.79526 0l0 76.157486l-73.79526 0z" fill-rule="evenodd"/><path fill="#f4cccc" d="m263.02625 190.16798l73.79529 0l0 76.157486l-73.79529 0z" fill-rule="evenodd"/><path stroke="#ea9999" stroke-width="1.0" stroke-linejoin="round" stroke-linecap="butt" d="m263.02625 190.16798l73.79529 0l0 76.157486l-73.79529 0z" fill-rule="evenodd"/><path fill="#f4cccc" d="m336.82153 190.16798l73.79526 0l0 76.157486l-73.79526 0z" fill-rule="evenodd"/><path stroke="#ea9999" stroke-width="1.0" stroke-linejoin="round" stroke-linecap="butt" d="m336.82153 190.16798l73.79526 0l0 76.157486l-73.79526 0z" fill-rule="evenodd"/><path fill="#d9ead3" d="m115.43569 266.32547l73.79528 0l0 76.15747l-73.79528 0z" fill-rule="evenodd"/><path stroke="#93c47d" stroke-width="1.0" stroke-linejoin="round" stroke-linecap="butt" d="m115.43569 266.32547l73.79528 0l0 76.15747l-73.79528 0z" fill-rule="evenodd"/><path fill="#d9ead3" d="m189.23097 266.32547l73.79527 0l0 76.15747l-73.79527 0z" fill-rule="evenodd"/><path stroke="#93c47d" stroke-width="1.0" stroke-linejoin="round" stroke-linecap="butt" d="m189.23097 266.32547l73.79527 0l0 76.15747l-73.79527 0z" fill-rule="evenodd"/><path fill="#d9ead3" d="m115.43569 342.48294l73.79528 0l0 76.15747l-73.79528 0z" fill-rule="evenodd"/><path stroke="#93c47d" stroke-width="1.0" stroke-linejoin="round" stroke-linecap="butt" d="m115.43569 342.48294l73.79528 0l0 76.15747l-73.79528 0z" fill-rule="evenodd"/><path fill="#d9ead3" d="m189.23097 342.48294l73.79527 0l0 76.15747l-73.79527 0z" fill-rule="evenodd"/><path stroke="#93c47d" stroke-width="1.0" stroke-linejoin="round" stroke-linecap="butt" d="m189.23097 342.48294l73.79527 0l0 76.15747l-73.79527 0z" fill-rule="evenodd"/><path fill="#fce5cd" d="m263.02625 266.32547l73.79529 0l0 76.15747l-73.79529 0z" fill-rule="evenodd"/><path stroke="#ff9900" stroke-width="1.0" stroke-linejoin="round" stroke-linecap="butt" d="m263.02625 266.32547l73.79529 0l0 76.15747l-73.79529 0z" fill-rule="evenodd"/><path fill="#fce5cd" d="m336.82153 266.32547l73.79526 0l0 76.15747l-73.79526 0z" fill-rule="evenodd"/><path stroke="#ff9900" stroke-width="1.0" stroke-linejoin="round" stroke-linecap="butt" d="m336.82153 266.32547l73.79526 0l0 76.15747l-73.79526 0z" fill-rule="evenodd"/><path fill="#fce5cd" d="m263.02625 342.48294l73.79529 0l0 76.15747l-73.79529 0z" fill-rule="evenodd"/><path stroke="#ff9900" stroke-width="1.0" stroke-linejoin="round" stroke-linecap="butt" d="m263.02625 342.48294l73.79529 0l0 76.15747l-73.79529 0z" fill-rule="evenodd"/><path fill="#fce5cd" d="m336.82153 342.48294l73.79526 0l0 76.15747l-73.79526 0z" fill-rule="evenodd"/><path stroke="#ff9900" stroke-width="1.0" stroke-linejoin="round" stroke-linecap="butt" d="m336.82153 342.48294l73.79526 0l0 76.15747l-73.79526 0z" fill-rule="evenodd"/><path fill="#000000" d="m468.5118 251.03412l96.33072 0l0 -11.535431l23.070862 23.070862l-23.070862 23.070862l0 -11.535431l-96.33072 0z" fill-rule="evenodd"/><path stroke="#000000" stroke-width="1.0" stroke-linejoin="round" stroke-linecap="butt" d="m468.5118 251.03412l96.33072 0l0 -11.535431l23.070862 23.070862l-23.070862 23.070862l0 -11.535431l-96.33072 0z" fill-rule="evenodd"/><path fill="#f4cccc" d="m719.6037 186.41208l73.79523 0l0 76.15747l-73.79523 0z" fill-rule="evenodd"/><path stroke="#ea9999" stroke-width="1.0" stroke-linejoin="round" stroke-linecap="butt" d="m719.6037 186.41208l73.79523 0l0 76.15747l-73.79523 0z" fill-rule="evenodd"/><path fill="#cfe2f3" d="m645.8084 186.41208l73.79529 0l0 76.15747l-73.79529 0z" fill-rule="evenodd"/><path stroke="#4a86e8" stroke-width="1.0" stroke-linejoin="round" stroke-linecap="butt" d="m645.8084 186.41208l73.79529 0l0 76.15747l-73.79529 0z" fill-rule="evenodd"/><path fill="#fce5cd" d="m719.6037 262.56955l73.79523 0l0 76.15747l-73.79523 0z" fill-rule="evenodd"/><path stroke="#ff9900" stroke-width="1.0" stroke-linejoin="round" stroke-linecap="butt" d="m719.6037 262.56955l73.79523 0l0 76.15747l-73.79523 0z" fill-rule="evenodd"/><path fill="#d9ead3" d="m645.8084 262.56955l73.79529 0l0 76.15747l-73.79529 0z" fill-rule="evenodd"/><path stroke="#93c47d" stroke-width="1.0" stroke-linejoin="round" stroke-linecap="butt" d="m645.8084 262.56955l73.79529 0l0 76.15747l-73.79529 0z" fill-rule="evenodd"/></g></svg>