<svg version="1.1" viewBox="0.0 0.0 804.496062992126 571.002624671916" fill="none" stroke="none" stroke-linecap="square" stroke-miterlimit="10" xmlns:xlink="http://www.w3.org/1999/xlink" xmlns="http://www.w3.org/2000/svg"><clipPath id="p.0"><path d="m0 0l804.49603 0l0 571.0026l-804.49603 0l0 -571.0026z" clip-rule="nonzero"/></clipPath><g clip-path="url(#p.0)"><path fill="#000000" fill-opacity="0.0" d="m0 0l804.49603 0l0 571.0026l-804.49603 0z" fill-rule="evenodd"/><path fill="#ffffff" d="m80.654854 74.190056l34.897636 0l0 30.425194l-34.897636 0z" fill-rule="evenodd"/><path stroke="#000000" stroke-width="1.0" stroke-linejoin="round" stroke-linecap="butt" d="m80.654854 74.190056l34.897636 0l0 30.425194l-34.897636 0z" fill-rule="evenodd"/><path fill="#ffffff" d="m80.654854 104.59467l34.897636 0l0 30.425194l-34.897636 0z" fill-rule="evenodd"/><path stroke="#000000" stroke-width="1.0" stroke-linejoin="round" stroke-linecap="butt" d="m80.654854 104.59467l34.897636 0l0 30.425194l-34.897636 0z" fill-rule="evenodd"/><path fill="#ffffff" d="m115.543045 74.190056l34.897644 0l0 30.425194l-34.897644 0z" fill-rule="evenodd"/><path stroke="#000000" stroke-width="1.0" stroke-linejoin="round" stroke-linecap="butt" d="m115.543045 74.190056l34.897644 0l0 30.425194l-34.897644 0z" fill-rule="evenodd"/><path fill="#ffffff" d="m115.543045 104.59467l34.897644 0l0 30.425194l-34.897644 0z" fill-rule="evenodd"/><path stroke="#000000" stroke-width="1.0" stroke-linejoin="round" stroke-linecap="butt" d="m115.543045 104.59467l34.897644 0l0 30.425194l-34.897644 0z" fill-rule="evenodd"/><path fill="#ffffff" d="m185.3292 104.59467l34.897644 0l0 30.425194l-34.897644 0z" fill-rule="evenodd"/><path stroke="#000000" stroke-width="1.0" stroke-linejoin="round" stroke-linecap="butt" d="m185.3292 104.59467l34.897644 0l0 30.425194l-34.897644 0z" fill-rule="evenodd"/><path fill="#ffffff" d="m185.3292 134.99928l34.897644 0l0 30.425201l-34.897644 0z" fill-rule="evenodd"/><path stroke="#000000" stroke-width="1.0" stroke-linejoin="round" stroke-linecap="butt" d="m185.3292 134.99928l34.897644 0l0 30.425201l-34.897644 0z" fill-rule="evenodd"/><path fill="#ffffff" d="m220.21739 74.190056l34.89763 0l0 30.425194l-34.89763 0z" fill-rule="evenodd"/><path stroke="#000000" stroke-width="1.0" stroke-linejoin="round" stroke-linecap="butt" d="m220.21739 74.190056l34.89763 0l0 30.425194l-34.89763 0z" fill-rule="evenodd"/><path fill="#ffffff" d="m220.21739 104.59467l34.89763 0l0 30.425194l-34.89763 0z" fill-rule="evenodd"/><path stroke="#000000" stroke-width="1.0" stroke-linejoin="round" stroke-linecap="butt" d="m220.21739 104.59467l34.89763 0l0 30.425194l-34.89763 0z" fill-rule="evenodd"/><path fill="#ffffff" d="m220.21739 134.99928l34.89763 0l0 30.425201l-34.89763 0z" fill-rule="evenodd"/><path stroke="#000000" stroke-width="1.0" stroke-linejoin="round" stroke-linecap="butt" d="m220.21739 134.99928l34.89763 0l0 30.425201l-34.89763 0z" fill-rule="evenodd"/><path fill="#ffffff" d="m255.10558 74.190056l34.89763 0l0 30.425194l-34.89763 0z" fill-rule="evenodd"/><path stroke="#000000" stroke-width="1.0" stroke-linejoin="round" stroke-linecap="butt" d="m255.10558 74.190056l34.89763 0l0 30.425194l-34.89763 0z" fill-rule="evenodd"/><path fill="#ffffff" d="m255.10558 104.59467l34.89763 0l0 30.425194l-34.89763 0z" fill-rule="evenodd"/><path stroke="#000000" stroke-width="1.0" stroke-linejoin="round" stroke-linecap="butt" d="m255.10558 104.59467l34.89763 0l0 30.425194l-34.89763 0z" fill-rule="evenodd"/><path fill="#ffffff" d="m255.10558 134.99928l34.89763 0l0 30.425201l-34.89763 0z" fill-rule="evenodd"/><path stroke="#000000" stroke-width="1.0" stroke-linejoin="round" stroke-linecap="butt" d="m255.10558 134.99928l34.89763 0l0 30.425201l-34.89763 0z" fill-rule="evenodd"/><path fill="#ffffff" d="m80.65351 165.42543l34.897636 0l0 30.425186l-34.897636 0z" fill-rule="evenodd"/><path stroke="#000000" stroke-width="1.0" stroke-linejoin="round" stroke-linecap="butt" d="m80.65351 165.42543l34.897636 0l0 30.425186l-34.897636 0z" fill-rule="evenodd"/><path fill="#ffffff" d="m80.65351 195.83005l34.897636 0l0 30.425186l-34.897636 0z" fill-rule="evenodd"/><path stroke="#000000" stroke-width="1.0" stroke-linejoin="round" stroke-linecap="butt" d="m80.65351 195.83005l34.897636 0l0 30.425186l-34.897636 0z" fill-rule="evenodd"/><path fill="#ffffff" d="m80.65351 226.23465l34.897636 0l0 30.425201l-34.897636 0z" fill-rule="evenodd"/><path stroke="#000000" stroke-width="1.0" stroke-linejoin="round" stroke-linecap="butt" d="m80.65351 226.23465l34.897636 0l0 30.425201l-34.897636 0z" fill-rule="evenodd"/><path fill="#ffffff" d="m115.54171 165.42543l34.897636 0l0 30.425186l-34.897636 0z" fill-rule="evenodd"/><path stroke="#000000" stroke-width="1.0" stroke-linejoin="round" stroke-linecap="butt" d="m115.54171 165.42543l34.897636 0l0 30.425186l-34.897636 0z" fill-rule="evenodd"/><path fill="#ffffff" d="m115.54171 195.83005l34.897636 0l0 30.425186l-34.897636 0z" fill-rule="evenodd"/><path stroke="#000000" stroke-width="1.0" stroke-linejoin="round" stroke-linecap="butt" d="m115.54171 195.83005l34.897636 0l0 30.425186l-34.897636 0z" fill-rule="evenodd"/><path fill="#ffffff" d="m115.54171 226.23465l34.897636 0l0 30.425201l-34.897636 0z" fill-rule="evenodd"/><path stroke="#000000" stroke-width="1.0" stroke-linejoin="round" stroke-linecap="butt" d="m115.54171 226.23465l34.897636 0l0 30.425201l-34.897636 0z" fill-rule="evenodd"/><path fill="#ffffff" d="m150.4299 165.42543l34.897644 0l0 30.425186l-34.897644 0z" fill-rule="evenodd"/><path stroke="#000000" stroke-width="1.0" stroke-linejoin="round" stroke-linecap="butt" d="m150.4299 165.42543l34.897644 0l0 30.425186l-34.897644 0z" fill-rule="evenodd"/><path fill="#ffffff" d="m150.4299 195.83005l34.897644 0l0 30.425186l-34.897644 0z" fill-rule="evenodd"/><path stroke="#000000" stroke-width="1.0" stroke-linejoin="round" stroke-linecap="butt" d="m150.4299 195.83005l34.897644 0l0 30.425186l-34.897644 0z" fill-rule="evenodd"/><path fill="#ffffff" d="m150.4299 226.23465l34.897644 0l0 30.425201l-34.897644 0z" fill-rule="evenodd"/><path stroke="#000000" stroke-width="1.0" stroke-linejoin="round" stroke-linecap="butt" d="m150.4299 226.23465l34.897644 0l0 30.425201l-34.897644 0z" fill-rule="evenodd"/><path fill="#ffffff" d="m185.32785 165.42543l34.897644 0l0 30.425186l-34.897644 0z" fill-rule="evenodd"/><path stroke="#000000" stroke-width="1.0" stroke-linejoin="round" stroke-linecap="butt" d="m185.32785 165.42543l34.897644 0l0 30.425186l-34.897644 0z" fill-rule="evenodd"/><path fill="#ffffff" d="m185.32785 195.83005l34.897644 0l0 30.425186l-34.897644 0z" fill-rule="evenodd"/><path stroke="#000000" stroke-width="1.0" stroke-linejoin="round" stroke-linecap="butt" d="m185.32785 195.83005l34.897644 0l0 30.425186l-34.897644 0z" fill-rule="evenodd"/><path fill="#ffffff" d="m185.32785 226.23465l34.897644 0l0 30.425201l-34.897644 0z" fill-rule="evenodd"/><path stroke="#000000" stroke-width="1.0" stroke-linejoin="round" stroke-linecap="butt" d="m185.32785 226.23465l34.897644 0l0 30.425201l-34.897644 0z" fill-rule="evenodd"/><path fill="#ffffff" d="m220.21605 165.42543l34.89763 0l0 30.425186l-34.89763 0z" fill-rule="evenodd"/><path stroke="#000000" stroke-width="1.0" stroke-linejoin="round" stroke-linecap="butt" d="m220.21605 165.42543l34.89763 0l0 30.425186l-34.89763 0z" fill-rule="evenodd"/><path fill="#ffffff" d="m220.21605 195.83005l34.89763 0l0 30.425186l-34.89763 0z" fill-rule="evenodd"/><path stroke="#000000" stroke-width="1.0" stroke-linejoin="round" stroke-linecap="butt" d="m220.21605 195.83005l34.89763 0l0 30.425186l-34.89763 0z" fill-rule="evenodd"/><path fill="#ffffff" d="m220.21605 226.23465l34.89763 0l0 30.425201l-34.89763 0z" fill-rule="evenodd"/><path stroke="#000000" stroke-width="1.0" stroke-linejoin="round" stroke-linecap="butt" d="m220.21605 226.23465l34.89763 0l0 30.425201l-34.89763 0z" fill-rule="evenodd"/><path fill="#ffffff" d="m255.10425 165.42543l34.897644 0l0 30.425186l-34.897644 0z" fill-rule="evenodd"/><path stroke="#000000" stroke-width="1.0" stroke-linejoin="round" stroke-linecap="butt" d="m255.10425 165.42543l34.897644 0l0 30.425186l-34.897644 0z" fill-rule="evenodd"/><path fill="#ffffff" d="m255.10425 195.83005l34.897644 0l0 30.425186l-34.897644 0z" fill-rule="evenodd"/><path stroke="#000000" stroke-width="1.0" stroke-linejoin="round" stroke-linecap="butt" d="m255.10425 195.83005l34.897644 0l0 30.425186l-34.897644 0z" fill-rule="evenodd"/><path fill="#ffffff" d="m255.10425 226.23465l34.897644 0l0 30.425201l-34.897644 0z" fill-rule="evenodd"/><path stroke="#000000" stroke-width="1.0" stroke-linejoin="round" stroke-linecap="butt" d="m255.10425 226.23465l34.897644 0l0 30.425201l-34.897644 0z" fill-rule="evenodd"/><path fill="#ffffff" d="m150.43124 134.99928l34.89763 0l0 30.425201l-34.89763 0z" fill-rule="evenodd"/><path stroke="#000000" stroke-width="1.0" stroke-linejoin="round" stroke-linecap="butt" d="m150.43124 134.99928l34.89763 0l0 30.425201l-34.89763 0z" fill-rule="evenodd"/><path fill="#ffffff" d="m150.43124 104.59467l34.89763 0l0 30.425194l-34.89763 0z" fill-rule="evenodd"/><path stroke="#000000" stroke-width="1.0" stroke-linejoin="round" stroke-linecap="butt" d="m150.43124 104.59467l34.89763 0l0 30.425194l-34.89763 0z" fill-rule="evenodd"/><path fill="#ffffff" d="m150.43124 74.190056l34.89763 0l0 30.425194l-34.89763 0z" fill-rule="evenodd"/><path stroke="#000000" stroke-width="1.0" stroke-linejoin="round" stroke-linecap="butt" d="m150.43124 74.190056l34.89763 0l0 30.425194l-34.89763 0z" fill-rule="evenodd"/><path fill="#ffffff" d="m115.543045 134.99928l34.897644 0l0 30.425201l-34.897644 0z" fill-rule="evenodd"/><path stroke="#000000" stroke-width="1.0" stroke-linejoin="round" stroke-linecap="butt" d="m115.543045 134.99928l34.897644 0l0 30.425201l-34.897644 0z" fill-rule="evenodd"/><path fill="#ffffff" d="m80.654854 134.99928l34.897636 0l0 30.425201l-34.897636 0z" fill-rule="evenodd"/><path stroke="#000000" stroke-width="1.0" stroke-linejoin="round" stroke-linecap="butt" d="m80.654854 134.99928l34.897636 0l0 30.425201l-34.897636 0z" fill-rule="evenodd"/><path fill="#ffffff" d="m185.3292 74.190056l34.897644 0l0 30.425194l-34.897644 0z" fill-rule="evenodd"/><path stroke="#000000" stroke-width="1.0" stroke-linejoin="round" stroke-linecap="butt" d="m185.3292 74.190056l34.897644 0l0 30.425194l-34.897644 0z" fill-rule="evenodd"/><path fill="#ffffff" d="m583.05835 109.8331l34.897644 0l0 30.425201l-34.897644 0z" fill-rule="evenodd"/><path stroke="#000000" stroke-width="1.0" stroke-linejoin="round" stroke-linecap="butt" d="m583.05835 109.8331l34.897644 0l0 30.425201l-34.897644 0z" fill-rule="evenodd"/><path fill="#ffffff" d="m583.05835 140.2583l34.897644 0l0 30.425201l-34.897644 0z" fill-rule="evenodd"/><path stroke="#000000" stroke-width="1.0" stroke-linejoin="round" stroke-linecap="butt" d="m583.05835 140.2583l34.897644 0l0 30.425201l-34.897644 0z" fill-rule="evenodd"/><path fill="#ffffff" d="m617.956 79.407906l34.897644 0l0 30.425194l-34.897644 0z" fill-rule="evenodd"/><path stroke="#000000" stroke-width="1.0" stroke-linejoin="round" stroke-linecap="butt" d="m617.956 79.407906l34.897644 0l0 30.425194l-34.897644 0z" fill-rule="evenodd"/><path fill="#ffffff" d="m617.956 109.8331l34.897644 0l0 30.425201l-34.897644 0z" fill-rule="evenodd"/><path stroke="#000000" stroke-width="1.0" stroke-linejoin="round" stroke-linecap="butt" d="m617.956 109.8331l34.897644 0l0 30.425201l-34.897644 0z" fill-rule="evenodd"/><path fill="#ffffff" d="m617.956 140.2583l34.897644 0l0 30.425201l-34.897644 0z" fill-rule="evenodd"/><path stroke="#000000" stroke-width="1.0" stroke-linejoin="round" stroke-linecap="butt" d="m617.956 140.2583l34.897644 0l0 30.425201l-34.897644 0z" fill-rule="evenodd"/><path fill="#ffffff" d="m652.85364 79.407906l34.897583 0l0 30.425194l-34.897583 0z" fill-rule="evenodd"/><path stroke="#000000" stroke-width="1.0" stroke-linejoin="round" stroke-linecap="butt" d="m652.85364 79.407906l34.897583 0l0 30.425194l-34.897583 0z" fill-rule="evenodd"/><path fill="#ffffff" d="m652.85364 109.8331l34.897583 0l0 30.425201l-34.897583 0z" fill-rule="evenodd"/><path stroke="#000000" stroke-width="1.0" stroke-linejoin="round" stroke-linecap="butt" d="m652.85364 109.8331l34.897583 0l0 30.425201l-34.897583 0z" fill-rule="evenodd"/><path fill="#ffffff" d="m652.85364 140.2583l34.897583 0l0 30.425201l-34.897583 0z" fill-rule="evenodd"/><path stroke="#000000" stroke-width="1.0" stroke-linejoin="round" stroke-linecap="butt" d="m652.85364 140.2583l34.897583 0l0 30.425201l-34.897583 0z" fill-rule="evenodd"/><path fill="#ffffff" d="m583.05835 79.407906l34.897644 0l0 30.425194l-34.897644 0z" fill-rule="evenodd"/><path stroke="#000000" stroke-width="1.0" stroke-linejoin="round" stroke-linecap="butt" d="m583.05835 79.407906l34.897644 0l0 30.425194l-34.897644 0z" fill-rule="evenodd"/><path fill="#ffffff" d="m687.7512 79.407906l34.897644 0l0 30.425194l-34.897644 0z" fill-rule="evenodd"/><path stroke="#000000" stroke-width="1.0" stroke-linejoin="round" stroke-linecap="butt" d="m687.7512 79.407906l34.897644 0l0 30.425194l-34.897644 0z" fill-rule="evenodd"/><path fill="#ffffff" d="m687.7512 109.8331l34.897644 0l0 30.425201l-34.897644 0z" fill-rule="evenodd"/><path stroke="#000000" stroke-width="1.0" stroke-linejoin="round" stroke-linecap="butt" d="m687.7512 109.8331l34.897644 0l0 30.425201l-34.897644 0z" fill-rule="evenodd"/><path fill="#ffffff" d="m687.7512 140.2583l34.897644 0l0 30.425201l-34.897644 0z" fill-rule="evenodd"/><path stroke="#000000" stroke-width="1.0" stroke-linejoin="round" stroke-linecap="butt" d="m687.7512 140.2583l34.897644 0l0 30.425201l-34.897644 0z" fill-rule="evenodd"/><path fill="#ffffff" d="m617.956 170.6835l34.897644 0l0 30.425186l-34.897644 0z" fill-rule="evenodd"/><path stroke="#000000" stroke-width="1.0" stroke-linejoin="round" stroke-linecap="butt" d="m617.956 170.6835l34.897644 0l0 30.425186l-34.897644 0z" fill-rule="evenodd"/><path fill="#ffffff" d="m652.85364 170.6835l34.897583 0l0 30.425186l-34.897583 0z" fill-rule="evenodd"/><path stroke="#000000" stroke-width="1.0" stroke-linejoin="round" stroke-linecap="butt" d="m652.85364 170.6835l34.897583 0l0 30.425186l-34.897583 0z" fill-rule="evenodd"/><path fill="#ffffff" d="m583.05835 170.6835l34.897644 0l0 30.425186l-34.897644 0z" fill-rule="evenodd"/><path stroke="#000000" stroke-width="1.0" stroke-linejoin="round" stroke-linecap="butt" d="m583.05835 170.6835l34.897644 0l0 30.425186l-34.897644 0z" fill-rule="evenodd"/><path fill="#ffffff" d="m687.7512 170.6835l34.897644 0l0 30.425186l-34.897644 0z" fill-rule="evenodd"/><path stroke="#000000" stroke-width="1.0" stroke-linejoin="round" stroke-linecap="butt" d="m687.7512 170.6835l34.897644 0l0 30.425186l-34.897644 0z" fill-rule="evenodd"/><path fill="#ffffff" d="m569.3313 121.51289l34.897644 0l0 30.425201l-34.897644 0z" fill-rule="evenodd"/><path stroke="#000000" stroke-width="1.0" stroke-linejoin="round" stroke-linecap="butt" d="m569.3313 121.51289l34.897644 0l0 30.425201l-34.897644 0z" fill-rule="evenodd"/><path fill="#ffffff" d="m569.3313 151.9381l34.897644 0l0 30.425186l-34.897644 0z" fill-rule="evenodd"/><path stroke="#000000" stroke-width="1.0" stroke-linejoin="round" stroke-linecap="butt" d="m569.3313 151.9381l34.897644 0l0 30.425186l-34.897644 0z" fill-rule="evenodd"/><path fill="#ffffff" d="m604.22894 91.08769l34.897644 0l0 30.425201l-34.897644 0z" fill-rule="evenodd"/><path stroke="#000000" stroke-width="1.0" stroke-linejoin="round" stroke-linecap="butt" d="m604.22894 91.08769l34.897644 0l0 30.425201l-34.897644 0z" fill-rule="evenodd"/><path fill="#ffffff" d="m604.22894 121.51289l34.897644 0l0 30.425201l-34.897644 0z" fill-rule="evenodd"/><path stroke="#000000" stroke-width="1.0" stroke-linejoin="round" stroke-linecap="butt" d="m604.22894 121.51289l34.897644 0l0 30.425201l-34.897644 0z" fill-rule="evenodd"/><path fill="#ffffff" d="m604.22894 151.9381l34.897644 0l0 30.425186l-34.897644 0z" fill-rule="evenodd"/><path stroke="#000000" stroke-width="1.0" stroke-linejoin="round" stroke-linecap="butt" d="m604.22894 151.9381l34.897644 0l0 30.425186l-34.897644 0z" fill-rule="evenodd"/><path fill="#ffffff" d="m639.1266 91.08769l34.897644 0l0 30.425201l-34.897644 0z" fill-rule="evenodd"/><path stroke="#000000" stroke-width="1.0" stroke-linejoin="round" stroke-linecap="butt" d="m639.1266 91.08769l34.897644 0l0 30.425201l-34.897644 0z" fill-rule="evenodd"/><path fill="#ffffff" d="m639.1266 121.51289l34.897644 0l0 30.425201l-34.897644 0z" fill-rule="evenodd"/><path stroke="#000000" stroke-width="1.0" stroke-linejoin="round" stroke-linecap="butt" d="m639.1266 121.51289l34.897644 0l0 30.425201l-34.897644 0z" fill-rule="evenodd"/><path fill="#ffffff" d="m639.1266 151.9381l34.897644 0l0 30.425186l-34.897644 0z" fill-rule="evenodd"/><path stroke="#000000" stroke-width="1.0" stroke-linejoin="round" stroke-linecap="butt" d="m639.1266 151.9381l34.897644 0l0 30.425186l-34.897644 0z" fill-rule="evenodd"/><path fill="#ffffff" d="m569.3313 91.08769l34.897644 0l0 30.425201l-34.897644 0z" fill-rule="evenodd"/><path stroke="#000000" stroke-width="1.0" stroke-linejoin="round" stroke-linecap="butt" d="m569.3313 91.08769l34.897644 0l0 30.425201l-34.897644 0z" fill-rule="evenodd"/><path fill="#ffffff" d="m674.02423 91.08769l34.897644 0l0 30.425201l-34.897644 0z" fill-rule="evenodd"/><path stroke="#000000" stroke-width="1.0" stroke-linejoin="round" stroke-linecap="butt" d="m674.02423 91.08769l34.897644 0l0 30.425201l-34.897644 0z" fill-rule="evenodd"/><path fill="#ffffff" d="m674.02423 121.51289l34.897644 0l0 30.425201l-34.897644 0z" fill-rule="evenodd"/><path stroke="#000000" stroke-width="1.0" stroke-linejoin="round" stroke-linecap="butt" d="m674.02423 121.51289l34.897644 0l0 30.425201l-34.897644 0z" fill-rule="evenodd"/><path fill="#ffffff" d="m674.02423 151.9381l34.897644 0l0 30.425186l-34.897644 0z" fill-rule="evenodd"/><path stroke="#000000" stroke-width="1.0" stroke-linejoin="round" stroke-linecap="butt" d="m674.02423 151.9381l34.897644 0l0 30.425186l-34.897644 0z" fill-rule="evenodd"/><path fill="#ffffff" d="m604.22894 182.36328l34.897644 0l0 30.425201l-34.897644 0z" fill-rule="evenodd"/><path stroke="#000000" stroke-width="1.0" stroke-linejoin="round" stroke-linecap="butt" d="m604.22894 182.36328l34.897644 0l0 30.425201l-34.897644 0z" fill-rule="evenodd"/><path fill="#ffffff" d="m639.1266 182.36328l34.897644 0l0 30.425201l-34.897644 0z" fill-rule="evenodd"/><path stroke="#000000" stroke-width="1.0" stroke-linejoin="round" stroke-linecap="butt" d="m639.1266 182.36328l34.897644 0l0 30.425201l-34.897644 0z" fill-rule="evenodd"/><path fill="#ffffff" d="m569.3313 182.36328l34.897644 0l0 30.425201l-34.897644 0z" fill-rule="evenodd"/><path stroke="#000000" stroke-width="1.0" stroke-linejoin="round" stroke-linecap="butt" d="m569.3313 182.36328l34.897644 0l0 30.425201l-34.897644 0z" fill-rule="evenodd"/><path fill="#ffffff" d="m674.02423 182.36328l34.897644 0l0 30.425201l-34.897644 0z" fill-rule="evenodd"/><path stroke="#000000" stroke-width="1.0" stroke-linejoin="round" stroke-linecap="butt" d="m674.02423 182.36328l34.897644 0l0 30.425201l-34.897644 0z" fill-rule="evenodd"/><path fill="#ffffff" d="m550.8956 134.93547l34.897644 0l0 30.425186l-34.897644 0z" fill-rule="evenodd"/><path stroke="#000000" stroke-width="1.0" stroke-linejoin="round" stroke-linecap="butt" d="m550.8956 134.93547l34.897644 0l0 30.425186l-34.897644 0z" fill-rule="evenodd"/><path fill="#ffffff" d="m550.8956 165.36066l34.897644 0l0 30.425201l-34.897644 0z" fill-rule="evenodd"/><path stroke="#000000" stroke-width="1.0" stroke-linejoin="round" stroke-linecap="butt" d="m550.8956 165.36066l34.897644 0l0 30.425201l-34.897644 0z" fill-rule="evenodd"/><path fill="#ffffff" d="m585.7933 104.51027l34.897583 0l0 30.425201l-34.897583 0z" fill-rule="evenodd"/><path stroke="#000000" stroke-width="1.0" stroke-linejoin="round" stroke-linecap="butt" d="m585.7933 104.51027l34.897583 0l0 30.425201l-34.897583 0z" fill-rule="evenodd"/><path fill="#ffffff" d="m585.7933 134.93547l34.897583 0l0 30.425186l-34.897583 0z" fill-rule="evenodd"/><path stroke="#000000" stroke-width="1.0" stroke-linejoin="round" stroke-linecap="butt" d="m585.7933 134.93547l34.897583 0l0 30.425186l-34.897583 0z" fill-rule="evenodd"/><path fill="#ffffff" d="m585.7933 165.36066l34.897583 0l0 30.425201l-34.897583 0z" fill-rule="evenodd"/><path stroke="#000000" stroke-width="1.0" stroke-linejoin="round" stroke-linecap="butt" d="m585.7933 165.36066l34.897583 0l0 30.425201l-34.897583 0z" fill-rule="evenodd"/><path fill="#ffffff" d="m620.69086 104.51027l34.897644 0l0 30.425201l-34.897644 0z" fill-rule="evenodd"/><path stroke="#000000" stroke-width="1.0" stroke-linejoin="round" stroke-linecap="butt" d="m620.69086 104.51027l34.897644 0l0 30.425201l-34.897644 0z" fill-rule="evenodd"/><path fill="#ffffff" d="m620.69086 134.93547l34.897644 0l0 30.425186l-34.897644 0z" fill-rule="evenodd"/><path stroke="#000000" stroke-width="1.0" stroke-linejoin="round" stroke-linecap="butt" d="m620.69086 134.93547l34.897644 0l0 30.425186l-34.897644 0z" fill-rule="evenodd"/><path fill="#ffffff" d="m620.69086 165.36066l34.897644 0l0 30.425201l-34.897644 0z" fill-rule="evenodd"/><path stroke="#000000" stroke-width="1.0" stroke-linejoin="round" stroke-linecap="butt" d="m620.69086 165.36066l34.897644 0l0 30.425201l-34.897644 0z" fill-rule="evenodd"/><path fill="#ffffff" d="m550.8956 104.51027l34.897644 0l0 30.425201l-34.897644 0z" fill-rule="evenodd"/><path stroke="#000000" stroke-width="1.0" stroke-linejoin="round" stroke-linecap="butt" d="m550.8956 104.51027l34.897644 0l0 30.425201l-34.897644 0z" fill-rule="evenodd"/><path fill="#ffffff" d="m655.5885 104.51027l34.897644 0l0 30.425201l-34.897644 0z" fill-rule="evenodd"/><path stroke="#000000" stroke-width="1.0" stroke-linejoin="round" stroke-linecap="butt" d="m655.5885 104.51027l34.897644 0l0 30.425201l-34.897644 0z" fill-rule="evenodd"/><path fill="#ffffff" d="m655.5885 134.93547l34.897644 0l0 30.425186l-34.897644 0z" fill-rule="evenodd"/><path stroke="#000000" stroke-width="1.0" stroke-linejoin="round" stroke-linecap="butt" d="m655.5885 134.93547l34.897644 0l0 30.425186l-34.897644 0z" fill-rule="evenodd"/><path fill="#ffffff" d="m655.5885 165.36066l34.897644 0l0 30.425201l-34.897644 0z" fill-rule="evenodd"/><path stroke="#000000" stroke-width="1.0" stroke-linejoin="round" stroke-linecap="butt" d="m655.5885 165.36066l34.897644 0l0 30.425201l-34.897644 0z" fill-rule="evenodd"/><path fill="#ffffff" d="m585.7933 195.78586l34.897583 0l0 30.425201l-34.897583 0z" fill-rule="evenodd"/><path stroke="#000000" stroke-width="1.0" stroke-linejoin="round" stroke-linecap="butt" d="m585.7933 195.78586l34.897583 0l0 30.425201l-34.897583 0z" fill-rule="evenodd"/><path fill="#ffffff" d="m620.69086 195.78586l34.897644 0l0 30.425201l-34.897644 0z" fill-rule="evenodd"/><path stroke="#000000" stroke-width="1.0" stroke-linejoin="round" stroke-linecap="butt" d="m620.69086 195.78586l34.897644 0l0 30.425201l-34.897644 0z" fill-rule="evenodd"/><path fill="#ffffff" d="m550.8956 195.78586l34.897644 0l0 30.425201l-34.897644 0z" fill-rule="evenodd"/><path stroke="#000000" stroke-width="1.0" stroke-linejoin="round" stroke-linecap="butt" d="m550.8956 195.78586l34.897644 0l0 30.425201l-34.897644 0z" fill-rule="evenodd"/><path fill="#ffffff" d="m655.5885 195.78586l34.897644 0l0 30.425201l-34.897644 0z" fill-rule="evenodd"/><path stroke="#000000" stroke-width="1.0" stroke-linejoin="round" stroke-linecap="butt" d="m655.5885 195.78586l34.897644 0l0 30.425201l-34.897644 0z" fill-rule="evenodd"/><path fill="#ffffff" d="m534.0085 148.26355l34.897644 0l0 30.425201l-34.897644 0z" fill-rule="evenodd"/><path stroke="#000000" stroke-width="1.0" stroke-linejoin="round" stroke-linecap="butt" d="m534.0085 148.26355l34.897644 0l0 30.425201l-34.897644 0z" fill-rule="evenodd"/><path fill="#ffffff" d="m534.0085 178.68875l34.897644 0l0 30.425186l-34.897644 0z" fill-rule="evenodd"/><path stroke="#000000" stroke-width="1.0" stroke-linejoin="round" stroke-linecap="butt" d="m534.0085 178.68875l34.897644 0l0 30.425186l-34.897644 0z" fill-rule="evenodd"/><path fill="#ffffff" d="m568.9061 117.83835l34.897644 0l0 30.425201l-34.897644 0z" fill-rule="evenodd"/><path stroke="#000000" stroke-width="1.0" stroke-linejoin="round" stroke-linecap="butt" d="m568.9061 117.83835l34.897644 0l0 30.425201l-34.897644 0z" fill-rule="evenodd"/><path fill="#ffffff" d="m568.9061 148.26355l34.897644 0l0 30.425201l-34.897644 0z" fill-rule="evenodd"/><path stroke="#000000" stroke-width="1.0" stroke-linejoin="round" stroke-linecap="butt" d="m568.9061 148.26355l34.897644 0l0 30.425201l-34.897644 0z" fill-rule="evenodd"/><path fill="#ffffff" d="m568.9061 178.68875l34.897644 0l0 30.425186l-34.897644 0z" fill-rule="evenodd"/><path stroke="#000000" stroke-width="1.0" stroke-linejoin="round" stroke-linecap="butt" d="m568.9061 178.68875l34.897644 0l0 30.425186l-34.897644 0z" fill-rule="evenodd"/><path fill="#ffffff" d="m603.8038 117.83835l34.897583 0l0 30.425201l-34.897583 0z" fill-rule="evenodd"/><path stroke="#000000" stroke-width="1.0" stroke-linejoin="round" stroke-linecap="butt" d="m603.8038 117.83835l34.897583 0l0 30.425201l-34.897583 0z" fill-rule="evenodd"/><path fill="#ffffff" d="m603.8038 148.26355l34.897583 0l0 30.425201l-34.897583 0z" fill-rule="evenodd"/><path stroke="#000000" stroke-width="1.0" stroke-linejoin="round" stroke-linecap="butt" d="m603.8038 148.26355l34.897583 0l0 30.425201l-34.897583 0z" fill-rule="evenodd"/><path fill="#ffffff" d="m603.8038 178.68875l34.897583 0l0 30.425186l-34.897583 0z" fill-rule="evenodd"/><path stroke="#000000" stroke-width="1.0" stroke-linejoin="round" stroke-linecap="butt" d="m603.8038 178.68875l34.897583 0l0 30.425186l-34.897583 0z" fill-rule="evenodd"/><path fill="#ffffff" d="m534.0085 117.83835l34.897644 0l0 30.425201l-34.897644 0z" fill-rule="evenodd"/><path stroke="#000000" stroke-width="1.0" stroke-linejoin="round" stroke-linecap="butt" d="m534.0085 117.83835l34.897644 0l0 30.425201l-34.897644 0z" fill-rule="evenodd"/><path fill="#ffffff" d="m638.70135 117.83835l34.897644 0l0 30.425201l-34.897644 0z" fill-rule="evenodd"/><path stroke="#000000" stroke-width="1.0" stroke-linejoin="round" stroke-linecap="butt" d="m638.70135 117.83835l34.897644 0l0 30.425201l-34.897644 0z" fill-rule="evenodd"/><path fill="#ffffff" d="m638.70135 148.26355l34.897644 0l0 30.425201l-34.897644 0z" fill-rule="evenodd"/><path stroke="#000000" stroke-width="1.0" stroke-linejoin="round" stroke-linecap="butt" d="m638.70135 148.26355l34.897644 0l0 30.425201l-34.897644 0z" fill-rule="evenodd"/><path fill="#ffffff" d="m638.70135 178.68875l34.897644 0l0 30.425186l-34.897644 0z" fill-rule="evenodd"/><path stroke="#000000" stroke-width="1.0" stroke-linejoin="round" stroke-linecap="butt" d="m638.70135 178.68875l34.897644 0l0 30.425186l-34.897644 0z" fill-rule="evenodd"/><path fill="#ffffff" d="m568.9061 209.11394l34.897644 0l0 30.425201l-34.897644 0z" fill-rule="evenodd"/><path stroke="#000000" stroke-width="1.0" stroke-linejoin="round" stroke-linecap="butt" d="m568.9061 209.11394l34.897644 0l0 30.425201l-34.897644 0z" fill-rule="evenodd"/><path fill="#ffffff" d="m603.8038 209.11394l34.897583 0l0 30.425201l-34.897583 0z" fill-rule="evenodd"/><path stroke="#000000" stroke-width="1.0" stroke-linejoin="round" stroke-linecap="butt" d="m603.8038 209.11394l34.897583 0l0 30.425201l-34.897583 0z" fill-rule="evenodd"/><path fill="#ffffff" d="m534.0085 209.11394l34.897644 0l0 30.425201l-34.897644 0z" fill-rule="evenodd"/><path stroke="#000000" stroke-width="1.0" stroke-linejoin="round" stroke-linecap="butt" d="m534.0085 209.11394l34.897644 0l0 30.425201l-34.897644 0z" fill-rule="evenodd"/><path fill="#ffffff" d="m638.70135 209.11394l34.897644 0l0 30.425201l-34.897644 0z" fill-rule="evenodd"/><path stroke="#000000" stroke-width="1.0" stroke-linejoin="round" stroke-linecap="butt" d="m638.70135 209.11394l34.897644 0l0 30.425201l-34.897644 0z" fill-rule="evenodd"/><path fill="#000000" d="m345.12335 142.86876l111.74805 0l0 -11.007874l22.015747 22.015762l-22.015747 22.015747l0 -11.007874l-111.74805 0z" fill-rule="evenodd"/><path stroke="#000000" stroke-width="1.0" stroke-linejoin="round" stroke-linecap="butt" d="m345.12335 142.86876l111.74805 0l0 -11.007874l22.015747 22.015762l-22.015747 22.015747l0 -11.007874l-111.74805 0z" fill-rule="evenodd"/><path fill="#000000" fill-opacity="0.0" d="m331.3281 74.18898l147.55905 0l0 49.984245l-147.55905 0z" fill-rule="evenodd"/><path fill="#000000" d="m356.14862 102.51023l2.09375 -0.328125q0.171875 1.25 0.96875 1.921875q0.8125 0.671875 2.25 0.671875q1.453125 0 2.15625 -0.59375q0.703125 -0.59375 0.703125 -1.390625q0 -0.71875 -0.625 -1.125q-0.421875 -0.28125 -2.15625 -0.71875q-2.3125 -0.578125 -3.21875 -1.0q-0.890625 -0.4375 -1.359375 -1.1875q-0.453125 -0.765625 -0.453125 -1.671875q0 -0.828125 0.375 -1.53125q0.390625 -0.71875 1.046875 -1.1875q0.484375 -0.359375 1.328125 -0.609375q0.859375 -0.265625 1.828125 -0.265625q1.46875 0 2.578125 0.421875q1.109375 0.421875 1.625 1.15625q0.53125 0.71875 0.734375 1.921875l-2.0625 0.28125q-0.140625 -0.96875 -0.8125 -1.5q-0.671875 -0.546875 -1.90625 -0.546875q-1.453125 0 -2.078125 0.484375q-0.625 0.484375 -0.625 1.125q0 0.40625 0.265625 0.734375q0.25 0.34375 0.8125 0.5625q0.3125 0.125 1.859375 0.546875q2.234375 0.59375 3.109375 0.984375q0.890625 0.375 1.390625 1.109375q0.515625 0.71875 0.515625 1.796875q0 1.046875 -0.625 1.984375q-0.609375 0.9375 -1.765625 1.453125q-1.15625 0.5 -2.625 0.5q-2.421875 0 -3.703125 -1.0q-1.265625 -1.015625 -1.625 -3.0zm17.453125 1.828125l0.3125 1.859375q-0.890625 0.203125 -1.59375 0.203125q-1.15625 0 -1.796875 -0.359375q-0.625 -0.375 -0.890625 -0.96875q-0.25 -0.59375 -0.25 -2.484375l0 -7.171875l-1.546875 0l0 -1.640625l1.546875 0l0 -3.078125l2.09375 -1.265625l0 4.34375l2.125 0l0 1.640625l-2.125 0l0 7.28125q0 0.90625 0.109375 1.171875q0.125 0.25 0.375 0.40625q0.25 0.140625 0.71875 0.140625q0.34375 0 0.921875 -0.078125zm2.0429688 1.890625l0 -12.453125l1.890625 0l0 1.890625q0.734375 -1.328125 1.34375 -1.75q0.625 -0.421875 1.359375 -0.421875q1.0625 0 2.171875 0.6875l-0.734375 1.953125q-0.765625 -0.453125 -1.546875 -0.453125q-0.6875 0 -1.25 0.421875q-0.546875 0.40625 -0.78125 1.140625q-0.34375 1.125 -0.34375 2.46875l0 6.515625l-2.109375 0zm8.0234375 -14.75l0 -2.4375l2.109375 0l0 2.4375l-2.109375 0zm0 14.75l0 -12.453125l2.109375 0l0 12.453125l-2.109375 0zm13.394531 0l0 -1.578125q-1.1875 1.859375 -3.484375 1.859375q-1.484375 0 -2.734375 -0.8125q-1.25 -0.828125 -1.9375 -2.296875q-0.671875 -1.46875 -0.671875 -3.390625q0 -1.859375 0.609375 -3.375q0.625 -1.515625 1.859375 -2.328125q1.25 -0.8125 2.78125 -0.8125q1.125 0 2.0 0.484375q0.890625 0.46875 1.4375 1.234375l0 -6.171875l2.09375 0l0 17.1875l-1.953125 0zm-6.671875 -6.21875q0 2.390625 1.0 3.578125q1.015625 1.1875 2.390625 1.1875q1.390625 0 2.34375 -1.125q0.96875 -1.140625 0.96875 -3.453125q0 -2.5625 -0.984375 -3.75q-0.984375 -1.203125 -2.421875 -1.203125q-1.40625 0 -2.359375 1.15625q-0.9375 1.140625 -0.9375 3.609375zm20.472656 2.203125l2.171875 0.28125q-0.515625 1.90625 -1.90625 2.96875q-1.390625 1.046875 -3.5625 1.046875q-2.734375 0 -4.34375 -1.671875q-1.59375 -1.6875 -1.59375 -4.734375q0 -3.140625 1.609375 -4.875q1.625 -1.734375 4.203125 -1.734375q2.5 0 4.078125 1.703125q1.59375 1.703125 1.59375 4.78125q0 0.1875 -0.015625 0.5625l-9.28125 0q0.109375 2.046875 1.15625 3.140625q1.046875 1.09375 2.609375 1.09375q1.15625 0 1.96875 -0.609375q0.828125 -0.609375 1.3125 -1.953125zm-6.9375 -3.40625l6.953125 0q-0.140625 -1.5625 -0.796875 -2.359375q-1.0 -1.21875 -2.609375 -1.21875q-1.453125 0 -2.453125 0.984375q-0.984375 0.96875 -1.09375 2.59375zm29.53125 -2.6875l-11.34375 0l0 -1.96875l11.34375 0l0 1.96875zm0 5.21875l-11.34375 0l0 -1.96875l11.34375 0l0 1.96875zm16.933594 4.890625l-2.109375 0l0 -13.4375q-0.75 0.71875 -2.0 1.453125q-1.234375 0.71875 -2.21875 1.078125l0 -2.03125q1.78125 -0.828125 3.09375 -2.015625q1.328125 -1.1875 1.875 -2.296875l1.359375 0l0 17.25z" fill-rule="nonzero"/><path fill="#000000" fill-opacity="0.0" d="m72.5958 80.93479l0 0c0 -11.309738 9.168358 -20.4781 20.478096 -20.4781l81.90994 0l0 0c5.431137 0 10.639816 2.1575089 14.480209 5.997898c3.8403778 3.8403854 5.9978943 9.049072 5.9978943 14.480202l0 82.823326c0 11.309738 -9.1683655 20.478104 -20.478104 20.478104l-81.90994 0l0 0c-11.309738 0 -20.478096 -9.1683655 -20.478096 -20.478104z" fill-rule="evenodd"/><path stroke="#ff0000" stroke-width="4.0" stroke-linejoin="round" stroke-linecap="butt" d="m72.5958 80.93479l0 0c0 -11.309738 9.168358 -20.4781 20.478096 -20.4781l81.90994 0l0 0c5.431137 0 10.639816 2.1575089 14.480209 5.997898c3.8403778 3.8403854 5.9978943 9.049072 5.9978943 14.480202l0 82.823326c0 11.309738 -9.1683655 20.478104 -20.478104 20.478104l-81.90994 0l0 0c-11.309738 0 -20.478096 -9.1683655 -20.478096 -20.478104z" fill-rule="evenodd"/><path fill="#000000" fill-opacity="0.0" d="m107.2336 80.93479l0 0c0 -11.309738 9.168358 -20.4781 20.478096 -20.4781l81.90995 0l0 0c5.431122 0 10.639816 2.1575089 14.480194 5.997898c3.840393 3.8403854 5.9978943 9.049072 5.9978943 14.480202l0 82.823326c0 11.309738 -9.16835 20.478104 -20.478088 20.478104l-81.90995 0l0 0c-11.309738 0 -20.478096 -9.1683655 -20.478096 -20.478104z" fill-rule="evenodd"/><path stroke="#ff0000" stroke-width="4.0" stroke-linejoin="round" stroke-linecap="butt" d="m107.2336 80.93479l0 0c0 -11.309738 9.168358 -20.4781 20.478096 -20.4781l81.90995 0l0 0c5.431122 0 10.639816 2.1575089 14.480194 5.997898c3.840393 3.8403854 5.9978943 9.049072 5.9978943 14.480202l0 82.823326c0 11.309738 -9.16835 20.478104 -20.478088 20.478104l-81.90995 0l0 0c-11.309738 0 -20.478096 -9.1683655 -20.478096 -20.478104z" fill-rule="evenodd"/><path fill="#ffffff" d="m80.654854 335.34753l34.897636 0l0 30.425201l-34.897636 0z" fill-rule="evenodd"/><path stroke="#000000" stroke-width="1.0" stroke-linejoin="round" stroke-linecap="butt" d="m80.654854 335.34753l34.897636 0l0 30.425201l-34.897636 0z" fill-rule="evenodd"/><path fill="#ffffff" d="m80.654854 365.75214l34.897636 0l0 30.425201l-34.897636 0z" fill-rule="evenodd"/><path stroke="#000000" stroke-width="1.0" stroke-linejoin="round" stroke-linecap="butt" d="m80.654854 365.75214l34.897636 0l0 30.425201l-34.897636 0z" fill-rule="evenodd"/><path fill="#ffffff" d="m115.543045 335.34753l34.897644 0l0 30.425201l-34.897644 0z" fill-rule="evenodd"/><path stroke="#000000" stroke-width="1.0" stroke-linejoin="round" stroke-linecap="butt" d="m115.543045 335.34753l34.897644 0l0 30.425201l-34.897644 0z" fill-rule="evenodd"/><path fill="#ffffff" d="m115.543045 365.75214l34.897644 0l0 30.425201l-34.897644 0z" fill-rule="evenodd"/><path stroke="#000000" stroke-width="1.0" stroke-linejoin="round" stroke-linecap="butt" d="m115.543045 365.75214l34.897644 0l0 30.425201l-34.897644 0z" fill-rule="evenodd"/><path fill="#ffffff" d="m185.3292 365.75214l34.897644 0l0 30.425201l-34.897644 0z" fill-rule="evenodd"/><path stroke="#000000" stroke-width="1.0" stroke-linejoin="round" stroke-linecap="butt" d="m185.3292 365.75214l34.897644 0l0 30.425201l-34.897644 0z" fill-rule="evenodd"/><path fill="#ffffff" d="m185.3292 396.15677l34.897644 0l0 30.425201l-34.897644 0z" fill-rule="evenodd"/><path stroke="#000000" stroke-width="1.0" stroke-linejoin="round" stroke-linecap="butt" d="m185.3292 396.15677l34.897644 0l0 30.425201l-34.897644 0z" fill-rule="evenodd"/><path fill="#ffffff" d="m220.21739 335.34753l34.89763 0l0 30.425201l-34.89763 0z" fill-rule="evenodd"/><path stroke="#000000" stroke-width="1.0" stroke-linejoin="round" stroke-linecap="butt" d="m220.21739 335.34753l34.89763 0l0 30.425201l-34.89763 0z" fill-rule="evenodd"/><path fill="#ffffff" d="m220.21739 365.75214l34.89763 0l0 30.425201l-34.89763 0z" fill-rule="evenodd"/><path stroke="#000000" stroke-width="1.0" stroke-linejoin="round" stroke-linecap="butt" d="m220.21739 365.75214l34.89763 0l0 30.425201l-34.89763 0z" fill-rule="evenodd"/><path fill="#ffffff" d="m220.21739 396.15677l34.89763 0l0 30.425201l-34.89763 0z" fill-rule="evenodd"/><path stroke="#000000" stroke-width="1.0" stroke-linejoin="round" stroke-linecap="butt" d="m220.21739 396.15677l34.89763 0l0 30.425201l-34.89763 0z" fill-rule="evenodd"/><path fill="#ffffff" d="m255.10558 335.34753l34.89763 0l0 30.425201l-34.89763 0z" fill-rule="evenodd"/><path stroke="#000000" stroke-width="1.0" stroke-linejoin="round" stroke-linecap="butt" d="m255.10558 335.34753l34.89763 0l0 30.425201l-34.89763 0z" fill-rule="evenodd"/><path fill="#ffffff" d="m255.10558 365.75214l34.89763 0l0 30.425201l-34.89763 0z" fill-rule="evenodd"/><path stroke="#000000" stroke-width="1.0" stroke-linejoin="round" stroke-linecap="butt" d="m255.10558 365.75214l34.89763 0l0 30.425201l-34.89763 0z" fill-rule="evenodd"/><path fill="#ffffff" d="m255.10558 396.15677l34.89763 0l0 30.425201l-34.89763 0z" fill-rule="evenodd"/><path stroke="#000000" stroke-width="1.0" stroke-linejoin="round" stroke-linecap="butt" d="m255.10558 396.15677l34.89763 0l0 30.425201l-34.89763 0z" fill-rule="evenodd"/><path fill="#ffffff" d="m80.65351 426.58292l34.897636 0l0 30.425201l-34.897636 0z" fill-rule="evenodd"/><path stroke="#000000" stroke-width="1.0" stroke-linejoin="round" stroke-linecap="butt" d="m80.65351 426.58292l34.897636 0l0 30.425201l-34.897636 0z" fill-rule="evenodd"/><path fill="#ffffff" d="m80.65351 456.98752l34.897636 0l0 30.425201l-34.897636 0z" fill-rule="evenodd"/><path stroke="#000000" stroke-width="1.0" stroke-linejoin="round" stroke-linecap="butt" d="m80.65351 456.98752l34.897636 0l0 30.425201l-34.897636 0z" fill-rule="evenodd"/><path fill="#ffffff" d="m80.65351 487.39212l34.897636 0l0 30.425201l-34.897636 0z" fill-rule="evenodd"/><path stroke="#000000" stroke-width="1.0" stroke-linejoin="round" stroke-linecap="butt" d="m80.65351 487.39212l34.897636 0l0 30.425201l-34.897636 0z" fill-rule="evenodd"/><path fill="#ffffff" d="m115.54171 426.58292l34.897636 0l0 30.425201l-34.897636 0z" fill-rule="evenodd"/><path stroke="#000000" stroke-width="1.0" stroke-linejoin="round" stroke-linecap="butt" d="m115.54171 426.58292l34.897636 0l0 30.425201l-34.897636 0z" fill-rule="evenodd"/><path fill="#ffffff" d="m115.54171 456.98752l34.897636 0l0 30.425201l-34.897636 0z" fill-rule="evenodd"/><path stroke="#000000" stroke-width="1.0" stroke-linejoin="round" stroke-linecap="butt" d="m115.54171 456.98752l34.897636 0l0 30.425201l-34.897636 0z" fill-rule="evenodd"/><path fill="#ffffff" d="m115.54171 487.39212l34.897636 0l0 30.425201l-34.897636 0z" fill-rule="evenodd"/><path stroke="#000000" stroke-width="1.0" stroke-linejoin="round" stroke-linecap="butt" d="m115.54171 487.39212l34.897636 0l0 30.425201l-34.897636 0z" fill-rule="evenodd"/><path fill="#ffffff" d="m150.4299 426.58292l34.897644 0l0 30.425201l-34.897644 0z" fill-rule="evenodd"/><path stroke="#000000" stroke-width="1.0" stroke-linejoin="round" stroke-linecap="butt" d="m150.4299 426.58292l34.897644 0l0 30.425201l-34.897644 0z" fill-rule="evenodd"/><path fill="#ffffff" d="m150.4299 456.98752l34.897644 0l0 30.425201l-34.897644 0z" fill-rule="evenodd"/><path stroke="#000000" stroke-width="1.0" stroke-linejoin="round" stroke-linecap="butt" d="m150.4299 456.98752l34.897644 0l0 30.425201l-34.897644 0z" fill-rule="evenodd"/><path fill="#ffffff" d="m150.4299 487.39212l34.897644 0l0 30.425201l-34.897644 0z" fill-rule="evenodd"/><path stroke="#000000" stroke-width="1.0" stroke-linejoin="round" stroke-linecap="butt" d="m150.4299 487.39212l34.897644 0l0 30.425201l-34.897644 0z" fill-rule="evenodd"/><path fill="#ffffff" d="m185.32785 426.58292l34.897644 0l0 30.425201l-34.897644 0z" fill-rule="evenodd"/><path stroke="#000000" stroke-width="1.0" stroke-linejoin="round" stroke-linecap="butt" d="m185.32785 426.58292l34.897644 0l0 30.425201l-34.897644 0z" fill-rule="evenodd"/><path fill="#ffffff" d="m185.32785 456.98752l34.897644 0l0 30.425201l-34.897644 0z" fill-rule="evenodd"/><path stroke="#000000" stroke-width="1.0" stroke-linejoin="round" stroke-linecap="butt" d="m185.32785 456.98752l34.897644 0l0 30.425201l-34.897644 0z" fill-rule="evenodd"/><path fill="#ffffff" d="m185.32785 487.39212l34.897644 0l0 30.425201l-34.897644 0z" fill-rule="evenodd"/><path stroke="#000000" stroke-width="1.0" stroke-linejoin="round" stroke-linecap="butt" d="m185.32785 487.39212l34.897644 0l0 30.425201l-34.897644 0z" fill-rule="evenodd"/><path fill="#ffffff" d="m220.21605 426.58292l34.89763 0l0 30.425201l-34.89763 0z" fill-rule="evenodd"/><path stroke="#000000" stroke-width="1.0" stroke-linejoin="round" stroke-linecap="butt" d="m220.21605 426.58292l34.89763 0l0 30.425201l-34.89763 0z" fill-rule="evenodd"/><path fill="#ffffff" d="m220.21605 456.98752l34.89763 0l0 30.425201l-34.89763 0z" fill-rule="evenodd"/><path stroke="#000000" stroke-width="1.0" stroke-linejoin="round" stroke-linecap="butt" d="m220.21605 456.98752l34.89763 0l0 30.425201l-34.89763 0z" fill-rule="evenodd"/><path fill="#ffffff" d="m220.21605 487.39212l34.89763 0l0 30.425201l-34.89763 0z" fill-rule="evenodd"/><path stroke="#000000" stroke-width="1.0" stroke-linejoin="round" stroke-linecap="butt" d="m220.21605 487.39212l34.89763 0l0 30.425201l-34.89763 0z" fill-rule="evenodd"/><path fill="#ffffff" d="m255.10425 426.58292l34.897644 0l0 30.425201l-34.897644 0z" fill-rule="evenodd"/><path stroke="#000000" stroke-width="1.0" stroke-linejoin="round" stroke-linecap="butt" d="m255.10425 426.58292l34.897644 0l0 30.425201l-34.897644 0z" fill-rule="evenodd"/><path fill="#ffffff" d="m255.10425 456.98752l34.897644 0l0 30.425201l-34.897644 0z" fill-rule="evenodd"/><path stroke="#000000" stroke-width="1.0" stroke-linejoin="round" stroke-linecap="butt" d="m255.10425 456.98752l34.897644 0l0 30.425201l-34.897644 0z" fill-rule="evenodd"/><path fill="#ffffff" d="m255.10425 487.39212l34.897644 0l0 30.425201l-34.897644 0z" fill-rule="evenodd"/><path stroke="#000000" stroke-width="1.0" stroke-linejoin="round" stroke-linecap="butt" d="m255.10425 487.39212l34.897644 0l0 30.425201l-34.897644 0z" fill-rule="evenodd"/><path fill="#ffffff" d="m150.43124 396.15677l34.89763 0l0 30.425201l-34.89763 0z" fill-rule="evenodd"/><path stroke="#000000" stroke-width="1.0" stroke-linejoin="round" stroke-linecap="butt" d="m150.43124 396.15677l34.89763 0l0 30.425201l-34.89763 0z" fill-rule="evenodd"/><path fill="#ffffff" d="m150.43124 365.75214l34.89763 0l0 30.425201l-34.89763 0z" fill-rule="evenodd"/><path stroke="#000000" stroke-width="1.0" stroke-linejoin="round" stroke-linecap="butt" d="m150.43124 365.75214l34.89763 0l0 30.425201l-34.89763 0z" fill-rule="evenodd"/><path fill="#ffffff" d="m150.43124 335.34753l34.89763 0l0 30.425201l-34.89763 0z" fill-rule="evenodd"/><path stroke="#000000" stroke-width="1.0" stroke-linejoin="round" stroke-linecap="butt" d="m150.43124 335.34753l34.89763 0l0 30.425201l-34.89763 0z" fill-rule="evenodd"/><path fill="#ffffff" d="m115.543045 396.15677l34.897644 0l0 30.425201l-34.897644 0z" fill-rule="evenodd"/><path stroke="#000000" stroke-width="1.0" stroke-linejoin="round" stroke-linecap="butt" d="m115.543045 396.15677l34.897644 0l0 30.425201l-34.897644 0z" fill-rule="evenodd"/><path fill="#ffffff" d="m80.654854 396.15677l34.897636 0l0 30.425201l-34.897636 0z" fill-rule="evenodd"/><path stroke="#000000" stroke-width="1.0" stroke-linejoin="round" stroke-linecap="butt" d="m80.654854 396.15677l34.897636 0l0 30.425201l-34.897636 0z" fill-rule="evenodd"/><path fill="#ffffff" d="m185.3292 335.34753l34.897644 0l0 30.425201l-34.897644 0z" fill-rule="evenodd"/><path stroke="#000000" stroke-width="1.0" stroke-linejoin="round" stroke-linecap="butt" d="m185.3292 335.34753l34.897644 0l0 30.425201l-34.897644 0z" fill-rule="evenodd"/><path fill="#000000" fill-opacity="0.0" d="m72.5958 342.0923l0 0c0 -11.309753 9.168358 -20.478119 20.478096 -20.478119l81.90994 0l0 0c5.431137 0 10.639816 2.1575012 14.480209 5.9978943c3.8403778 3.840393 5.9978943 9.049072 5.9978943 14.480225l0 82.8233c0 11.309753 -9.1683655 20.478119 -20.478104 20.478119l-81.90994 0l0 0c-11.309738 0 -20.478096 -9.1683655 -20.478096 -20.478119z" fill-rule="evenodd"/><path stroke="#ff0000" stroke-width="4.0" stroke-linejoin="round" stroke-linecap="butt" d="m72.5958 342.0923l0 0c0 -11.309753 9.168358 -20.478119 20.478096 -20.478119l81.90994 0l0 0c5.431137 0 10.639816 2.1575012 14.480209 5.9978943c3.8403778 3.840393 5.9978943 9.049072 5.9978943 14.480225l0 82.8233c0 11.309753 -9.1683655 20.478119 -20.478104 20.478119l-81.90994 0l0 0c-11.309738 0 -20.478096 -9.1683655 -20.478096 -20.478119z" fill-rule="evenodd"/><path fill="#000000" fill-opacity="0.0" d="m142.93439 342.0923l0 0c0 -11.309753 9.16835 -20.478119 20.478088 -20.478119l81.90994 0l0 0c5.431137 0 10.639816 2.1575012 14.480225 5.9978943c3.8403625 3.840393 5.9978943 9.049072 5.9978943 14.480225l0 82.8233c0 11.309753 -9.1683655 20.478119 -20.478119 20.478119l-81.90994 0l0 0c-11.309738 0 -20.478088 -9.1683655 -20.478088 -20.478119z" fill-rule="evenodd"/><path stroke="#ff0000" stroke-width="4.0" stroke-linejoin="round" stroke-linecap="butt" d="m142.93439 342.0923l0 0c0 -11.309753 9.16835 -20.478119 20.478088 -20.478119l81.90994 0l0 0c5.431137 0 10.639816 2.1575012 14.480225 5.9978943c3.8403625 3.840393 5.9978943 9.049072 5.9978943 14.480225l0 82.8233c0 11.309753 -9.1683655 20.478119 -20.478119 20.478119l-81.90994 0l0 0c-11.309738 0 -20.478088 -9.1683655 -20.478088 -20.478119z" fill-rule="evenodd"/><path fill="#ffffff" d="m593.431 405.27536l34.897644 0l0 30.425201l-34.897644 0z" fill-rule="evenodd"/><path stroke="#000000" stroke-width="1.0" stroke-linejoin="round" stroke-linecap="butt" d="m593.431 405.27536l34.897644 0l0 30.425201l-34.897644 0z" fill-rule="evenodd"/><path fill="#ffffff" d="m628.3287 374.85016l34.897644 0l0 30.425201l-34.897644 0z" fill-rule="evenodd"/><path stroke="#000000" stroke-width="1.0" stroke-linejoin="round" stroke-linecap="butt" d="m628.3287 374.85016l34.897644 0l0 30.425201l-34.897644 0z" fill-rule="evenodd"/><path fill="#ffffff" d="m628.3287 405.27536l34.897644 0l0 30.425201l-34.897644 0z" fill-rule="evenodd"/><path stroke="#000000" stroke-width="1.0" stroke-linejoin="round" stroke-linecap="butt" d="m628.3287 405.27536l34.897644 0l0 30.425201l-34.897644 0z" fill-rule="evenodd"/><path fill="#ffffff" d="m593.431 374.85016l34.897644 0l0 30.425201l-34.897644 0z" fill-rule="evenodd"/><path stroke="#000000" stroke-width="1.0" stroke-linejoin="round" stroke-linecap="butt" d="m593.431 374.85016l34.897644 0l0 30.425201l-34.897644 0z" fill-rule="evenodd"/><path fill="#000000" d="m358.91864 412.5866l111.74802 0l0 -11.007874l22.015747 22.015747l-22.015747 22.015747l0 -11.007874l-111.74802 0z" fill-rule="evenodd"/><path stroke="#000000" stroke-width="1.0" stroke-linejoin="round" stroke-linecap="butt" d="m358.91864 412.5866l111.74802 0l0 -11.007874l22.015747 22.015747l-22.015747 22.015747l0 -11.007874l-111.74802 0z" fill-rule="evenodd"/><path fill="#000000" fill-opacity="0.0" d="m345.12335 343.90683l147.55905 0l0 49.984253l-147.55905 0z" fill-rule="evenodd"/><path fill="#000000" d="m369.9439 372.2281l2.09375 -0.328125q0.171875 1.25 0.96875 1.921875q0.8125 0.671875 2.25 0.671875q1.453125 0 2.15625 -0.59375q0.703125 -0.59375 0.703125 -1.390625q0 -0.71875 -0.625 -1.125q-0.421875 -0.28125 -2.15625 -0.71875q-2.3125 -0.578125 -3.21875 -1.0q-0.890625 -0.4375 -1.359375 -1.1875q-0.453125 -0.765625 -0.453125 -1.671875q0 -0.828125 0.375 -1.53125q0.390625 -0.71875 1.046875 -1.1875q0.484375 -0.359375 1.328125 -0.609375q0.859375 -0.265625 1.828125 -0.265625q1.46875 0 2.578125 0.421875q1.109375 0.421875 1.625 1.15625q0.53125 0.71875 0.734375 1.921875l-2.0625 0.28125q-0.140625 -0.96875 -0.8125 -1.5q-0.671875 -0.546875 -1.90625 -0.546875q-1.453125 0 -2.078125 0.484375q-0.625 0.484375 -0.625 1.125q0 0.40625 0.265625 0.734375q0.25 0.34375 0.8125 0.5625q0.3125 0.125 1.859375 0.546875q2.234375 0.59375 3.109375 0.984375q0.890625 0.375 1.390625 1.109375q0.515625 0.71875 0.515625 1.796875q0 1.046875 -0.625 1.984375q-0.609375 0.9375 -1.765625 1.453125q-1.15625 0.5 -2.625 0.5q-2.421875 0 -3.703125 -1.0q-1.265625 -1.015625 -1.625 -3.0zm17.453125 1.828125l0.3125 1.859375q-0.890625 0.203125 -1.59375 0.203125q-1.15625 0 -1.796875 -0.359375q-0.625 -0.375 -0.890625 -0.96875q-0.25 -0.59375 -0.25 -2.484375l0 -7.171875l-1.546875 0l0 -1.640625l1.546875 0l0 -3.078125l2.09375 -1.265625l0 4.34375l2.125 0l0 1.640625l-2.125 0l0 7.28125q0 0.90625 0.109375 1.171875q0.125 0.25 0.375 0.40625q0.25 0.140625 0.71875 0.140625q0.34375 0 0.921875 -0.078125zm2.0429688 1.890625l0 -12.453125l1.890625 0l0 1.890625q0.734375 -1.328125 1.34375 -1.75q0.625 -0.421875 1.359375 -0.421875q1.0625 0 2.171875 0.6875l-0.734375 1.953125q-0.765625 -0.453125 -1.546875 -0.453125q-0.6875 0 -1.25 0.421875q-0.546875 0.40625 -0.78125 1.140625q-0.34375 1.125 -0.34375 2.46875l0 6.515625l-2.109375 0zm8.0234375 -14.75l0 -2.4375l2.109375 0l0 2.4375l-2.109375 0zm0 14.75l0 -12.453125l2.109375 0l0 12.453125l-2.109375 0zm13.394531 0l0 -1.578125q-1.1875 1.859375 -3.484375 1.859375q-1.484375 0 -2.734375 -0.8125q-1.25 -0.828125 -1.9375 -2.296875q-0.671875 -1.46875 -0.671875 -3.390625q0 -1.859375 0.609375 -3.375q0.625 -1.515625 1.859375 -2.328125q1.25 -0.8125 2.78125 -0.8125q1.125 0 2.0 0.484375q0.890625 0.46875 1.4375 1.234375l0 -6.171875l2.09375 0l0 17.1875l-1.953125 0zm-6.671875 -6.21875q0 2.390625 1.0 3.578125q1.015625 1.1875 2.390625 1.1875q1.390625 0 2.34375 -1.125q0.96875 -1.140625 0.96875 -3.453125q0 -2.5625 -0.984375 -3.75q-0.984375 -1.203125 -2.421875 -1.203125q-1.40625 0 -2.359375 1.15625q-0.9375 1.140625 -0.9375 3.609375zm20.472656 2.203125l2.171875 0.28125q-0.515625 1.90625 -1.90625 2.96875q-1.390625 1.046875 -3.5625 1.046875q-2.734375 0 -4.34375 -1.671875q-1.59375 -1.6875 -1.59375 -4.734375q0 -3.140625 1.609375 -4.875q1.625 -1.734375 4.203125 -1.734375q2.5 0 4.078125 1.703125q1.59375 1.703125 1.59375 4.78125q0 0.1875 -0.015625 0.5625l-9.28125 0q0.109375 2.046875 1.15625 3.140625q1.046875 1.09375 2.609375 1.09375q1.15625 0 1.96875 -0.609375q0.828125 -0.609375 1.3125 -1.953125zm-6.9375 -3.40625l6.953125 0q-0.140625 -1.5625 -0.796875 -2.359375q-1.0 -1.21875 -2.609375 -1.21875q-1.453125 0 -2.453125 0.984375q-0.984375 0.96875 -1.09375 2.59375zm29.53125 -2.6875l-11.34375 0l0 -1.96875l11.34375 0l0 1.96875zm0 5.21875l-11.34375 0l0 -1.96875l11.34375 0l0 1.96875zm20.074219 2.859375l0 2.03125l-11.34375 0q-0.03125 -0.765625 0.234375 -1.46875q0.4375 -1.15625 1.390625 -2.28125q0.953125 -1.125 2.765625 -2.609375q2.796875 -2.296875 3.78125 -3.625q0.984375 -1.34375 0.984375 -2.546875q0 -1.25 -0.90625 -2.109375q-0.890625 -0.859375 -2.328125 -0.859375q-1.515625 0 -2.4375 0.921875q-0.90625 0.90625 -0.921875 2.515625l-2.171875 -0.21875q0.21875 -2.421875 1.671875 -3.6875q1.453125 -1.28125 3.90625 -1.28125q2.46875 0 3.90625 1.375q1.453125 1.359375 1.453125 3.390625q0 1.03125 -0.421875 2.03125q-0.421875 1.0 -1.40625 2.109375q-0.96875 1.09375 -3.25 3.015625q-1.890625 1.59375 -2.4375 2.15625q-0.53125 0.5625 -0.890625 1.140625l8.421875 0z" fill-rule="nonzero"/><path fill="#ffffff" d="m579.68036 415.18613l34.897644 0l0 30.425201l-34.897644 0z" fill-rule="evenodd"/><path stroke="#000000" stroke-width="1.0" stroke-linejoin="round" stroke-linecap="butt" d="m579.68036 415.18613l34.897644 0l0 30.425201l-34.897644 0z" fill-rule="evenodd"/><path fill="#ffffff" d="m614.578 384.76093l34.897644 0l0 30.425201l-34.897644 0z" fill-rule="evenodd"/><path stroke="#000000" stroke-width="1.0" stroke-linejoin="round" stroke-linecap="butt" d="m614.578 384.76093l34.897644 0l0 30.425201l-34.897644 0z" fill-rule="evenodd"/><path fill="#ffffff" d="m614.578 415.18613l34.897644 0l0 30.425201l-34.897644 0z" fill-rule="evenodd"/><path stroke="#000000" stroke-width="1.0" stroke-linejoin="round" stroke-linecap="butt" d="m614.578 415.18613l34.897644 0l0 30.425201l-34.897644 0z" fill-rule="evenodd"/><path fill="#ffffff" d="m579.68036 384.76093l34.897644 0l0 30.425201l-34.897644 0z" fill-rule="evenodd"/><path stroke="#000000" stroke-width="1.0" stroke-linejoin="round" stroke-linecap="butt" d="m579.68036 384.76093l34.897644 0l0 30.425201l-34.897644 0z" fill-rule="evenodd"/><path fill="#ffffff" d="m568.30505 426.58115l34.897644 0l0 30.42517l-34.897644 0z" fill-rule="evenodd"/><path stroke="#000000" stroke-width="1.0" stroke-linejoin="round" stroke-linecap="butt" d="m568.30505 426.58115l34.897644 0l0 30.42517l-34.897644 0z" fill-rule="evenodd"/><path fill="#ffffff" d="m603.2027 396.15594l34.897644 0l0 30.425201l-34.897644 0z" fill-rule="evenodd"/><path stroke="#000000" stroke-width="1.0" stroke-linejoin="round" stroke-linecap="butt" d="m603.2027 396.15594l34.897644 0l0 30.425201l-34.897644 0z" fill-rule="evenodd"/><path fill="#ffffff" d="m603.2027 426.58115l34.897644 0l0 30.42517l-34.897644 0z" fill-rule="evenodd"/><path stroke="#000000" stroke-width="1.0" stroke-linejoin="round" stroke-linecap="butt" d="m603.2027 426.58115l34.897644 0l0 30.42517l-34.897644 0z" fill-rule="evenodd"/><path fill="#ffffff" d="m568.30505 396.15594l34.897644 0l0 30.425201l-34.897644 0z" fill-rule="evenodd"/><path stroke="#000000" stroke-width="1.0" stroke-linejoin="round" stroke-linecap="butt" d="m568.30505 396.15594l34.897644 0l0 30.425201l-34.897644 0z" fill-rule="evenodd"/><path fill="#ffffff" d="m555.746 438.9945l34.897644 0l0 30.425201l-34.897644 0z" fill-rule="evenodd"/><path stroke="#000000" stroke-width="1.0" stroke-linejoin="round" stroke-linecap="butt" d="m555.746 438.9945l34.897644 0l0 30.425201l-34.897644 0z" fill-rule="evenodd"/><path fill="#ffffff" d="m590.6436 408.56934l34.897644 0l0 30.42517l-34.897644 0z" fill-rule="evenodd"/><path stroke="#000000" stroke-width="1.0" stroke-linejoin="round" stroke-linecap="butt" d="m590.6436 408.56934l34.897644 0l0 30.42517l-34.897644 0z" fill-rule="evenodd"/><path fill="#ffffff" d="m590.6436 438.9945l34.897644 0l0 30.425201l-34.897644 0z" fill-rule="evenodd"/><path stroke="#000000" stroke-width="1.0" stroke-linejoin="round" stroke-linecap="butt" d="m590.6436 438.9945l34.897644 0l0 30.425201l-34.897644 0z" fill-rule="evenodd"/><path fill="#ffffff" d="m555.746 408.56934l34.897644 0l0 30.42517l-34.897644 0z" fill-rule="evenodd"/><path stroke="#000000" stroke-width="1.0" stroke-linejoin="round" stroke-linecap="butt" d="m555.746 408.56934l34.897644 0l0 30.42517l-34.897644 0z" fill-rule="evenodd"/></g></svg>