<svg version="1.1" viewBox="0.0 0.0 670.0524934383202 492.12335958005247" fill="none" stroke="none" stroke-linecap="square" stroke-miterlimit="10" xmlns:xlink="http://www.w3.org/1999/xlink" xmlns="http://www.w3.org/2000/svg"><clipPath id="p.0"><path d="m0 0l670.0525 0l0 492.12335l-670.0525 0l0 -492.12335z" clip-rule="nonzero"/></clipPath><g clip-path="url(#p.0)"><path fill="#000000" fill-opacity="0.0" d="m0 0l670.0525 0l0 492.12335l-670.0525 0z" fill-rule="evenodd"/><path fill="#ffffff" d="m82.57612 336.90817l56.125984 0l0 52.603485l-56.125984 0z" fill-rule="evenodd"/><path stroke="#000000" stroke-width="1.0" stroke-linejoin="round" stroke-linecap="butt" d="m82.57612 336.90817l56.125984 0l0 52.603485l-56.125984 0z" fill-rule="evenodd"/><path fill="#ffffff" d="m307.08005 336.90817l56.125977 0l0 52.603485l-56.125977 0z" fill-rule="evenodd"/><path stroke="#000000" stroke-width="1.0" stroke-linejoin="round" stroke-linecap="butt" d="m307.08005 336.90817l56.125977 0l0 52.603485l-56.125977 0z" fill-rule="evenodd"/><path fill="#ffffff" d="m250.95407 336.90817l56.125977 0l0 52.603485l-56.125977 0z" fill-rule="evenodd"/><path stroke="#000000" stroke-width="1.0" stroke-linejoin="round" stroke-linecap="butt" d="m250.95407 336.90817l56.125977 0l0 52.603485l-56.125977 0z" fill-rule="evenodd"/><path fill="#ffffff" d="m194.82808 336.90817l56.12599 0l0 52.603485l-56.12599 0z" fill-rule="evenodd"/><path stroke="#000000" stroke-width="1.0" stroke-linejoin="round" stroke-linecap="butt" d="m194.82808 336.90817l56.12599 0l0 52.603485l-56.12599 0z" fill-rule="evenodd"/><path fill="#ffffff" d="m138.7021 336.90817l56.125977 0l0 52.603485l-56.125977 0z" fill-rule="evenodd"/><path stroke="#000000" stroke-width="1.0" stroke-linejoin="round" stroke-linecap="butt" d="m138.7021 336.90817l56.125977 0l0 52.603485l-56.125977 0z" fill-rule="evenodd"/><path fill="#ffffff" d="m475.20602 336.90817l56.126007 0l0 52.603485l-56.126007 0z" fill-rule="evenodd"/><path stroke="#000000" stroke-width="1.0" stroke-linejoin="round" stroke-linecap="butt" d="m475.20602 336.90817l56.126007 0l0 52.603485l-56.126007 0z" fill-rule="evenodd"/><path fill="#ffffff" d="m419.33203 336.90817l56.125977 0l0 52.603485l-56.125977 0z" fill-rule="evenodd"/><path stroke="#000000" stroke-width="1.0" stroke-linejoin="round" stroke-linecap="butt" d="m419.33203 336.90817l56.125977 0l0 52.603485l-56.125977 0z" fill-rule="evenodd"/><path fill="#ffffff" d="m363.08005 336.90817l56.125977 0l0 52.603485l-56.125977 0z" fill-rule="evenodd"/><path stroke="#000000" stroke-width="1.0" stroke-linejoin="round" stroke-linecap="butt" d="m363.08005 336.90817l56.125977 0l0 52.603485l-56.125977 0z" fill-rule="evenodd"/><path fill="#ff0000" d="m326.61023 194.66058l117.84253 0l0 -4.5275574l9.055115 9.055115l-9.055115 9.055115l0 -4.5275574l-117.84253 0z" fill-rule="evenodd"/><path stroke="#ff0000" stroke-width="1.0" stroke-linejoin="round" stroke-linecap="butt" d="m326.61023 194.66058l117.84253 0l0 -4.5275574l9.055115 9.055115l-9.055115 9.055115l0 -4.5275574l-117.84253 0z" fill-rule="evenodd"/><path fill="#000000" fill-opacity="0.0" d="m308.7635 208.2441l176.81891 0l0 42.267715l-176.81891 0z" fill-rule="evenodd"/><path fill="#000000" d="m330.61554 230.86722l1.65625 -0.140625q0.125 1.0 0.546875 1.640625q0.4375 0.640625 1.34375 1.046875q0.921875 0.390625 2.0625 0.390625q1.0 0 1.78125 -0.296875q0.78125 -0.296875 1.15625 -0.8125q0.375 -0.53125 0.375 -1.15625q0 -0.625 -0.375 -1.09375q-0.359375 -0.46875 -1.1875 -0.796875q-0.546875 -0.203125 -2.390625 -0.640625q-1.828125 -0.453125 -2.5625 -0.84375q-0.96875 -0.5 -1.4375 -1.234375q-0.46875 -0.75 -0.46875 -1.671875q0 -1.0 0.578125 -1.875q0.578125 -0.890625 1.671875 -1.34375q1.109375 -0.453125 2.453125 -0.453125q1.484375 0 2.609375 0.484375q1.140625 0.46875 1.75 1.40625q0.609375 0.921875 0.65625 2.09375l-1.6875 0.125q-0.140625 -1.265625 -0.9375 -1.90625q-0.78125 -0.65625 -2.3125 -0.65625q-1.609375 0 -2.34375 0.59375q-0.734375 0.59375 -0.734375 1.421875q0 0.71875 0.53125 1.171875q0.5 0.46875 2.65625 0.96875q2.15625 0.484375 2.953125 0.84375q1.171875 0.53125 1.71875 1.359375q0.5625 0.828125 0.5625 1.90625q0 1.0625 -0.609375 2.015625q-0.609375 0.9375 -1.75 1.46875q-1.140625 0.515625 -2.578125 0.515625q-1.8125 0 -3.046875 -0.53125q-1.21875 -0.53125 -1.921875 -1.59375q-0.6875 -1.0625 -0.71875 -2.40625zm12.787323 4.296875l0 -13.359375l1.640625 0l0 13.359375l-1.640625 0zm4.191681 -11.46875l0 -1.890625l1.640625 0l0 1.890625l-1.640625 0zm0 11.46875l0 -9.671875l1.640625 0l0 9.671875l-1.640625 0zm10.410461 0l0 -1.21875q-0.90625 1.4375 -2.703125 1.4375q-1.15625 0 -2.125 -0.640625q-0.96875 -0.640625 -1.5 -1.78125q-0.53125 -1.140625 -0.53125 -2.625q0 -1.453125 0.484375 -2.625q0.484375 -1.1875 1.4375 -1.8125q0.96875 -0.625 2.171875 -0.625q0.875 0 1.546875 0.375q0.6875 0.359375 1.109375 0.953125l0 -4.796875l1.640625 0l0 13.359375l-1.53125 0zm-5.171875 -4.828125q0 1.859375 0.78125 2.78125q0.78125 0.921875 1.84375 0.921875q1.078125 0 1.828125 -0.875q0.75 -0.890625 0.75 -2.6875q0 -1.984375 -0.765625 -2.90625q-0.765625 -0.9375 -1.890625 -0.9375q-1.078125 0 -1.8125 0.890625q-0.734375 0.890625 -0.734375 2.8125zm9.281952 -6.640625l0 -1.890625l1.640625 0l0 1.890625l-1.640625 0zm0 11.46875l0 -9.671875l1.640625 0l0 9.671875l-1.640625 0zm4.1448364 0l0 -9.671875l1.46875 0l0 1.375q1.0625 -1.59375 3.078125 -1.59375q0.875 0 1.609375 0.3125q0.734375 0.3125 1.09375 0.828125q0.375 0.5 0.515625 1.203125q0.09375 0.453125 0.09375 1.59375l0 5.953125l-1.640625 0l0 -5.890625q0 -1.0 -0.203125 -1.484375q-0.1875 -0.5 -0.671875 -0.796875q-0.484375 -0.296875 -1.140625 -0.296875q-1.046875 0 -1.8125 0.671875q-0.75 0.65625 -0.75 2.515625l0 5.28125l-1.640625 0zm10.063202 0.796875l1.59375 0.234375q0.109375 0.75 0.5625 1.078125q0.609375 0.453125 1.671875 0.453125q1.140625 0 1.75 -0.453125q0.625 -0.453125 0.84375 -1.265625q0.125 -0.5 0.109375 -2.109375q-1.0625 1.265625 -2.671875 1.265625q-2.0 0 -3.09375 -1.4375q-1.09375 -1.4375 -1.09375 -3.453125q0 -1.390625 0.5 -2.5625q0.515625 -1.171875 1.453125 -1.796875q0.953125 -0.640625 2.25 -0.640625q1.703125 0 2.8125 1.375l0 -1.15625l1.515625 0l0 8.359375q0 2.265625 -0.46875 3.203125q-0.453125 0.9375 -1.453125 1.484375q-0.984375 0.546875 -2.453125 0.546875q-1.71875 0 -2.796875 -0.78125q-1.0625 -0.765625 -1.03125 -2.34375zm1.359375 -5.8125q0 1.90625 0.75 2.78125q0.765625 0.875 1.90625 0.875q1.125 0 1.890625 -0.859375q0.765625 -0.875 0.765625 -2.734375q0 -1.78125 -0.796875 -2.671875q-0.78125 -0.90625 -1.890625 -0.90625q-1.09375 0 -1.859375 0.890625q-0.765625 0.875 -0.765625 2.625zm14.715271 5.015625l0 -13.359375l4.609375 0q1.546875 0 2.375 0.203125q1.140625 0.25 1.953125 0.953125q1.0625 0.890625 1.578125 2.28125q0.53125 1.390625 0.53125 3.171875q0 1.515625 -0.359375 2.703125q-0.359375 1.171875 -0.921875 1.9375q-0.546875 0.765625 -1.203125 1.21875q-0.65625 0.4375 -1.59375 0.671875q-0.9375 0.21875 -2.140625 0.21875l-4.828125 0zm1.765625 -1.578125l2.859375 0q1.3125 0 2.0625 -0.234375q0.75 -0.25 1.203125 -0.703125q0.625 -0.625 0.96875 -1.6875q0.359375 -1.0625 0.359375 -2.578125q0 -2.09375 -0.6875 -3.21875q-0.6875 -1.125 -1.671875 -1.5q-0.703125 -0.28125 -2.28125 -0.28125l-2.8125 0l0 10.203125zm11.504211 -9.890625l0 -1.890625l1.640625 0l0 1.890625l-1.640625 0zm0 11.46875l0 -9.671875l1.640625 0l0 9.671875l-1.640625 0zm4.129181 0l0 -9.671875l1.46875 0l0 1.46875q0.5625 -1.03125 1.03125 -1.359375q0.484375 -0.328125 1.0625 -0.328125q0.828125 0 1.6875 0.53125l-0.5625 1.515625q-0.609375 -0.359375 -1.203125 -0.359375q-0.546875 0 -0.96875 0.328125q-0.421875 0.328125 -0.609375 0.890625q-0.28125 0.875 -0.28125 1.921875l0 5.0625l-1.625 0zm12.853302 -3.109375l1.6875 0.203125q-0.40625 1.484375 -1.484375 2.3125q-1.078125 0.8125 -2.765625 0.8125q-2.125 0 -3.375 -1.296875q-1.234375 -1.3125 -1.234375 -3.671875q0 -2.453125 1.25 -3.796875q1.265625 -1.34375 3.265625 -1.34375q1.9375 0 3.15625 1.328125q1.234375 1.3125 1.234375 3.703125q0 0.15625 0 0.4375l-7.21875 0q0.09375 1.59375 0.90625 2.453125q0.8125 0.84375 2.015625 0.84375q0.90625 0 1.546875 -0.46875q0.640625 -0.484375 1.015625 -1.515625zm-5.390625 -2.65625l5.40625 0q-0.109375 -1.21875 -0.625 -1.828125q-0.78125 -0.953125 -2.03125 -0.953125q-1.125 0 -1.90625 0.765625q-0.765625 0.75 -0.84375 2.015625zm15.453857 2.21875l1.609375 0.21875q-0.265625 1.65625 -1.359375 2.609375q-1.078125 0.9375 -2.671875 0.9375q-1.984375 0 -3.1875 -1.296875q-1.203125 -1.296875 -1.203125 -3.71875q0 -1.578125 0.515625 -2.75q0.515625 -1.171875 1.578125 -1.75q1.0625 -0.59375 2.3125 -0.59375q1.578125 0 2.578125 0.796875q1.0 0.796875 1.28125 2.265625l-1.59375 0.234375q-0.234375 -0.96875 -0.8125 -1.453125q-0.578125 -0.5 -1.390625 -0.5q-1.234375 0 -2.015625 0.890625q-0.78125 0.890625 -0.78125 2.8125q0 1.953125 0.75 2.84375q0.75 0.875 1.953125 0.875q0.96875 0 1.609375 -0.59375q0.65625 -0.59375 0.828125 -1.828125zm6.5937195 2.078125l0.234375 1.453125q-0.6875 0.140625 -1.234375 0.140625q-0.890625 0 -1.390625 -0.28125q-0.48434448 -0.28125 -0.6874695 -0.734375q-0.203125 -0.46875 -0.203125 -1.9375l0 -5.578125l-1.203125 0l0 -1.265625l1.203125 0l0 -2.390625l1.6249695 -0.984375l0 3.375l1.65625 0l0 1.265625l-1.65625 0l0 5.671875q0 0.6875 0.078125 0.890625q0.09375 0.203125 0.28125 0.328125q0.203125 0.109375 0.578125 0.109375q0.265625 0 0.71875 -0.0625zm1.6051941 -10.0l0 -1.890625l1.640625 0l0 1.890625l-1.640625 0zm0 11.46875l0 -9.671875l1.640625 0l0 9.671875l-1.640625 0zm3.535431 -4.84375q0 -2.6875 1.484375 -3.96875q1.25 -1.078125 3.046875 -1.078125q2.0 0 3.265625 1.3125q1.265625 1.296875 1.265625 3.609375q0 1.859375 -0.5625 2.9375q-0.5625 1.0625 -1.640625 1.65625q-1.0625 0.59375 -2.328125 0.59375q-2.03125 0 -3.28125 -1.296875q-1.25 -1.3125 -1.25 -3.765625zm1.6875 0q0 1.859375 0.796875 2.796875q0.8125 0.921875 2.046875 0.921875q1.21875 0 2.03125 -0.921875q0.8125 -0.9375 0.8125 -2.84375q0 -1.796875 -0.8125 -2.71875q-0.8125 -0.921875 -2.03125 -0.921875q-1.234375 0 -2.046875 0.921875q-0.796875 0.90625 -0.796875 2.765625zm9.297607 4.84375l0 -9.671875l1.46875 0l0 1.375q1.0625 -1.59375 3.078125 -1.59375q0.875 0 1.609375 0.3125q0.734375 0.3125 1.09375 0.828125q0.375 0.5 0.515625 1.203125q0.09375 0.453125 0.09375 1.59375l0 5.953125l-1.640625 0l0 -5.890625q0 -1.0 -0.203125 -1.484375q-0.1875 -0.5 -0.671875 -0.796875q-0.484375 -0.296875 -1.140625 -0.296875q-1.046875 0 -1.8125 0.671875q-0.75 0.65625 -0.75 2.515625l0 5.28125l-1.640625 0z" fill-rule="nonzero"/><path fill="#000000" fill-opacity="0.0" d="m306.88977 26.553806l180.56693 0l0 60.12598l-180.56693 0z" fill-rule="evenodd"/><path fill="#000000" d="m356.00397 59.23992l1.65625 -0.140625q0.125 1.0 0.546875 1.640625q0.4375 0.640625 1.34375 1.046875q0.921875 0.390625 2.0625 0.390625q1.0 0 1.78125 -0.296875q0.78125 -0.296875 1.15625 -0.8125q0.375 -0.53125 0.375 -1.15625q0 -0.625 -0.375 -1.09375q-0.359375 -0.46875 -1.1875 -0.796875q-0.546875 -0.203125 -2.390625 -0.640625q-1.828125 -0.453125 -2.5625 -0.84375q-0.96875 -0.5 -1.4375 -1.234375q-0.46875 -0.75 -0.46875 -1.671875q0 -1.0 0.578125 -1.875q0.578125 -0.890625 1.671875 -1.34375q1.109375 -0.453125 2.453125 -0.453125q1.484375 0 2.609375 0.484375q1.140625 0.46875 1.75 1.40625q0.609375 0.921875 0.65625 2.09375l-1.6875 0.125q-0.140625 -1.265625 -0.9375 -1.90625q-0.78125 -0.65625 -2.3125 -0.65625q-1.609375 0 -2.34375 0.59375q-0.734375 0.59375 -0.734375 1.421875q0 0.71875 0.53125 1.171875q0.5 0.46875 2.65625 0.96875q2.15625 0.484375 2.953125 0.84375q1.171875 0.53125 1.71875 1.359375q0.5625 0.828125 0.5625 1.90625q0 1.0625 -0.609375 2.015625q-0.609375 0.9375 -1.75 1.46875q-1.140625 0.515625 -2.578125 0.515625q-1.8125 0 -3.046875 -0.53125q-1.21875 -0.53125 -1.921875 -1.59375q-0.6875 -1.0625 -0.71875 -2.40625zm19.459198 1.1875l1.6875 0.203125q-0.40625 1.484375 -1.484375 2.3125q-1.078125 0.8125 -2.765625 0.8125q-2.125 0 -3.375 -1.296875q-1.234375 -1.3125 -1.234375 -3.671875q0 -2.453125 1.25 -3.796875q1.265625 -1.34375 3.265625 -1.34375q1.9375 0 3.15625 1.328125q1.234375 1.3125 1.234375 3.703125q0 0.15625 0 0.4375l-7.21875 0q0.09375 1.59375 0.90625 2.453125q0.8125 0.84375 2.015625 0.84375q0.90625 0 1.546875 -0.46875q0.640625 -0.484375 1.015625 -1.515625zm-5.390625 -2.65625l5.40625 0q-0.109375 -1.21875 -0.625 -1.828125q-0.78125 -0.953125 -2.03125 -0.953125q-1.125 0 -1.90625 0.765625q-0.765625 0.75 -0.84375 2.015625zm15.297607 9.46875l0 -4.734375q-0.375 0.546875 -1.0625 0.90625q-0.6875 0.34375 -1.46875 0.34375q-1.71875 0 -2.96875 -1.375q-1.234375 -1.375 -1.234375 -3.765625q0 -1.46875 0.5 -2.625q0.515625 -1.15625 1.46875 -1.75q0.96875 -0.59375 2.109375 -0.59375q1.796875 0 2.828125 1.515625l0 -1.296875l1.46875 0l0 13.375l-1.640625 0zm-5.046875 -8.5625q0 1.859375 0.78125 2.796875q0.78125 0.9375 1.875 0.9375q1.046875 0 1.796875 -0.890625q0.765625 -0.890625 0.765625 -2.703125q0 -1.9375 -0.796875 -2.90625q-0.796875 -0.96875 -1.875 -0.96875q-1.0625 0 -1.8125 0.90625q-0.734375 0.90625 -0.734375 2.828125zm15.594452 4.859375l0 -1.421875q-1.125 1.640625 -3.0625 1.640625q-0.859375 0 -1.609375 -0.328125q-0.734375 -0.328125 -1.09375 -0.828125q-0.359375 -0.5 -0.5 -1.21875q-0.109375 -0.46875 -0.109375 -1.53125l0 -5.984375l1.640625 0l0 5.359375q0 1.28125 0.109375 1.734375q0.15625 0.640625 0.65625 1.015625q0.5 0.375 1.234375 0.375q0.734375 0 1.375 -0.375q0.65625 -0.390625 0.921875 -1.03125q0.265625 -0.65625 0.265625 -1.890625l0 -5.1875l1.640625 0l0 9.671875l-1.46875 0zm10.672607 -3.109375l1.6875 0.203125q-0.40625 1.484375 -1.484375 2.3125q-1.078125 0.8125 -2.765625 0.8125q-2.125 0 -3.375 -1.296875q-1.234375 -1.3125 -1.234375 -3.671875q0 -2.453125 1.25 -3.796875q1.265625 -1.34375 3.265625 -1.34375q1.9375 0 3.15625 1.328125q1.234375 1.3125 1.234375 3.703125q0 0.15625 0 0.4375l-7.21875 0q0.09375 1.59375 0.90625 2.453125q0.8125 0.84375 2.015625 0.84375q0.90625 0 1.546875 -0.46875q0.640625 -0.484375 1.015625 -1.515625zm-5.390625 -2.65625l5.40625 0q-0.109375 -1.21875 -0.625 -1.828125q-0.78125 -0.953125 -2.03125 -0.953125q-1.125 0 -1.90625 0.765625q-0.765625 0.75 -0.84375 2.015625zm9.141327 5.765625l0 -9.671875l1.46875 0l0 1.375q1.0625 -1.59375 3.078125 -1.59375q0.875 0 1.609375 0.3125q0.734375 0.3125 1.09375 0.828125q0.375 0.5 0.515625 1.203125q0.09375 0.453125 0.09375 1.59375l0 5.953125l-1.640625 0l0 -5.890625q0 -1.0 -0.203125 -1.484375q-0.1875 -0.5 -0.671875 -0.796875q-0.484375 -0.296875 -1.140625 -0.296875q-1.046875 0 -1.8125 0.671875q-0.75 0.65625 -0.75 2.515625l0 5.28125l-1.640625 0zm16.688232 -3.546875l1.609375 0.21875q-0.265625 1.65625 -1.359375 2.609375q-1.078125 0.9375 -2.671875 0.9375q-1.984375 0 -3.1875 -1.296875q-1.203125 -1.296875 -1.203125 -3.71875q0 -1.578125 0.515625 -2.75q0.515625 -1.171875 1.578125 -1.75q1.0625 -0.59375 2.3125 -0.59375q1.578125 0 2.578125 0.796875q1.0 0.796875 1.28125 2.265625l-1.59375 0.234375q-0.234375 -0.96875 -0.8125 -1.453125q-0.578125 -0.5 -1.390625 -0.5q-1.234375 0 -2.015625 0.890625q-0.78125 0.890625 -0.78125 2.8125q0 1.953125 0.75 2.84375q0.75 0.875 1.953125 0.875q0.96875 0 1.609375 -0.59375q0.65625 -0.59375 0.828125 -1.828125zm9.640625 0.4375l1.6875 0.203125q-0.40625 1.484375 -1.484375 2.3125q-1.078125 0.8125 -2.765625 0.8125q-2.125 0 -3.375 -1.296875q-1.234375 -1.3125 -1.234375 -3.671875q0 -2.453125 1.25 -3.796875q1.265625 -1.34375 3.265625 -1.34375q1.9375 0 3.15625 1.328125q1.234375 1.3125 1.234375 3.703125q0 0.15625 0 0.4375l-7.21875 0q0.09375 1.59375 0.90625 2.453125q0.8125 0.84375 2.015625 0.84375q0.90625 0 1.546875 -0.46875q0.640625 -0.484375 1.015625 -1.515625zm-5.390625 -2.65625l5.40625 0q-0.109375 -1.21875 -0.625 -1.828125q-0.78125 -0.953125 -2.03125 -0.953125q-1.125 0 -1.90625 0.765625q-0.765625 0.75 -0.84375 2.015625z" fill-rule="nonzero"/><path fill="#000000" fill-opacity="0.0" d="m341.26773 77.485565l111.811005 0.88188934" fill-rule="evenodd"/><path stroke="#000000" stroke-width="1.0" stroke-linejoin="round" stroke-linecap="butt" d="m341.26773 77.485565l105.81122 0.8345642" fill-rule="evenodd"/><path fill="#000000" stroke="#000000" stroke-width="1.0" stroke-linecap="butt" d="m447.0659 79.97181l4.550995 -1.6158829l-4.524933 -1.6874771z" fill-rule="evenodd"/><path fill="#000000" fill-opacity="0.0" d="m96.87139 132.2231l58.20472 -66.20473" fill-rule="evenodd"/><path stroke="#000000" stroke-width="1.0" stroke-linejoin="round" stroke-linecap="butt" d="m96.87139 132.2231l54.24308 -61.698578" fill-rule="evenodd"/><path fill="#000000" stroke="#000000" stroke-width="1.0" stroke-linecap="butt" d="m152.35497 71.61512l1.7558899 -4.498825l-4.2368774 2.3176346z" fill-rule="evenodd"/><path fill="#000000" fill-opacity="0.0" d="m55.864494 104.37313l61.732285 -73.79527l24.944878 20.850395l-61.732277 73.79527z" fill-rule="evenodd"/><path fill="#000000" d="m88.531265 99.972916l1.4805527 -1.063652q1.3054886 1.8243256 1.2702942 3.6684418q-0.047180176 1.8340912 -1.3905945 3.4400253q-1.383522 1.6538696 -2.9271011 2.1353683q-1.5455399 0.45948792 -3.2774963 -0.05142212q-1.7339249 -0.5329132 -3.208519 -1.7654648q-1.5944748 -1.332756 -2.2700424 -2.93602q-0.6875534 -1.6132889 -0.356575 -3.2508926q0.32901764 -1.6596146 1.4618988 -3.0138702q1.2832642 -1.5340271 2.9347382 -1.9253311q1.661499 -0.40329742 3.4290085 0.38169098l-0.8011322 1.590828q-1.4156952 -0.5723877 -2.4906693 -0.31014252q-1.0769348 0.24024963 -1.9291077 1.258934q-0.9925232 1.18647 -1.090744 2.448433q-0.098220825 1.2619553 0.5901718 2.3871918q0.67640686 1.1152267 1.6954346 1.9669876q1.3067551 1.0922623 2.598648 1.5204315q1.2918854 0.42817688 2.455124 0.03605652q1.1512527 -0.40213013 1.9332428 -1.3369293q0.9524231 -1.1385345 0.9547348 -2.4806595q0.0023117065 -1.3421173 -1.0618668 -2.7000046zm5.9953537 0.13869476l-10.250214 -8.567734l1.052681 -1.2583771l3.680481 3.0763626q-0.28716278 -1.7266312 0.83569336 -3.0689087q0.6917572 -0.8269348 1.5167236 -1.1556015q0.83499146 -0.34065247 1.6310043 -0.12332153q0.7960129 0.21733856 1.8869705 1.1292267l4.6995163 3.928131l-1.052681 1.2583771l-4.6995087 -3.928131q-0.9470978 -0.7916336 -1.7195511 -0.7449112q-0.77246094 0.04673004 -1.404068 0.8017578q-0.46116638 0.5512924 -0.57250214 1.2931747q-0.12332153 0.7318649 0.18775177 1.3584366q0.32109833 0.6145935 1.1962662 1.3461075l4.0641174 3.397026l-1.052681 1.2583847zm9.79657 -13.5616455q-0.0040664673 1.1981049 -0.2936859 2.0557022q-0.2915802 0.8356018 -0.9131546 1.5786438q-1.0226059 1.2224274 -2.173439 1.380539q-1.1508255 0.15811157 -2.073944 -0.6134796q-0.5514755 -0.46095276 -0.7845154 -1.0833969q-0.24503326 -0.6324692 -0.17794037 -1.2484131q0.06513214 -0.6379547 0.34233856 -1.2615509q0.20485687 -0.4397049 0.7405548 -1.2749023q1.0934143 -1.672348 1.4431839 -2.60186q-0.25372314 -0.23243713 -0.3136673 -0.28253937q-0.7672653 -0.6413269 -1.3917236 -0.5523529q-0.8206177 0.12865448 -1.6226578 1.0874252q-0.74188995 0.8868561 -0.7810745 1.5668564q-0.0391922 0.6800003 0.5696335 1.53508l-1.20047 1.0941238q-0.63890076 -0.81912994 -0.7976227 -1.6034698q-0.17071533 -0.7943573 0.1770935 -1.7458725q0.3478012 -0.9515152 1.1398163 -1.8982925q0.8020401 -0.9587631 1.5210724 -1.3556137q0.71707153 -0.4188614 1.2953262 -0.40390015q0.57629395 -0.0070495605 1.1820297 0.315979q0.37381744 0.21063995 1.2130203 0.9120865l1.6783981 1.4029083q1.7503281 1.463028 2.2880554 1.7699432q0.5257492 0.2968979 1.1478195 0.42993164l-1.0927811 1.3063202q-0.5660553 -0.1269455 -1.121666 -0.5098953zm-2.9075394 -2.247017q-0.28372955 0.92362213 -1.2348175 2.4501953q-0.5437622 0.8691788 -0.67058563 1.3130112q-0.12683105 0.4438324 -0.013465881 0.8440552q0.12339783 0.38824463 0.45907593 0.66882324q0.50351715 0.42087555 1.1600113 0.3179474q0.65649414 -0.10292816 1.2680511 -0.8339844q0.601532 -0.71907806 0.7610245 -1.5428925q0.15753937 -0.84581757 -0.17337799 -1.570427q-0.26115417 -0.5644913 -1.0883636 -1.2559204l-0.46755219 -0.3908081zm6.4257584 -0.1079483l-7.4209137 -6.202835l0.9423981 -1.1265488l1.0549927 0.8818207q-0.54109955 -1.8370667 0.75218964 -3.383072q0.5614319 -0.67113495 1.2723999 -1.0339966q0.710968 -0.36286163 1.3371811 -0.30782318q0.6242447 0.03303528 1.2539597 0.37610626q0.40782166 0.2186966 1.2829819 0.9502106l4.567642 3.8179016l-1.052681 1.2583771l-4.519684 -3.7778168q-0.7672653 -0.6413269 -1.2692413 -0.7961731q-0.5039444 -0.17684937 -1.042511 0.0042800903q-0.5385742 0.18112946 -0.95964813 0.68447876q-0.67170715 0.8029709 -0.6474533 1.821106q0.02230072 0.99612427 1.4489365 2.1885986l4.0521317 3.3870087l-1.052681 1.2583771zm6.6573944 -7.9583054l-7.4209137 -6.202835l0.9423981 -1.1265488l1.0549927 0.8818207q-0.54109955 -1.837059 0.75218964 -3.383072q0.5614319 -0.67113495 1.2723999 -1.0339966q0.710968 -0.36286163 1.3371811 -0.30782318q0.6242447 0.03303528 1.2539597 0.37610626q0.40782166 0.2186966 1.2829819 0.9502106l4.567642 3.8179016l-1.052681 1.2583771l-4.519684 -3.7778168q-0.7672653 -0.6413269 -1.2692413 -0.7961731q-0.5039444 -0.17684937 -1.042511 0.0042800903q-0.5385742 0.18112946 -0.95964813 0.68447876q-0.67170715 0.8029709 -0.6474533 1.821106q0.02230072 0.9961319 1.4489365 2.1885986l4.0521317 3.3870087l-1.052681 1.2583771zm8.522491 -15.033886l1.2386017 -1.1640663q0.8782501 1.2635689 0.82188416 2.621605q-0.068351746 1.3480148 -1.1511078 2.6423492q-1.363472 1.6298981 -3.1605606 1.7569427q-1.7990494 0.105041504 -3.6093216 -1.4080887q-1.8822098 -1.5732574 -2.1111832 -3.3938065q-0.21894836 -1.8325348 1.0643158 -3.366558q1.2431641 -1.4860878 3.0441818 -1.5691223q1.7990494 -0.10503769 3.6333008 1.4281349q0.119888306 0.10020828 0.3356781 0.2805786l-4.6317825 5.536873q1.2829895 0.9502106 2.463684 0.87815094q1.1687088 -0.08207703 1.9406738 -1.0048904q0.5814743 -0.6951065 0.6328659 -1.4870949q0.039398193 -0.8020096 -0.51123047 -1.7510071zm-5.4968567 2.4311485l3.4688263 -4.14666q-1.0052872 -0.6977234 -1.8036804 -0.69304276q-1.2325821 -0.01203537 -2.0346222 0.94672775q-0.7218323 0.86288834 -0.6356659 1.9531326q0.084198 1.0682411 1.0051422 1.9398422zm10.259079 -3.277916l-10.250214 -8.56773l1.052681 -1.2583809l10.250214 8.56773l-1.052681 1.2583809z" fill-rule="nonzero"/><path fill="#ffffff" d="m71.21654 345.84085l56.125984 0l0 52.59842l-56.125984 0z" fill-rule="evenodd"/><path stroke="#000000" stroke-width="1.0" stroke-linejoin="round" stroke-linecap="butt" d="m71.21654 345.84085l56.125984 0l0 52.59842l-56.125984 0z" fill-rule="evenodd"/><path fill="#ffffff" d="m127.34252 345.84085l56.125984 0l0 52.59842l-56.125984 0z" fill-rule="evenodd"/><path stroke="#000000" stroke-width="1.0" stroke-linejoin="round" stroke-linecap="butt" d="m127.34252 345.84085l56.125984 0l0 52.59842l-56.125984 0z" fill-rule="evenodd"/><path fill="#ffffff" d="m295.72046 345.84085l56.126007 0l0 52.59842l-56.126007 0z" fill-rule="evenodd"/><path stroke="#000000" stroke-width="1.0" stroke-linejoin="round" stroke-linecap="butt" d="m295.72046 345.84085l56.126007 0l0 52.59842l-56.126007 0z" fill-rule="evenodd"/><path fill="#ffffff" d="m183.4685 345.84085l56.125977 0l0 52.59842l-56.125977 0z" fill-rule="evenodd"/><path stroke="#000000" stroke-width="1.0" stroke-linejoin="round" stroke-linecap="butt" d="m183.4685 345.84085l56.125977 0l0 52.59842l-56.125977 0z" fill-rule="evenodd"/><path fill="#ffffff" d="m351.84647 345.84262l56.125977 0l0 52.603516l-56.125977 0z" fill-rule="evenodd"/><path stroke="#000000" stroke-width="1.0" stroke-linejoin="round" stroke-linecap="butt" d="m351.84647 345.84262l56.125977 0l0 52.603516l-56.125977 0z" fill-rule="evenodd"/><path fill="#b7b7b7" d="m239.59448 345.84085l56.125977 0l0 52.59842l-56.125977 0z" fill-rule="evenodd"/><path stroke="#000000" stroke-width="1.0" stroke-linejoin="round" stroke-linecap="butt" d="m239.59448 345.84085l56.125977 0l0 52.59842l-56.125977 0z" fill-rule="evenodd"/><path fill="#ffffff" d="m464.09842 345.84262l56.126007 0l0 52.603516l-56.126007 0z" fill-rule="evenodd"/><path stroke="#000000" stroke-width="1.0" stroke-linejoin="round" stroke-linecap="butt" d="m464.09842 345.84262l56.126007 0l0 52.603516l-56.126007 0z" fill-rule="evenodd"/><path fill="#ffffff" d="m407.97244 345.84262l56.125977 0l0 52.603516l-56.125977 0z" fill-rule="evenodd"/><path stroke="#000000" stroke-width="1.0" stroke-linejoin="round" stroke-linecap="butt" d="m407.97244 345.84262l56.125977 0l0 52.603516l-56.125977 0z" fill-rule="evenodd"/><path fill="#b7b7b7" d="m117.950134 357.97913l56.125977 0l0 52.59842l-56.125977 0z" fill-rule="evenodd"/><path stroke="#000000" stroke-width="1.0" stroke-linejoin="round" stroke-linecap="butt" d="m117.950134 357.97913l56.125977 0l0 52.59842l-56.125977 0z" fill-rule="evenodd"/><path fill="#b7b7b7" d="m286.3281 357.97913l56.125977 0l0 52.59842l-56.125977 0z" fill-rule="evenodd"/><path stroke="#000000" stroke-width="1.0" stroke-linejoin="round" stroke-linecap="butt" d="m286.3281 357.97913l56.125977 0l0 52.59842l-56.125977 0z" fill-rule="evenodd"/><path fill="#ffffff" d="m174.07611 357.97913l56.12599 0l0 52.59842l-56.12599 0z" fill-rule="evenodd"/><path stroke="#000000" stroke-width="1.0" stroke-linejoin="round" stroke-linecap="butt" d="m174.07611 357.97913l56.12599 0l0 52.59842l-56.12599 0z" fill-rule="evenodd"/><path fill="#ffffff" d="m342.45407 357.98062l56.125977 0l0 52.603485l-56.125977 0z" fill-rule="evenodd"/><path stroke="#000000" stroke-width="1.0" stroke-linejoin="round" stroke-linecap="butt" d="m342.45407 357.98062l56.125977 0l0 52.603485l-56.125977 0z" fill-rule="evenodd"/><path fill="#ffffff" d="m230.2021 357.97913l56.12599 0l0 52.59842l-56.12599 0z" fill-rule="evenodd"/><path stroke="#000000" stroke-width="1.0" stroke-linejoin="round" stroke-linecap="butt" d="m230.2021 357.97913l56.12599 0l0 52.59842l-56.12599 0z" fill-rule="evenodd"/><path fill="#b7b7b7" d="m454.70602 357.98062l56.126007 0l0 52.603485l-56.126007 0z" fill-rule="evenodd"/><path stroke="#000000" stroke-width="1.0" stroke-linejoin="round" stroke-linecap="butt" d="m454.70602 357.98062l56.126007 0l0 52.603485l-56.126007 0z" fill-rule="evenodd"/><path fill="#ffffff" d="m398.58005 357.98062l56.125977 0l0 52.603485l-56.125977 0z" fill-rule="evenodd"/><path stroke="#000000" stroke-width="1.0" stroke-linejoin="round" stroke-linecap="butt" d="m398.58005 357.98062l56.125977 0l0 52.603485l-56.125977 0z" fill-rule="evenodd"/><path fill="#ffffff" d="m61.824146 357.97913l56.125988 0l0 52.59842l-56.125988 0z" fill-rule="evenodd"/><path stroke="#ff0000" stroke-width="1.0" stroke-linejoin="round" stroke-linecap="butt" d="m61.824146 357.97913l56.125988 0l0 52.59842l-56.125988 0z" fill-rule="evenodd"/><path fill="#000000" fill-opacity="0.0" d="m140.6273 177.97375l-77.73229 181.41733" fill-rule="evenodd"/><path stroke="#ff0000" stroke-width="2.0" stroke-linejoin="round" stroke-linecap="butt" d="m140.6273 177.97375l-77.73229 181.41733" fill-rule="evenodd"/><path fill="#000000" fill-opacity="0.0" d="m309.84778 177.97375l-191.55907 183.65353" fill-rule="evenodd"/><path stroke="#ff0000" stroke-width="2.0" stroke-linejoin="round" stroke-linecap="butt" d="m309.84778 177.97375l-191.55907 183.65353" fill-rule="evenodd"/><path fill="#000000" fill-opacity="0.0" d="m165.55643 192.4147l79.433075 0l0 35.527557l-79.433075 0z" fill-rule="evenodd"/><path fill="#000000" d="m186.07556 219.3347l0 -13.359375l9.015625 0l0 1.578125l-7.25 0l0 4.140625l6.265625 0l0 1.578125l-6.265625 0l0 6.0625l-1.765625 0zm11.099106 -11.46875l0 -1.890625l1.640625 0l0 1.890625l-1.640625 0zm0 11.46875l0 -9.671875l1.640625 0l0 9.671875l-1.640625 0zm4.097946 0l0 -13.359375l1.640625 0l0 13.359375l-1.640625 0zm7.769821 -1.46875l0.234375 1.453125q-0.6875 0.140625 -1.234375 0.140625q-0.890625 0 -1.390625 -0.28125q-0.484375 -0.28125 -0.6875 -0.734375q-0.203125 -0.46875 -0.203125 -1.9375l0 -5.578125l-1.203125 0l0 -1.265625l1.203125 0l0 -2.390625l1.625 -0.984375l0 3.375l1.65625 0l0 1.265625l-1.65625 0l0 5.671875q0 0.6875 0.078125 0.890625q0.09375 0.203125 0.28125 0.328125q0.203125 0.109375 0.578125 0.109375q0.265625 0 0.71875 -0.0625zm8.230179 -1.640625l1.6875 0.203125q-0.40625 1.484375 -1.484375 2.3125q-1.078125 0.8125 -2.765625 0.8125q-2.125 0 -3.375 -1.296875q-1.234375 -1.3125 -1.234375 -3.671875q0 -2.453125 1.25 -3.796875q1.265625 -1.34375 3.265625 -1.34375q1.9375 0 3.15625 1.328125q1.234375 1.3125 1.234375 3.703125q0 0.15625 0 0.4375l-7.21875 0q0.09375 1.59375 0.90625 2.453125q0.8125 0.84375 2.015625 0.84375q0.90625 0 1.546875 -0.46875q0.640625 -0.484375 1.015625 -1.515625zm-5.390625 -2.65625l5.40625 0q-0.109375 -1.21875 -0.625 -1.828125q-0.78125 -0.953125 -2.03125 -0.953125q-1.125 0 -1.90625 0.765625q-0.765625 0.75 -0.84375 2.015625zm9.125717 5.765625l0 -9.671875l1.46875 0l0 1.46875q0.5625 -1.03125 1.03125 -1.359375q0.484375 -0.328125 1.0625 -0.328125q0.828125 0 1.6875 0.53125l-0.5625 1.515625q-0.609375 -0.359375 -1.203125 -0.359375q-0.546875 0 -0.96875 0.328125q-0.421875 0.328125 -0.609375 0.890625q-0.28125 0.875 -0.28125 1.921875l0 5.0625l-1.625 0z" fill-rule="nonzero"/><path fill="#ffffff" d="m165.55511 101.758766l56.12599 0l0 52.598427l-56.12599 0z" fill-rule="evenodd"/><path stroke="#ff0000" stroke-width="1.0" stroke-linejoin="round" stroke-linecap="butt" d="m165.55511 101.758766l56.12599 0l0 52.598427l-56.12599 0z" fill-rule="evenodd"/><path fill="#ffffff" d="m221.6811 101.758766l56.12599 0l0 52.598427l-56.12599 0z" fill-rule="evenodd"/><path stroke="#ff0000" stroke-width="1.0" stroke-linejoin="round" stroke-linecap="butt" d="m221.6811 101.758766l56.12599 0l0 52.598427l-56.12599 0z" fill-rule="evenodd"/><path fill="#ffffff" d="m390.05905 101.758766l56.125977 0l0 52.598427l-56.125977 0z" fill-rule="evenodd"/><path stroke="#000000" stroke-width="1.0" stroke-linejoin="round" stroke-linecap="butt" d="m390.05905 101.758766l56.125977 0l0 52.598427l-56.125977 0z" fill-rule="evenodd"/><path fill="#ffffff" d="m446.18503 101.759384l56.126007 0l0 52.603485l-56.126007 0z" fill-rule="evenodd"/><path stroke="#000000" stroke-width="1.0" stroke-linejoin="round" stroke-linecap="butt" d="m446.18503 101.759384l56.126007 0l0 52.603485l-56.126007 0z" fill-rule="evenodd"/><path fill="#ffffff" d="m333.93307 101.758766l56.125977 0l0 52.598427l-56.125977 0z" fill-rule="evenodd"/><path stroke="#000000" stroke-width="1.0" stroke-linejoin="round" stroke-linecap="butt" d="m333.93307 101.758766l56.125977 0l0 52.598427l-56.125977 0z" fill-rule="evenodd"/><path fill="#ffffff" d="m558.437 101.759384l56.125977 0l0 52.603485l-56.125977 0z" fill-rule="evenodd"/><path stroke="#000000" stroke-width="1.0" stroke-linejoin="round" stroke-linecap="butt" d="m558.437 101.759384l56.125977 0l0 52.603485l-56.125977 0z" fill-rule="evenodd"/><path fill="#b7b7b7" d="m502.31104 101.759384l56.125977 0l0 52.603485l-56.125977 0z" fill-rule="evenodd"/><path stroke="#000000" stroke-width="1.0" stroke-linejoin="round" stroke-linecap="butt" d="m502.31104 101.759384l56.125977 0l0 52.603485l-56.125977 0z" fill-rule="evenodd"/><path fill="#b7b7b7" d="m277.8071 101.758766l56.125977 0l0 52.598427l-56.125977 0z" fill-rule="evenodd"/><path stroke="#ff0000" stroke-width="1.0" stroke-linejoin="round" stroke-linecap="butt" d="m277.8071 101.758766l56.125977 0l0 52.598427l-56.125977 0z" fill-rule="evenodd"/><path fill="#b7b7b7" d="m155.0748 113.24516l56.12599 0l0 52.59842l-56.12599 0z" fill-rule="evenodd"/><path stroke="#ff0000" stroke-width="1.0" stroke-linejoin="round" stroke-linecap="butt" d="m155.0748 113.24516l56.12599 0l0 52.59842l-56.12599 0z" fill-rule="evenodd"/><path fill="#ffffff" d="m211.20079 113.24516l56.12599 0l0 52.59842l-56.12599 0z" fill-rule="evenodd"/><path stroke="#ff0000" stroke-width="1.0" stroke-linejoin="round" stroke-linecap="butt" d="m211.20079 113.24516l56.12599 0l0 52.59842l-56.12599 0z" fill-rule="evenodd"/><path fill="#ffffff" d="m379.57874 113.24516l56.125977 0l0 52.59842l-56.125977 0z" fill-rule="evenodd"/><path stroke="#000000" stroke-width="1.0" stroke-linejoin="round" stroke-linecap="butt" d="m379.57874 113.24516l56.125977 0l0 52.59842l-56.125977 0z" fill-rule="evenodd"/><path fill="#ffffff" d="m435.7047 113.24608l56.126007 0l0 52.603485l-56.126007 0z" fill-rule="evenodd"/><path stroke="#000000" stroke-width="1.0" stroke-linejoin="round" stroke-linecap="butt" d="m435.7047 113.24608l56.126007 0l0 52.603485l-56.126007 0z" fill-rule="evenodd"/><path fill="#ffffff" d="m323.45276 113.24516l56.125977 0l0 52.59842l-56.125977 0z" fill-rule="evenodd"/><path stroke="#000000" stroke-width="1.0" stroke-linejoin="round" stroke-linecap="butt" d="m323.45276 113.24516l56.125977 0l0 52.59842l-56.125977 0z" fill-rule="evenodd"/><path fill="#ffffff" d="m547.95667 113.24608l56.126038 0l0 52.603485l-56.126038 0z" fill-rule="evenodd"/><path stroke="#000000" stroke-width="1.0" stroke-linejoin="round" stroke-linecap="butt" d="m547.95667 113.24608l56.126038 0l0 52.603485l-56.126038 0z" fill-rule="evenodd"/><path fill="#ffffff" d="m491.83072 113.24608l56.125946 0l0 52.603485l-56.125946 0z" fill-rule="evenodd"/><path stroke="#000000" stroke-width="1.0" stroke-linejoin="round" stroke-linecap="butt" d="m491.83072 113.24608l56.125946 0l0 52.603485l-56.125946 0z" fill-rule="evenodd"/><path fill="#ffffff" d="m267.32678 113.24516l56.125977 0l0 52.59842l-56.125977 0z" fill-rule="evenodd"/><path stroke="#ff0000" stroke-width="1.0" stroke-linejoin="round" stroke-linecap="butt" d="m267.32678 113.24516l56.125977 0l0 52.59842l-56.125977 0z" fill-rule="evenodd"/><path fill="#ffffff" d="m141.2979 123.8418l56.12599 0l0 52.598434l-56.12599 0z" fill-rule="evenodd"/><path stroke="#ff0000" stroke-width="1.0" stroke-linejoin="round" stroke-linecap="butt" d="m141.2979 123.8418l56.12599 0l0 52.598434l-56.12599 0z" fill-rule="evenodd"/><path fill="#ffffff" d="m197.42389 123.8418l56.125977 0l0 52.598434l-56.125977 0z" fill-rule="evenodd"/><path stroke="#ff0000" stroke-width="1.0" stroke-linejoin="round" stroke-linecap="butt" d="m197.42389 123.8418l56.125977 0l0 52.598434l-56.125977 0z" fill-rule="evenodd"/><path fill="#ffffff" d="m365.80185 123.8418l56.125977 0l0 52.598434l-56.125977 0z" fill-rule="evenodd"/><path stroke="#000000" stroke-width="1.0" stroke-linejoin="round" stroke-linecap="butt" d="m365.80185 123.8418l56.125977 0l0 52.598434l-56.125977 0z" fill-rule="evenodd"/><path fill="#b7b7b7" d="m421.92783 123.843l56.125977 0l0 52.603485l-56.125977 0z" fill-rule="evenodd"/><path stroke="#000000" stroke-width="1.0" stroke-linejoin="round" stroke-linecap="butt" d="m421.92783 123.843l56.125977 0l0 52.603485l-56.125977 0z" fill-rule="evenodd"/><path fill="#ffffff" d="m309.67584 123.8418l56.126007 0l0 52.598434l-56.126007 0z" fill-rule="evenodd"/><path stroke="#000000" stroke-width="1.0" stroke-linejoin="round" stroke-linecap="butt" d="m309.67584 123.8418l56.126007 0l0 52.598434l-56.126007 0z" fill-rule="evenodd"/><path fill="#ffffff" d="m534.1798 123.843l56.125977 0l0 52.603485l-56.125977 0z" fill-rule="evenodd"/><path stroke="#000000" stroke-width="1.0" stroke-linejoin="round" stroke-linecap="butt" d="m534.1798 123.843l56.125977 0l0 52.603485l-56.125977 0z" fill-rule="evenodd"/><path fill="#ffffff" d="m478.0538 123.843l56.126007 0l0 52.603485l-56.126007 0z" fill-rule="evenodd"/><path stroke="#000000" stroke-width="1.0" stroke-linejoin="round" stroke-linecap="butt" d="m478.0538 123.843l56.126007 0l0 52.603485l-56.126007 0z" fill-rule="evenodd"/><path fill="#ffffff" d="m253.54987 123.8418l56.125977 0l0 52.598434l-56.125977 0z" fill-rule="evenodd"/><path stroke="#ff0000" stroke-width="1.0" stroke-linejoin="round" stroke-linecap="butt" d="m253.54987 123.8418l56.125977 0l0 52.598434l-56.125977 0z" fill-rule="evenodd"/><path fill="#000000" fill-opacity="0.0" d="m135.28346 109.493805l0 0c0 -8.427948 6.832199 -15.260147 15.260147 -15.260147l175.46396 0c4.047241 0 7.928711 1.6077576 10.790558 4.469597c2.8618164 2.8618317 4.4696045 6.743309 4.4696045 10.79055l0 61.038757c0 8.427948 -6.8322144 15.260147 -15.260162 15.260147l-175.46396 0l0 0c-8.427948 0 -15.260147 -6.832199 -15.260147 -15.260147z" fill-rule="evenodd"/><path stroke="#ff0000" stroke-width="4.0" stroke-linejoin="round" stroke-linecap="butt" d="m135.28346 109.493805l0 0c0 -8.427948 6.832199 -15.260147 15.260147 -15.260147l175.46396 0c4.047241 0 7.928711 1.6077576 10.790558 4.469597c2.8618164 2.8618317 4.4696045 6.743309 4.4696045 10.79055l0 61.038757c0 8.427948 -6.8322144 15.260147 -15.260162 15.260147l-175.46396 0l0 0c-8.427948 0 -15.260147 -6.832199 -15.260147 -15.260147z" fill-rule="evenodd"/></g></svg>