<svg version="1.1" viewBox="0.0 0.0 768.3175853018373 633.6377952755905" fill="none" stroke="none" stroke-linecap="square" stroke-miterlimit="10" xmlns:xlink="http://www.w3.org/1999/xlink" xmlns="http://www.w3.org/2000/svg"><clipPath id="p.0"><path d="m0 0l768.31757 0l0 633.6378l-768.31757 0l0 -633.6378z" clip-rule="nonzero"/></clipPath><g clip-path="url(#p.0)"><path fill="#000000" fill-opacity="0.0" d="m0 0l768.31757 0l0 633.6378l-768.31757 0z" fill-rule="evenodd"/><path fill="#ffffff" d="m510.48703 148.32283l0 56.12599l51.97751 0l0 -56.12599z" fill-rule="evenodd"/><path stroke="#000000" stroke-width="1.0" stroke-linejoin="round" stroke-linecap="butt" d="m510.48703 148.32283l0 56.12599l51.97751 0l0 -56.12599z" fill-rule="evenodd"/><path fill="#b7b7b7" d="m562.46454 148.32283l0 56.12599l51.97754 0l0 -56.12599z" fill-rule="evenodd"/><path stroke="#000000" stroke-width="1.0" stroke-linejoin="round" stroke-linecap="butt" d="m562.46454 148.32283l0 56.12599l51.97754 0l0 -56.12599z" fill-rule="evenodd"/><path fill="#ffffff" d="m614.4421 148.32283l0 56.12599l51.977478 0l0 -56.12599z" fill-rule="evenodd"/><path stroke="#000000" stroke-width="1.0" stroke-linejoin="round" stroke-linecap="butt" d="m614.4421 148.32283l0 56.12599l51.977478 0l0 -56.12599z" fill-rule="evenodd"/><path fill="#b7b7b7" d="m458.51434 148.32283l0 56.12599l51.972504 0l0 -56.12599z" fill-rule="evenodd"/><path stroke="#000000" stroke-width="1.0" stroke-linejoin="round" stroke-linecap="butt" d="m458.51434 148.32283l0 56.12599l51.972504 0l0 -56.12599z" fill-rule="evenodd"/><path fill="#ffffff" d="m198.62608 148.32283l0 56.12599l51.97751 0l0 -56.12599z" fill-rule="evenodd"/><path stroke="#000000" stroke-width="1.0" stroke-linejoin="round" stroke-linecap="butt" d="m198.62608 148.32283l0 56.12599l51.97751 0l0 -56.12599z" fill-rule="evenodd"/><path fill="#b7b7b7" d="m250.60359 148.32283l0 56.12599l51.977493 0l0 -56.12599z" fill-rule="evenodd"/><path stroke="#000000" stroke-width="1.0" stroke-linejoin="round" stroke-linecap="butt" d="m250.60359 148.32283l0 56.12599l51.977493 0l0 -56.12599z" fill-rule="evenodd"/><path fill="#ffffff" d="m302.5811 148.32283l0 56.12599l51.97751 0l0 -56.12599z" fill-rule="evenodd"/><path stroke="#000000" stroke-width="1.0" stroke-linejoin="round" stroke-linecap="butt" d="m302.5811 148.32283l0 56.12599l51.97751 0l0 -56.12599z" fill-rule="evenodd"/><path fill="#ffffff" d="m354.5586 148.32283l0 56.12599l51.97751 0l0 -56.12599z" fill-rule="evenodd"/><path stroke="#000000" stroke-width="1.0" stroke-linejoin="round" stroke-linecap="butt" d="m354.5586 148.32283l0 56.12599l51.97751 0l0 -56.12599z" fill-rule="evenodd"/><path fill="#ffffff" d="m406.5361 148.32283l0 56.12599l51.97751 0l0 -56.12599z" fill-rule="evenodd"/><path stroke="#000000" stroke-width="1.0" stroke-linejoin="round" stroke-linecap="butt" d="m406.5361 148.32283l0 56.12599l51.97751 0l0 -56.12599z" fill-rule="evenodd"/><path fill="#000000" fill-opacity="0.0" d="m335.3421 83.727036l133.25983 0l0 32.53543l-133.25983 0z" fill-rule="evenodd"/><path fill="#000000" d="m360.80276 106.35016l1.65625 -0.140625q0.125 1.0 0.546875 1.640625q0.4375 0.640625 1.34375 1.046875q0.921875 0.390625 2.0625 0.390625q1.0 0 1.78125 -0.296875q0.78125 -0.296875 1.15625 -0.8125q0.375 -0.53125 0.375 -1.15625q0 -0.625 -0.375 -1.09375q-0.359375 -0.46875 -1.1875 -0.796875q-0.546875 -0.203125 -2.390625 -0.640625q-1.828125 -0.453125 -2.5625 -0.84375q-0.96875 -0.5 -1.4375 -1.234375q-0.46875 -0.75 -0.46875 -1.671875q0 -1.0 0.578125 -1.875q0.578125 -0.890625 1.671875 -1.34375q1.109375 -0.453125 2.453125 -0.453125q1.484375 0 2.609375 0.484375q1.140625 0.46875 1.75 1.40625q0.609375 0.921875 0.65625 2.09375l-1.6875 0.125q-0.140625 -1.265625 -0.9375 -1.90625q-0.78125 -0.65625 -2.3125 -0.65625q-1.609375 0 -2.34375 0.59375q-0.734375 0.59375 -0.734375 1.421875q0 0.71875 0.53125 1.171875q0.5 0.46875 2.65625 0.96875q2.15625 0.484375 2.953125 0.84375q1.171875 0.53125 1.71875 1.359375q0.5625 0.828125 0.5625 1.90625q0 1.0625 -0.609375 2.015625q-0.609375 0.9375 -1.75 1.46875q-1.140625 0.515625 -2.578125 0.515625q-1.8125 0 -3.046875 -0.53125q-1.21875 -0.53125 -1.921875 -1.59375q-0.6875 -1.0625 -0.71875 -2.40625zm19.459198 1.1875l1.6875 0.203125q-0.40625 1.484375 -1.484375 2.3125q-1.078125 0.8125 -2.765625 0.8125q-2.125 0 -3.375 -1.296875q-1.234375 -1.3125 -1.234375 -3.671875q0 -2.453125 1.25 -3.796875q1.265625 -1.34375 3.265625 -1.34375q1.9375 0 3.15625 1.328125q1.234375 1.3125 1.234375 3.703125q0 0.15625 0 0.4375l-7.21875 0q0.09375 1.59375 0.90625 2.453125q0.8125 0.84375 2.015625 0.84375q0.90625 0 1.546875 -0.46875q0.640625 -0.484375 1.015625 -1.515625zm-5.390625 -2.65625l5.40625 0q-0.109375 -1.21875 -0.625 -1.828125q-0.78125 -0.953125 -2.03125 -0.953125q-1.125 0 -1.90625 0.765625q-0.765625 0.75 -0.84375 2.015625zm15.297607 9.46875l0 -4.734375q-0.375 0.546875 -1.0625 0.90625q-0.6875 0.34375 -1.46875 0.34375q-1.71875 0 -2.96875 -1.375q-1.234375 -1.375 -1.234375 -3.765625q0 -1.46875 0.5 -2.625q0.515625 -1.15625 1.46875 -1.75q0.96875 -0.59375 2.109375 -0.59375q1.796875 0 2.828125 1.515625l0 -1.296875l1.46875 0l0 13.375l-1.640625 0zm-5.046875 -8.5625q0 1.859375 0.78125 2.796875q0.78125 0.9375 1.875 0.9375q1.046875 0 1.796875 -0.890625q0.765625 -0.890625 0.765625 -2.703125q0 -1.9375 -0.796875 -2.90625q-0.796875 -0.96875 -1.875 -0.96875q-1.0625 0 -1.8125 0.90625q-0.734375 0.90625 -0.734375 2.828125zm15.594452 4.859375l0 -1.421875q-1.125 1.640625 -3.0625 1.640625q-0.859375 0 -1.609375 -0.328125q-0.734375 -0.328125 -1.09375 -0.828125q-0.359375 -0.5 -0.5 -1.21875q-0.109375 -0.46875 -0.109375 -1.53125l0 -5.984375l1.640625 0l0 5.359375q0 1.28125 0.109375 1.734375q0.15625 0.640625 0.65625 1.015625q0.5 0.375 1.234375 0.375q0.734375 0 1.375 -0.375q0.65625 -0.390625 0.921875 -1.03125q0.265625 -0.65625 0.265625 -1.890625l0 -5.1875l1.640625 0l0 9.671875l-1.46875 0zm10.672607 -3.109375l1.6875 0.203125q-0.40625 1.484375 -1.484375 2.3125q-1.078125 0.8125 -2.765625 0.8125q-2.125 0 -3.375 -1.296875q-1.234375 -1.3125 -1.234375 -3.671875q0 -2.453125 1.25 -3.796875q1.265625 -1.34375 3.265625 -1.34375q1.9375 0 3.15625 1.328125q1.234375 1.3125 1.234375 3.703125q0 0.15625 0 0.4375l-7.21875 0q0.09375 1.59375 0.90625 2.453125q0.8125 0.84375 2.015625 0.84375q0.90625 0 1.546875 -0.46875q0.640625 -0.484375 1.015625 -1.515625zm-5.390625 -2.65625l5.40625 0q-0.109375 -1.21875 -0.625 -1.828125q-0.78125 -0.953125 -2.03125 -0.953125q-1.125 0 -1.90625 0.765625q-0.765625 0.75 -0.84375 2.015625zm9.141327 5.765625l0 -9.671875l1.46875 0l0 1.375q1.0625 -1.59375 3.078125 -1.59375q0.875 0 1.609375 0.3125q0.734375 0.3125 1.09375 0.828125q0.375 0.5 0.515625 1.203125q0.09375 0.453125 0.09375 1.59375l0 5.953125l-1.640625 0l0 -5.890625q0 -1.0 -0.203125 -1.484375q-0.1875 -0.5 -0.671875 -0.796875q-0.484375 -0.296875 -1.140625 -0.296875q-1.046875 0 -1.8125 0.671875q-0.75 0.65625 -0.75 2.515625l0 5.28125l-1.640625 0zm16.688232 -3.546875l1.609375 0.21875q-0.265625 1.65625 -1.359375 2.609375q-1.078125 0.9375 -2.671875 0.9375q-1.984375 0 -3.1875 -1.296875q-1.203125 -1.296875 -1.203125 -3.71875q0 -1.578125 0.515625 -2.75q0.515625 -1.171875 1.578125 -1.75q1.0625 -0.59375 2.3125 -0.59375q1.578125 0 2.578125 0.796875q1.0 0.796875 1.28125 2.265625l-1.59375 0.234375q-0.234375 -0.96875 -0.8125 -1.453125q-0.578125 -0.5 -1.390625 -0.5q-1.234375 0 -2.015625 0.890625q-0.78125 0.890625 -0.78125 2.8125q0 1.953125 0.75 2.84375q0.75 0.875 1.953125 0.875q0.96875 0 1.609375 -0.59375q0.65625 -0.59375 0.828125 -1.828125zm9.640625 0.4375l1.6875 0.203125q-0.40625 1.484375 -1.484375 2.3125q-1.078125 0.8125 -2.765625 0.8125q-2.125 0 -3.375 -1.296875q-1.234375 -1.3125 -1.234375 -3.671875q0 -2.453125 1.25 -3.796875q1.265625 -1.34375 3.265625 -1.34375q1.9375 0 3.15625 1.328125q1.234375 1.3125 1.234375 3.703125q0 0.15625 0 0.4375l-7.21875 0q0.09375 1.59375 0.90625 2.453125q0.8125 0.84375 2.015625 0.84375q0.90625 0 1.546875 -0.46875q0.640625 -0.484375 1.015625 -1.515625zm-5.390625 -2.65625l5.40625 0q-0.109375 -1.21875 -0.625 -1.828125q-0.78125 -0.953125 -2.03125 -0.953125q-1.125 0 -1.90625 0.765625q-0.765625 0.75 -0.84375 2.015625z" fill-rule="nonzero"/><path fill="#ffffff" d="m445.77774 159.19463l0 56.125977l-52.603485 0l0 -56.125977z" fill-rule="evenodd"/><path stroke="#000000" stroke-width="1.0" stroke-linejoin="round" stroke-linecap="butt" d="m445.77774 159.19463l0 56.125977l-52.603485 0l0 -56.125977z" fill-rule="evenodd"/><path fill="#b7b7b7" d="m393.17426 159.19463l0 56.125977l-52.603485 0l0 -56.125977z" fill-rule="evenodd"/><path stroke="#000000" stroke-width="1.0" stroke-linejoin="round" stroke-linecap="butt" d="m393.17426 159.19463l0 56.125977l-52.603485 0l0 -56.125977z" fill-rule="evenodd"/><path fill="#ffffff" d="m340.57077 159.19463l0 56.125977l-52.603485 0l0 -56.125977z" fill-rule="evenodd"/><path stroke="#000000" stroke-width="1.0" stroke-linejoin="round" stroke-linecap="butt" d="m340.57077 159.19463l0 56.125977l-52.603485 0l0 -56.125977z" fill-rule="evenodd"/><path fill="#ffffff" d="m287.9673 159.19463l0 56.125977l-52.603485 0l0 -56.125977z" fill-rule="evenodd"/><path stroke="#000000" stroke-width="1.0" stroke-linejoin="round" stroke-linecap="butt" d="m287.9673 159.19463l0 56.125977l-52.603485 0l0 -56.125977z" fill-rule="evenodd"/><path fill="#ffffff" d="m235.3638 159.19463l0 56.125977l-52.6035 0l0 -56.125977z" fill-rule="evenodd"/><path stroke="#000000" stroke-width="1.0" stroke-linejoin="round" stroke-linecap="butt" d="m235.3638 159.19463l0 56.125977l-52.6035 0l0 -56.125977z" fill-rule="evenodd"/><path fill="#b7b7b7" d="m498.37637 159.19463l0 56.125977l-52.59845 0l0 -56.125977z" fill-rule="evenodd"/><path stroke="#000000" stroke-width="1.0" stroke-linejoin="round" stroke-linecap="butt" d="m498.37637 159.19463l0 56.125977l-52.59845 0l0 -56.125977z" fill-rule="evenodd"/><path fill="#ffffff" d="m656.18756 159.19463l0 56.125977l-52.603455 0l0 -56.125977z" fill-rule="evenodd"/><path stroke="#000000" stroke-width="1.0" stroke-linejoin="round" stroke-linecap="butt" d="m656.18756 159.19463l0 56.125977l-52.603455 0l0 -56.125977z" fill-rule="evenodd"/><path fill="#ffffff" d="m603.5841 159.19463l0 56.125977l-52.603516 0l0 -56.125977z" fill-rule="evenodd"/><path stroke="#000000" stroke-width="1.0" stroke-linejoin="round" stroke-linecap="butt" d="m603.5841 159.19463l0 56.125977l-52.603516 0l0 -56.125977z" fill-rule="evenodd"/><path fill="#ffffff" d="m550.9806 159.19463l0 56.125977l-52.603485 0l0 -56.125977z" fill-rule="evenodd"/><path stroke="#000000" stroke-width="1.0" stroke-linejoin="round" stroke-linecap="butt" d="m550.9806 159.19463l0 56.125977l-52.603485 0l0 -56.125977z" fill-rule="evenodd"/><path fill="#ffffff" d="m484.74307 170.0647l0 56.12599l-52.59845 0l0 -56.12599z" fill-rule="evenodd"/><path stroke="#000000" stroke-width="1.0" stroke-linejoin="round" stroke-linecap="butt" d="m484.74307 170.0647l0 56.12599l-52.59845 0l0 -56.12599z" fill-rule="evenodd"/><path fill="#ffffff" d="m537.34015 170.0647l0 56.12599l-52.59839 0l0 -56.12599z" fill-rule="evenodd"/><path stroke="#000000" stroke-width="1.0" stroke-linejoin="round" stroke-linecap="butt" d="m537.34015 170.0647l0 56.12599l-52.59839 0l0 -56.12599z" fill-rule="evenodd"/><path fill="#ffffff" d="m432.1452 170.0647l0 56.12599l-52.603485 0l0 -56.12599z" fill-rule="evenodd"/><path stroke="#000000" stroke-width="1.0" stroke-linejoin="round" stroke-linecap="butt" d="m432.1452 170.0647l0 56.12599l-52.603485 0l0 -56.12599z" fill-rule="evenodd"/><path fill="#b7b7b7" d="m379.54172 170.0647l0 56.12599l-52.603485 0l0 -56.12599z" fill-rule="evenodd"/><path stroke="#000000" stroke-width="1.0" stroke-linejoin="round" stroke-linecap="butt" d="m379.54172 170.0647l0 56.12599l-52.603485 0l0 -56.12599z" fill-rule="evenodd"/><path fill="#ffffff" d="m221.73125 170.0647l0 56.12599l-52.603485 0l0 -56.12599z" fill-rule="evenodd"/><path stroke="#000000" stroke-width="1.0" stroke-linejoin="round" stroke-linecap="butt" d="m221.73125 170.0647l0 56.12599l-52.603485 0l0 -56.12599z" fill-rule="evenodd"/><path fill="#ffffff" d="m642.55505 170.0647l0 56.12599l-52.603516 0l0 -56.12599z" fill-rule="evenodd"/><path stroke="#000000" stroke-width="1.0" stroke-linejoin="round" stroke-linecap="butt" d="m642.55505 170.0647l0 56.12599l-52.603516 0l0 -56.12599z" fill-rule="evenodd"/><path fill="#ffffff" d="m589.95154 170.0647l0 56.12599l-52.603516 0l0 -56.12599z" fill-rule="evenodd"/><path stroke="#000000" stroke-width="1.0" stroke-linejoin="round" stroke-linecap="butt" d="m589.95154 170.0647l0 56.12599l-52.603516 0l0 -56.12599z" fill-rule="evenodd"/><path fill="#b7b7b7" d="m274.4446 170.0647l0 56.12599l-52.598434 0l0 -56.12599z" fill-rule="evenodd"/><path stroke="#000000" stroke-width="1.0" stroke-linejoin="round" stroke-linecap="butt" d="m274.4446 170.0647l0 56.12599l-52.598434 0l0 -56.12599z" fill-rule="evenodd"/><path fill="#b7b7b7" d="m327.04303 170.0647l0 56.12599l-52.59842 0l0 -56.12599z" fill-rule="evenodd"/><path stroke="#000000" stroke-width="1.0" stroke-linejoin="round" stroke-linecap="butt" d="m327.04303 170.0647l0 56.12599l-52.59842 0l0 -56.12599z" fill-rule="evenodd"/><path fill="#000000" fill-opacity="0.0" d="m125.46457 183.72441l58.204727 -66.20473" fill-rule="evenodd"/><path stroke="#000000" stroke-width="1.0" stroke-linejoin="round" stroke-linecap="butt" d="m125.46457 183.72441l54.243088 -61.698578" fill-rule="evenodd"/><path fill="#000000" stroke="#000000" stroke-width="1.0" stroke-linecap="butt" d="m180.94815 123.11643l1.7558899 -4.498825l-4.2368774 2.3176346z" fill-rule="evenodd"/><path fill="#000000" fill-opacity="0.0" d="m84.45767 155.87445l61.732285 -73.79528l24.944885 20.850395l-61.732292 73.79527z" fill-rule="evenodd"/><path fill="#000000" d="m117.12444 151.47423l1.4805527 -1.0636597q1.3054886 1.8243256 1.2702942 3.6684418q-0.047180176 1.8341064 -1.3906021 3.440033q-1.3835144 1.6538696 -2.9270935 2.1353607q-1.5455399 0.45950317 -3.277504 -0.05140686q-1.7339172 -0.5329132 -3.2085114 -1.7654724q-1.5944824 -1.3327484 -2.27005 -2.93602q-0.6875534 -1.6132812 -0.35656738 -3.2509003q0.32901764 -1.6596069 1.4618988 -3.0138702q1.2832642 -1.5340118 2.9347382 -1.9253235q1.661499 -0.40330505 3.4290085 0.3816986l-0.8011322 1.5908203q-1.4157028 -0.5723877 -2.4906769 -0.3101349q-1.0769348 0.24023438 -1.9291 1.2589264q-0.9925232 1.1864777 -1.090744 2.4484253q-0.098220825 1.2619629 0.5901718 2.387207q0.67640686 1.1152191 1.6954346 1.96698q1.3067551 1.0922546 2.5986404 1.5204315q1.291893 0.42817688 2.4551315 0.03605652q1.1512527 -0.40213013 1.9332428 -1.3369293q0.9524231 -1.1385345 0.9547348 -2.4806519q0.0023117065 -1.3421326 -1.0618668 -2.7000122zm5.9953537 0.13868713l-10.250214 -8.5677185l1.0526733 -1.2583923l3.6804886 3.0763702q-0.28716278 -1.7266388 0.83569336 -3.0689087q0.6917572 -0.8269348 1.5167236 -1.1556091q0.83499146 -0.34065247 1.6310043 -0.123306274q0.7960129 0.21733093 1.8869705 1.1292114l4.6995163 3.928131l-1.052681 1.2583771l-4.6995163 -3.9281158q-0.94709015 -0.79164124 -1.7195511 -0.7449188q-0.7724533 0.04673767 -1.4040604 0.8017578q-0.461174 0.5512848 -0.57250214 1.2931824q-0.12332153 0.7318573 0.18775177 1.358429q0.32109833 0.6145935 1.1962585 1.3460999l4.064125 3.3970337l-1.052681 1.2583771zm9.79657 -13.5616455q-0.0040740967 1.1981049 -0.2936859 2.0557098q-0.2915802 0.8356018 -0.91316223 1.5786438q-1.0225983 1.2224274 -2.1734314 1.380539q-1.1508331 0.15811157 -2.073944 -0.6134796q-0.5514755 -0.46095276 -0.7845154 -1.0834045q-0.24503326 -0.63246155 -0.17794037 -1.2484131q0.06513214 -0.63793945 0.34233856 -1.2615509q0.20485687 -0.43969727 0.7405548 -1.2748871q1.0934143 -1.6723633 1.4431763 -2.6018677q-0.25372314 -0.23243713 -0.31365967 -0.282547q-0.7672653 -0.6413269 -1.3917236 -0.5523529q-0.8206177 0.12866211 -1.6226578 1.0874329q-0.74188995 0.8868561 -0.78108215 1.5668488q-0.03918457 0.68000793 0.5696335 1.5350952l-1.2004623 1.0941162q-0.63890076 -0.8191376 -0.7976303 -1.6034698q-0.17071533 -0.7943573 0.1770935 -1.7458649q0.34780884 -0.9515228 1.1398239 -1.8983002q0.8020401 -0.95877075 1.5210724 -1.3556213q0.71707153 -0.41885376 1.2953262 -0.40390015q0.57629395 -0.0070495605 1.1820221 0.31599426q0.37382507 0.21063232 1.213028 0.91207886l1.6783905 1.4029083q1.7503357 1.463028 2.2880707 1.7699432q0.5257416 0.29689026 1.1478119 0.42993164l-1.0927887 1.3063202q-0.5660553 -0.12693787 -1.1216583 -0.50990295zm-2.907547 -2.2470093q-0.28372192 0.9236145 -1.2348175 2.4501953q-0.5437622 0.8691864 -0.670578 1.3130188q-0.12683105 0.4438324 -0.013458252 0.8440552q0.12338257 0.38822937 0.45906067 0.66882324q0.5035248 0.42086792 1.1600189 0.31793213q0.65649414 -0.10292053 1.2680511 -0.8339844q0.601532 -0.71907043 0.7610321 -1.5428772q0.15753174 -0.8458252 -0.17338562 -1.5704346q-0.26115417 -0.56448364 -1.0883636 -1.2559204l-0.4675598 -0.3908081zm6.425766 -0.10795593l-7.4209137 -6.202835l0.9423981 -1.1265411l1.0549927 0.8818207q-0.5411072 -1.8370667 0.752182 -3.383072q0.5614319 -0.67113495 1.2723999 -1.0339966q0.710968 -0.36286163 1.3371887 -0.30782318q0.62423706 0.03303528 1.253952 0.37610626q0.40782166 0.2186966 1.2829895 0.9502106l4.567642 3.8179016l-1.0526733 1.2583771l-4.519699 -3.7778168q-0.7672577 -0.6413269 -1.2692413 -0.7961731q-0.50393677 -0.17684937 -1.042511 0.0042800903q-0.5385742 0.18112946 -0.9596405 0.68447876q-0.67170715 0.8029709 -0.6474457 1.8210983q0.02229309 0.9961395 1.4489288 2.1885986l4.052124 3.3870087l-1.0526733 1.2583771zm6.6573944 -7.9582977l-7.4209137 -6.202835l0.9423981 -1.1265488l1.0549927 0.8818207q-0.5411072 -1.837059 0.75219727 -3.383072q0.5614166 -0.67113495 1.2723846 -1.0339966q0.7109833 -0.36286163 1.3371887 -0.30782318q0.62423706 0.03303528 1.253952 0.37610626q0.40782166 0.2186966 1.2829895 0.9502106l4.567642 3.8179016l-1.0526733 1.2583771l-4.519699 -3.7778168q-0.7672577 -0.6413269 -1.2692413 -0.7961731q-0.50393677 -0.17684937 -1.042511 0.0042800903q-0.5385742 0.18112946 -0.9596405 0.68447876q-0.67170715 0.8029709 -0.6474457 1.821106q0.02229309 0.9961319 1.4489288 2.1885986l4.052124 3.3870087l-1.0526733 1.2583771zm8.522491 -15.03389l1.2386017 -1.1640625q0.8782501 1.2635727 0.82188416 2.621605q-0.068359375 1.3480148 -1.1511078 2.6423492q-1.3634644 1.6298981 -3.1605682 1.7569427q-1.7990417 0.105041504 -3.609314 -1.4080887q-1.8822021 -1.5732574 -2.1111908 -3.3938065q-0.21894836 -1.8325348 1.0643158 -3.366562q1.2431641 -1.486084 3.0441895 -1.5691147q1.7990417 -0.105041504 3.6333008 1.4281311q0.119888306 0.10020447 0.3356781 0.2805786l-4.63179 5.536873q1.2829895 0.9502106 2.463684 0.87815094q1.1687164 -0.08207703 1.9406738 -1.0048904q0.58148193 -0.6951065 0.63287354 -1.4870911q0.039398193 -0.8020172 -0.51123047 -1.7510147zm-5.4968567 2.4311523l3.4688263 -4.14666q-1.0052948 -0.6977234 -1.8036804 -0.69304657q-1.2325745 -0.012031555 -2.0346222 0.94673157q-0.7218323 0.86289215 -0.6356659 1.9531326q0.084198 1.0682449 1.0051422 1.9398422zm10.259079 -3.277916l-10.250214 -8.567734l1.0526733 -1.2583771l10.250214 8.567734l-1.0526733 1.2583771z" fill-rule="nonzero"/><path fill="#000000" fill-opacity="0.0" d="m343.34122 121.891075l122.299194 -0.15747833" fill-rule="evenodd"/><path stroke="#000000" stroke-width="1.0" stroke-linejoin="round" stroke-linecap="butt" d="m343.34122 121.891075l116.299194 -0.14974976" fill-rule="evenodd"/><path fill="#000000" stroke="#000000" stroke-width="1.0" stroke-linecap="butt" d="m459.64255 123.39305l4.53598 -1.6575699l-4.540222 -1.6458893z" fill-rule="evenodd"/><path fill="#000000" fill-opacity="0.0" d="m159.48032 174.65117l0 0c0 -6.8072968 5.518402 -12.325714 12.325699 -12.325714l153.49034 0c3.2689514 0 6.4040527 1.2985992 8.715576 3.6101227c2.3115234 2.3115234 3.6101074 5.4466095 3.6101074 8.715591l0 49.301346c0 6.8072968 -5.518402 12.325699 -12.325684 12.325699l-153.49034 0c-6.8072968 0 -12.325699 -5.518402 -12.325699 -12.325699z" fill-rule="evenodd"/><path stroke="#ff0000" stroke-width="4.0" stroke-linejoin="round" stroke-linecap="butt" d="m159.48032 174.65117l0 0c0 -6.8072968 5.518402 -12.325714 12.325699 -12.325714l153.49034 0c3.2689514 0 6.4040527 1.2985992 8.715576 3.6101227c2.3115234 2.3115234 3.6101074 5.4466095 3.6101074 8.715591l0 49.301346c0 6.8072968 -5.518402 12.325699 -12.325684 12.325699l-153.49034 0c-6.8072968 0 -12.325699 -5.518402 -12.325699 -12.325699z" fill-rule="evenodd"/><path fill="#000000" fill-opacity="0.0" d="m242.80577 256.9449l88.25197 138.92914" fill-rule="evenodd"/><path stroke="#ff0000" stroke-width="2.0" stroke-linejoin="round" stroke-linecap="butt" d="m242.80577 256.9449l81.81764 128.79999" fill-rule="evenodd"/><path fill="#ff0000" stroke="#ff0000" stroke-width="2.0" stroke-linecap="butt" d="m321.83496 387.51617l7.65506 5.889862l-2.078186 -9.432465z" fill-rule="evenodd"/><path fill="#000000" fill-opacity="0.0" d="m317.2257 174.65117l0 0c0 -6.8072968 5.5184326 -12.325714 12.325714 -12.325714l153.49033 0c3.268982 0 6.4040833 1.2985992 8.715576 3.6101227c2.3115234 2.3115234 3.610138 5.4466095 3.610138 8.715591l0 49.301346c0 6.8072968 -5.518402 12.325699 -12.325714 12.325699l-153.49033 0c-6.8072815 0 -12.325714 -5.518402 -12.325714 -12.325699z" fill-rule="evenodd"/><path stroke="#4a86e8" stroke-width="4.0" stroke-linejoin="round" stroke-linecap="butt" d="m317.2257 174.65117l0 0c0 -6.8072968 5.5184326 -12.325714 12.325714 -12.325714l153.49033 0c3.268982 0 6.4040833 1.2985992 8.715576 3.6101227c2.3115234 2.3115234 3.610138 5.4466095 3.610138 8.715591l0 49.301346c0 6.8072968 -5.518402 12.325699 -12.325714 12.325699l-153.49033 0c-6.8072815 0 -12.325714 -5.518402 -12.325714 -12.325699z" fill-rule="evenodd"/><path fill="#000000" fill-opacity="0.0" d="m476.8504 174.65117l0 0c0 -6.8072968 5.518402 -12.325714 12.325684 -12.325714l153.49036 0c3.268982 0 6.4040527 1.2985992 8.715576 3.6101227c2.3115234 2.3115234 3.6101074 5.4466095 3.6101074 8.715591l0 49.301346c0 6.8072968 -5.5184326 12.325699 -12.325684 12.325699l-153.49036 0c-6.8072815 0 -12.325684 -5.518402 -12.325684 -12.325699z" fill-rule="evenodd"/><path stroke="#93c47d" stroke-width="4.0" stroke-linejoin="round" stroke-linecap="butt" d="m476.8504 174.65117l0 0c0 -6.8072968 5.518402 -12.325714 12.325684 -12.325714l153.49036 0c3.268982 0 6.4040527 1.2985992 8.715576 3.6101227c2.3115234 2.3115234 3.6101074 5.4466095 3.6101074 8.715591l0 49.301346c0 6.8072968 -5.5184326 12.325699 -12.325684 12.325699l-153.49036 0c-6.8072815 0 -12.325684 -5.518402 -12.325684 -12.325699z" fill-rule="evenodd"/><path fill="#000000" fill-opacity="0.0" d="m409.95493 261.692l0.881897 138.86615" fill-rule="evenodd"/><path stroke="#4a86e8" stroke-width="2.0" stroke-linejoin="round" stroke-linecap="butt" d="m409.95493 261.692l0.8056946 126.866425" fill-rule="evenodd"/><path fill="#4a86e8" stroke="#4a86e8" stroke-width="2.0" stroke-linecap="butt" d="m407.4572 388.57938l3.361023 9.055023l3.2457886 -9.096985z" fill-rule="evenodd"/><path fill="#000000" fill-opacity="0.0" d="m577.0735 257.43307l-85.51181 139.37009" fill-rule="evenodd"/><path stroke="#93c47d" stroke-width="2.0" stroke-linejoin="round" stroke-linecap="butt" d="m577.0735 257.43307l-79.236176 129.14185" fill-rule="evenodd"/><path fill="#93c47d" stroke="#93c47d" stroke-width="2.0" stroke-linecap="butt" d="m495.02158 384.84732l-1.9308472 9.463715l7.5622864 -6.0085144z" fill-rule="evenodd"/><path fill="#ffffff" d="m485.19507 423.59488l0 56.125977l-52.59842 0l0 -56.125977z" fill-rule="evenodd"/><path stroke="#000000" stroke-width="1.0" stroke-linejoin="round" stroke-linecap="butt" d="m485.19507 423.59488l0 56.125977l-52.59842 0l0 -56.125977z" fill-rule="evenodd"/><path fill="#b7b7b7" d="m379.9984 423.59488l0 56.125977l-52.59842 0l0 -56.125977z" fill-rule="evenodd"/><path stroke="#000000" stroke-width="1.0" stroke-linejoin="round" stroke-linecap="butt" d="m379.9984 423.59488l0 56.125977l-52.59842 0l0 -56.125977z" fill-rule="evenodd"/><path fill="#b7b7b7" d="m432.59683 423.16968l0 56.125977l-52.59842 0l0 -56.125977z" fill-rule="evenodd"/><path stroke="#000000" stroke-width="1.0" stroke-linejoin="round" stroke-linecap="butt" d="m432.59683 423.16968l0 56.125977l-52.59842 0l0 -56.125977z" fill-rule="evenodd"/><path fill="#000000" fill-opacity="0.0" d="m327.39896 423.1706l52.125977 0l0 56.53543l-52.125977 0z" fill-rule="evenodd"/><path stroke="#ff0000" stroke-width="3.0" stroke-linejoin="round" stroke-linecap="butt" d="m327.39896 423.1706l52.125977 0l0 56.53543l-52.125977 0z" fill-rule="evenodd"/><path fill="#000000" fill-opacity="0.0" d="m380.9265 423.1706l52.125977 0l0 56.53543l-52.125977 0z" fill-rule="evenodd"/><path stroke="#4a86e8" stroke-width="3.0" stroke-linejoin="round" stroke-linecap="butt" d="m380.9265 423.1706l52.125977 0l0 56.53543l-52.125977 0z" fill-rule="evenodd"/><path fill="#000000" fill-opacity="0.0" d="m434.43832 423.39108l52.125977 0l0 56.53543l-52.125977 0z" fill-rule="evenodd"/><path stroke="#93c47d" stroke-width="3.0" stroke-linejoin="round" stroke-linecap="butt" d="m434.43832 423.39108l52.125977 0l0 56.53543l-52.125977 0z" fill-rule="evenodd"/></g></svg>