<svg version="1.1" viewBox="0.0 0.0 1435.9317585301837 620.2808398950132" fill="none" stroke="none" stroke-linecap="square" stroke-miterlimit="10" xmlns:xlink="http://www.w3.org/1999/xlink" xmlns="http://www.w3.org/2000/svg"><clipPath id="p.0"><path d="m0 0l1435.9318 0l0 620.2808l-1435.9318 0l0 -620.2808z" clip-rule="nonzero"/></clipPath><g clip-path="url(#p.0)"><path fill="#000000" fill-opacity="0.0" d="m0 0l1435.9318 0l0 620.2808l-1435.9318 0z" fill-rule="evenodd"/><path fill="#ff0000" d="m235.23097 200.72704l102.04726 0l0 88.598434l-102.04726 0z" fill-rule="evenodd"/><path stroke="#000000" stroke-width="1.0" stroke-linejoin="round" stroke-linecap="butt" d="m235.23097 200.72704l102.04726 0l0 88.598434l-102.04726 0z" fill-rule="evenodd"/><path fill="#ffffff" d="m337.27823 200.72704l102.04724 0l0 88.598434l-102.04724 0z" fill-rule="evenodd"/><path stroke="#000000" stroke-width="1.0" stroke-linejoin="round" stroke-linecap="butt" d="m337.27823 200.72704l102.04724 0l0 88.598434l-102.04724 0z" fill-rule="evenodd"/><path fill="#ff0000" d="m439.32547 200.72704l102.04721 0l0 88.598434l-102.04721 0z" fill-rule="evenodd"/><path stroke="#000000" stroke-width="1.0" stroke-linejoin="round" stroke-linecap="butt" d="m439.32547 200.72704l102.04721 0l0 88.598434l-102.04721 0z" fill-rule="evenodd"/><path fill="#ffffff" d="m541.3727 200.72704l102.04724 0l0 88.598434l-102.04724 0z" fill-rule="evenodd"/><path stroke="#000000" stroke-width="1.0" stroke-linejoin="round" stroke-linecap="butt" d="m541.3727 200.72704l102.04724 0l0 88.598434l-102.04724 0z" fill-rule="evenodd"/><path fill="#ff9900" d="m235.23097 289.32547l102.04726 0l0 88.59842l-102.04726 0z" fill-rule="evenodd"/><path stroke="#000000" stroke-width="1.0" stroke-linejoin="round" stroke-linecap="butt" d="m235.23097 289.32547l102.04726 0l0 88.59842l-102.04726 0z" fill-rule="evenodd"/><path fill="#00ff00" d="m337.27823 289.32547l102.04724 0l0 88.59842l-102.04724 0z" fill-rule="evenodd"/><path stroke="#000000" stroke-width="1.0" stroke-linejoin="round" stroke-linecap="butt" d="m337.27823 289.32547l102.04724 0l0 88.59842l-102.04724 0z" fill-rule="evenodd"/><path fill="#ff9900" d="m439.32547 289.32547l102.04721 0l0 88.59842l-102.04721 0z" fill-rule="evenodd"/><path stroke="#000000" stroke-width="1.0" stroke-linejoin="round" stroke-linecap="butt" d="m439.32547 289.32547l102.04721 0l0 88.59842l-102.04721 0z" fill-rule="evenodd"/><path fill="#ffffff" d="m541.3727 289.32547l102.04724 0l0 88.59842l-102.04724 0z" fill-rule="evenodd"/><path stroke="#000000" stroke-width="1.0" stroke-linejoin="round" stroke-linecap="butt" d="m541.3727 289.32547l102.04724 0l0 88.59842l-102.04724 0z" fill-rule="evenodd"/><path fill="#ffffff" d="m235.23097 377.9239l102.04726 0l0 88.59842l-102.04726 0z" fill-rule="evenodd"/><path stroke="#000000" stroke-width="1.0" stroke-linejoin="round" stroke-linecap="butt" d="m235.23097 377.9239l102.04726 0l0 88.59842l-102.04726 0z" fill-rule="evenodd"/><path fill="#ffffff" d="m337.27823 377.9239l102.04724 0l0 88.59842l-102.04724 0z" fill-rule="evenodd"/><path stroke="#000000" stroke-width="1.0" stroke-linejoin="round" stroke-linecap="butt" d="m337.27823 377.9239l102.04724 0l0 88.59842l-102.04724 0z" fill-rule="evenodd"/><path fill="#ffffff" d="m439.32547 377.9239l102.04721 0l0 88.59842l-102.04721 0z" fill-rule="evenodd"/><path stroke="#000000" stroke-width="1.0" stroke-linejoin="round" stroke-linecap="butt" d="m439.32547 377.9239l102.04721 0l0 88.59842l-102.04721 0z" fill-rule="evenodd"/><path fill="#ffffff" d="m541.3727 377.9239l102.04724 0l0 88.59842l-102.04724 0z" fill-rule="evenodd"/><path stroke="#000000" stroke-width="1.0" stroke-linejoin="round" stroke-linecap="butt" d="m541.3727 377.9239l102.04724 0l0 88.59842l-102.04724 0z" fill-rule="evenodd"/><path fill="#00ffff" d="m235.23097 466.5223l102.04726 0l0 88.59842l-102.04726 0z" fill-rule="evenodd"/><path stroke="#000000" stroke-width="1.0" stroke-linejoin="round" stroke-linecap="butt" d="m235.23097 466.5223l102.04726 0l0 88.59842l-102.04726 0z" fill-rule="evenodd"/><path fill="#ffffff" d="m337.27823 466.5223l102.04724 0l0 88.59842l-102.04724 0z" fill-rule="evenodd"/><path stroke="#000000" stroke-width="1.0" stroke-linejoin="round" stroke-linecap="butt" d="m337.27823 466.5223l102.04724 0l0 88.59842l-102.04724 0z" fill-rule="evenodd"/><path fill="#00ffff" d="m439.32547 466.5223l102.04721 0l0 88.59842l-102.04721 0z" fill-rule="evenodd"/><path stroke="#000000" stroke-width="1.0" stroke-linejoin="round" stroke-linecap="butt" d="m439.32547 466.5223l102.04721 0l0 88.59842l-102.04721 0z" fill-rule="evenodd"/><path fill="#ffffff" d="m541.3727 466.5223l102.04724 0l0 88.59842l-102.04724 0z" fill-rule="evenodd"/><path stroke="#000000" stroke-width="1.0" stroke-linejoin="round" stroke-linecap="butt" d="m541.3727 466.5223l102.04724 0l0 88.59842l-102.04724 0z" fill-rule="evenodd"/><path fill="#000000" fill-opacity="0.0" d="m221.25197 175.65486l243.49605 0l0 222.11024l-243.49605 0z" fill-rule="evenodd"/><path stroke="#0000ff" stroke-width="4.0" stroke-linejoin="round" stroke-linecap="butt" d="m221.25197 175.65486l243.49605 0l0 222.11024l-243.49605 0z" fill-rule="evenodd"/><path fill="#000000" fill-opacity="0.0" d="m234.32283 106.76509l217.35432 0l0 53.448822l-217.35432 0z" fill-rule="evenodd"/><path fill="#000000" d="m270.0547 146.48509l0 -22.90625l15.453125 0l0 2.703125l-12.421875 0l0 7.09375l10.75 0l0 2.703125l-10.75 0l0 10.40625l-3.03125 0zm29.859375 -2.046875q-1.5625 1.328125 -3.015625 1.875q-1.4375 0.546875 -3.09375 0.546875q-2.734375 0 -4.203125 -1.328125q-1.46875 -1.34375 -1.46875 -3.421875q0 -1.21875 0.546875 -2.21875q0.5625 -1.015625 1.453125 -1.625q0.90625 -0.609375 2.03125 -0.921875q0.828125 -0.21875 2.5 -0.421875q3.40625 -0.40625 5.015625 -0.96875q0.015625 -0.578125 0.015625 -0.734375q0 -1.71875 -0.796875 -2.421875q-1.078125 -0.953125 -3.203125 -0.953125q-1.984375 0 -2.9375 0.703125q-0.9375 0.6875 -1.390625 2.453125l-2.75 -0.375q0.375 -1.765625 1.234375 -2.84375q0.859375 -1.09375 2.484375 -1.671875q1.625 -0.59375 3.765625 -0.59375q2.125 0 3.453125 0.5q1.328125 0.5 1.953125 1.265625q0.625 0.75 0.875 1.90625q0.140625 0.71875 0.140625 2.59375l0 3.75q0 3.921875 0.171875 4.96875q0.1875 1.03125 0.71875 1.984375l-2.9375 0q-0.4375 -0.875 -0.5625 -2.046875zm-0.234375 -6.28125q-1.53125 0.625 -4.59375 1.0625q-1.734375 0.25 -2.453125 0.5625q-0.71875 0.3125 -1.109375 0.921875q-0.390625 0.59375 -0.390625 1.328125q0 1.125 0.84375 1.875q0.859375 0.75 2.5 0.75q1.625 0 2.890625 -0.703125q1.265625 -0.71875 1.859375 -1.953125q0.453125 -0.953125 0.453125 -2.8125l0 -1.03125zm18.03125 2.25l2.765625 0.359375q-0.453125 2.859375 -2.328125 4.484375q-1.859375 1.609375 -4.578125 1.609375q-3.40625 0 -5.484375 -2.21875q-2.0625 -2.234375 -2.0625 -6.390625q0 -2.6875 0.890625 -4.703125q0.890625 -2.015625 2.703125 -3.015625q1.828125 -1.015625 3.96875 -1.015625q2.703125 0 4.421875 1.375q1.71875 1.359375 2.203125 3.875l-2.734375 0.421875q-0.390625 -1.671875 -1.390625 -2.515625q-0.984375 -0.84375 -2.390625 -0.84375q-2.125 0 -3.453125 1.53125q-1.328125 1.515625 -1.328125 4.8125q0 3.34375 1.28125 4.859375q1.28125 1.515625 3.34375 1.515625q1.65625 0 2.765625 -1.015625q1.109375 -1.015625 1.40625 -3.125zm16.53125 0.734375l2.90625 0.359375q-0.6875 2.546875 -2.546875 3.953125q-1.859375 1.40625 -4.75 1.40625q-3.640625 0 -5.78125 -2.234375q-2.125 -2.25 -2.125 -6.296875q0 -4.1875 2.15625 -6.5q2.15625 -2.3125 5.59375 -2.3125q3.328125 0 5.4375 2.265625q2.109375 2.265625 2.109375 6.375q0 0.25 -0.015625 0.75l-12.375 0q0.15625 2.734375 1.546875 4.1875q1.390625 1.453125 3.46875 1.453125q1.546875 0 2.640625 -0.8125q1.09375 -0.8125 1.734375 -2.59375zm-9.234375 -4.546875l9.265625 0q-0.1875 -2.09375 -1.0625 -3.140625q-1.34375 -1.625 -3.484375 -1.625q-1.9375 0 -3.265625 1.296875q-1.3125 1.296875 -1.453125 3.46875zm25.078125 9.890625l0 -22.90625l15.453125 0l0 2.703125l-12.421875 0l0 7.09375l10.75 0l0 2.703125l-10.75 0l0 10.40625l-3.03125 0zm19.046875 -19.671875l0 -3.234375l2.8125 0l0 3.234375l-2.8125 0zm0 19.671875l0 -16.59375l2.8125 0l0 16.59375l-2.8125 0zm7.03125 0l0 -22.90625l2.8125 0l0 22.90625l-2.8125 0zm13.3125 -2.515625l0.40625 2.484375q-1.1875 0.25 -2.125 0.25q-1.53125 0 -2.375 -0.484375q-0.84375 -0.484375 -1.1875 -1.265625q-0.34375 -0.796875 -0.34375 -3.328125l0 -9.546875l-2.0625 0l0 -2.1875l2.0625 0l0 -4.109375l2.796875 -1.6875l0 5.796875l2.828125 0l0 2.1875l-2.828125 0l0 9.703125q0 1.203125 0.140625 1.546875q0.15625 0.34375 0.484375 0.546875q0.34375 0.203125 0.96875 0.203125q0.46875 0 1.234375 -0.109375zm14.109375 -2.828125l2.90625 0.359375q-0.6875 2.546875 -2.546875 3.953125q-1.859375 1.40625 -4.75 1.40625q-3.640625 0 -5.78125 -2.234375q-2.125 -2.25 -2.125 -6.296875q0 -4.1875 2.15625 -6.5q2.15625 -2.3125 5.59375 -2.3125q3.328125 0 5.4375 2.265625q2.109375 2.265625 2.109375 6.375q0 0.25 -0.015625 0.75l-12.375 0q0.15625 2.734375 1.546875 4.1875q1.390625 1.453125 3.46875 1.453125q1.546875 0 2.640625 -0.8125q1.09375 -0.8125 1.734375 -2.59375zm-9.234375 -4.546875l9.265625 0q-0.1875 -2.09375 -1.0625 -3.140625q-1.34375 -1.625 -3.484375 -1.625q-1.9375 0 -3.265625 1.296875q-1.3125 1.296875 -1.453125 3.46875zm15.640625 9.890625l0 -16.59375l2.53125 0l0 2.515625q0.96875 -1.765625 1.78125 -2.328125q0.828125 -0.5625 1.8125 -0.5625q1.421875 0 2.890625 0.90625l-0.96875 2.609375q-1.03125 -0.609375 -2.0625 -0.609375q-0.921875 0 -1.65625 0.5625q-0.734375 0.546875 -1.046875 1.53125q-0.46875 1.5 -0.46875 3.28125l0 8.6875l-2.8125 0z" fill-rule="nonzero"/><path fill="#000000" d="m708.8858 355.65747l168.06299 0l0 -22.2677l44.53546 44.53543l-44.53546 44.53543l0 -22.26773l-168.06299 0z" fill-rule="evenodd"/><path stroke="#000000" stroke-width="1.0" stroke-linejoin="round" stroke-linecap="butt" d="m708.8858 355.65747l168.06299 0l0 -22.2677l44.53546 44.53543l-44.53546 44.53543l0 -22.26773l-168.06299 0z" fill-rule="evenodd"/><path fill="#0000ff" d="m986.95276 200.72704l102.04724 0l0 88.598434l-102.04724 0z" fill-rule="evenodd"/><path stroke="#000000" stroke-width="1.0" stroke-linejoin="round" stroke-linecap="butt" d="m986.95276 200.72704l102.04724 0l0 88.598434l-102.04724 0z" fill-rule="evenodd"/><path fill="#0000ff" d="m1089.0 200.72704l102.04724 0l0 88.598434l-102.04724 0z" fill-rule="evenodd"/><path stroke="#000000" stroke-width="1.0" stroke-linejoin="round" stroke-linecap="butt" d="m1089.0 200.72704l102.04724 0l0 88.598434l-102.04724 0z" fill-rule="evenodd"/><path fill="#ffffff" d="m1191.0472 200.72704l102.04724 0l0 88.598434l-102.04724 0z" fill-rule="evenodd"/><path stroke="#000000" stroke-width="1.0" stroke-linejoin="round" stroke-linecap="butt" d="m1191.0472 200.72704l102.04724 0l0 88.598434l-102.04724 0z" fill-rule="evenodd"/><path fill="#ffffff" d="m1293.0945 200.72704l102.04724 0l0 88.598434l-102.04724 0z" fill-rule="evenodd"/><path stroke="#000000" stroke-width="1.0" stroke-linejoin="round" stroke-linecap="butt" d="m1293.0945 200.72704l102.04724 0l0 88.598434l-102.04724 0z" fill-rule="evenodd"/><path fill="#0000ff" d="m986.95276 289.32547l102.04724 0l0 88.59842l-102.04724 0z" fill-rule="evenodd"/><path stroke="#000000" stroke-width="1.0" stroke-linejoin="round" stroke-linecap="butt" d="m986.95276 289.32547l102.04724 0l0 88.59842l-102.04724 0z" fill-rule="evenodd"/><path fill="#0000ff" d="m1089.0 289.32547l102.04724 0l0 88.59842l-102.04724 0z" fill-rule="evenodd"/><path stroke="#000000" stroke-width="1.0" stroke-linejoin="round" stroke-linecap="butt" d="m1089.0 289.32547l102.04724 0l0 88.59842l-102.04724 0z" fill-rule="evenodd"/><path fill="#ffffff" d="m1191.0472 289.32547l102.04724 0l0 88.59842l-102.04724 0z" fill-rule="evenodd"/><path stroke="#000000" stroke-width="1.0" stroke-linejoin="round" stroke-linecap="butt" d="m1191.0472 289.32547l102.04724 0l0 88.59842l-102.04724 0z" fill-rule="evenodd"/><path fill="#ffffff" d="m1293.0945 289.32547l102.04724 0l0 88.59842l-102.04724 0z" fill-rule="evenodd"/><path stroke="#000000" stroke-width="1.0" stroke-linejoin="round" stroke-linecap="butt" d="m1293.0945 289.32547l102.04724 0l0 88.59842l-102.04724 0z" fill-rule="evenodd"/><path fill="#ffffff" d="m986.95276 377.9239l102.04724 0l0 88.59842l-102.04724 0z" fill-rule="evenodd"/><path stroke="#000000" stroke-width="1.0" stroke-linejoin="round" stroke-linecap="butt" d="m986.95276 377.9239l102.04724 0l0 88.59842l-102.04724 0z" fill-rule="evenodd"/><path fill="#ffffff" d="m1089.0 377.9239l102.04724 0l0 88.59842l-102.04724 0z" fill-rule="evenodd"/><path stroke="#000000" stroke-width="1.0" stroke-linejoin="round" stroke-linecap="butt" d="m1089.0 377.9239l102.04724 0l0 88.59842l-102.04724 0z" fill-rule="evenodd"/><path fill="#ffffff" d="m1191.0472 377.9239l102.04724 0l0 88.59842l-102.04724 0z" fill-rule="evenodd"/><path stroke="#000000" stroke-width="1.0" stroke-linejoin="round" stroke-linecap="butt" d="m1191.0472 377.9239l102.04724 0l0 88.59842l-102.04724 0z" fill-rule="evenodd"/><path fill="#ffffff" d="m1293.0945 377.9239l102.04724 0l0 88.59842l-102.04724 0z" fill-rule="evenodd"/><path stroke="#000000" stroke-width="1.0" stroke-linejoin="round" stroke-linecap="butt" d="m1293.0945 377.9239l102.04724 0l0 88.59842l-102.04724 0z" fill-rule="evenodd"/><path fill="#ffffff" d="m986.95276 466.5223l102.04724 0l0 88.59842l-102.04724 0z" fill-rule="evenodd"/><path stroke="#000000" stroke-width="1.0" stroke-linejoin="round" stroke-linecap="butt" d="m986.95276 466.5223l102.04724 0l0 88.59842l-102.04724 0z" fill-rule="evenodd"/><path fill="#ffffff" d="m1089.0 466.5223l102.04724 0l0 88.59842l-102.04724 0z" fill-rule="evenodd"/><path stroke="#000000" stroke-width="1.0" stroke-linejoin="round" stroke-linecap="butt" d="m1089.0 466.5223l102.04724 0l0 88.59842l-102.04724 0z" fill-rule="evenodd"/><path fill="#ffffff" d="m1191.0472 466.5223l102.04724 0l0 88.59842l-102.04724 0z" fill-rule="evenodd"/><path stroke="#000000" stroke-width="1.0" stroke-linejoin="round" stroke-linecap="butt" d="m1191.0472 466.5223l102.04724 0l0 88.59842l-102.04724 0z" fill-rule="evenodd"/><path fill="#ffffff" d="m1293.0945 466.5223l102.04724 0l0 88.59842l-102.04724 0z" fill-rule="evenodd"/><path stroke="#000000" stroke-width="1.0" stroke-linejoin="round" stroke-linecap="butt" d="m1293.0945 466.5223l102.04724 0l0 88.59842l-102.04724 0z" fill-rule="evenodd"/><path fill="#0000ff" d="m399.88715 89.26378l150.83466 0l0 -8.692909l17.385803 17.385826l-17.385803 17.385826l0 -8.692917l-150.83466 0z" fill-rule="evenodd"/><path stroke="#0000ff" stroke-width="1.0" stroke-linejoin="round" stroke-linecap="butt" d="m399.88715 89.26378l150.83466 0l0 -8.692909l17.385803 17.385826l-17.385803 17.385826l0 -8.692917l-150.83466 0z" fill-rule="evenodd"/><path fill="#000000" fill-opacity="0.0" d="m380.83203 30.08399l206.33069 0l0 50.48819l-206.33069 0z" fill-rule="evenodd"/><path fill="#000000" d="m437.40363 62.444614l2.859375 -0.25q0.203125 1.71875 0.9375 2.8281288q0.75 1.09375 2.3125 1.78125q1.5625 0.671875 3.515625 0.671875q1.734375 0 3.0625 -0.515625q1.328125 -0.515625 1.96875 -1.40625q0.65625 -0.90625 0.65625 -1.9687538q0 -1.078125 -0.625 -1.875q-0.625 -0.8125 -2.0625 -1.359375q-0.921875 -0.359375 -4.078125 -1.109375q-3.15625 -0.765625 -4.421875 -1.4375q-1.640625 -0.859375 -2.453125 -2.125q-0.796875 -1.28125 -0.796875 -2.859375q0 -1.734375 0.984375 -3.234375q0.984375 -1.515625 2.875 -2.296875q1.890625 -0.78125 4.203125 -0.78125q2.546875 0 4.484375 0.828125q1.953125 0.8125 3.0 2.40625q1.046875 1.59375 1.125 3.609375l-2.90625 0.21875q-0.234375 -2.171875 -1.59375 -3.28125q-1.34375 -1.109375 -3.984375 -1.109375q-2.75 0 -4.015625 1.015625q-1.25 1.0 -1.25 2.421875q0 1.234375 0.890625 2.03125q0.875 0.796875 4.5625 1.640625q3.703125 0.828125 5.078125 1.453125q2.0 0.921875 2.953125 2.34375q0.953125 1.40625 0.953125 3.25q0 1.8281288 -1.046875 3.4531288q-1.046875 1.609375 -3.015625 2.515625q-1.953125 0.890625 -4.40625 0.890625q-3.109375 0 -5.21875 -0.90625q-2.09375 -0.90625 -3.296875 -2.71875q-1.1875 -1.828125 -1.25 -4.125004zm21.953125 7.359379l0 -22.906254l2.8125 0l0 22.906254l-2.8125 0zm7.1875 -19.671879l0 -3.234375l2.8125 0l0 3.234375l-2.8125 0zm0 19.671879l0 -16.593754l2.8125 0l0 16.593754l-2.8125 0zm17.859375 0l0 -2.09375q-1.578125 2.46875 -4.640625 2.46875q-1.984375 0 -3.65625 -1.09375q-1.65625 -1.09375 -2.578125 -3.046875q-0.90625 -1.96875 -0.90625 -4.515629q0 -2.484375 0.828125 -4.5q0.828125 -2.03125 2.484375 -3.109375q1.65625 -1.078125 3.703125 -1.078125q1.5 0 2.671875 0.640625q1.171875 0.625 1.90625 1.640625l0 -8.21875l2.796875 0l0 22.906254l-2.609375 0zm-8.890625 -8.281254q0 3.1875038 1.34375 4.765629q1.34375 1.578125 3.171875 1.578125q1.84375 0 3.125 -1.5q1.296875 -1.515625 1.296875 -4.609379q0 -3.40625 -1.3125 -5.0q-1.3125 -1.59375 -3.234375 -1.59375q-1.875 0 -3.140625 1.53125q-1.25 1.53125 -1.25 4.828125zm15.9375 -11.390625l0 -3.234375l2.8125 0l0 3.234375l-2.8125 0zm0 19.671879l0 -16.593754l2.8125 0l0 16.593754l-2.8125 0zm7.09375 0l0 -16.593754l2.53125 0l0 2.359375q1.828125 -2.734375 5.28125 -2.734375q1.5 0 2.75 0.546875q1.265625 0.53125 1.890625 1.40625q0.625 0.875 0.875 2.078125q0.15625 0.78125 0.15625 2.734375l0 10.203129l-2.8125 0l0 -10.093754q0 -1.71875 -0.328125 -2.5625q-0.328125 -0.859375 -1.171875 -1.359375q-0.828125 -0.515625 -1.953125 -0.515625q-1.796875 0 -3.109375 1.140625q-1.296875 1.140625 -1.296875 4.328125l0 9.062504l-2.8125 0zm17.28125 1.375l2.734375 0.40625q0.171875 1.265625 0.953125 1.84375q1.046875 0.78125 2.859375 0.78125q1.953125 0 3.015625 -0.78125q1.0625 -0.78125 1.4375 -2.1875q0.21875 -0.859375 0.203125 -3.609375q-1.84375 2.171875 -4.59375 2.171875q-3.421875 0 -5.296875 -2.46875q-1.875 -2.46875 -1.875 -5.921879q0 -2.375 0.859375 -4.375q0.859375 -2.015625 2.484375 -3.109375q1.640625 -1.09375 3.84375 -1.09375q2.9375 0 4.84375 2.375l0 -2.0l2.59375 0l0 14.343754q0 3.875 -0.796875 5.484375q-0.78125 1.625 -2.5 2.5625q-1.703125 0.9375 -4.203125 0.9375q-2.96875 0 -4.796875 -1.34375q-1.828125 -1.328125 -1.765625 -4.015625zm2.328125 -9.968754q0 3.2656288 1.296875 4.765629q1.296875 1.5 3.25 1.5q1.9375 0 3.25 -1.484375q1.3125 -1.5 1.3125 -4.687504q0 -3.046875 -1.359375 -4.59375q-1.34375 -1.546875 -3.25 -1.546875q-1.875 0 -3.1875 1.53125q-1.3125 1.515625 -1.3125 4.515625z" fill-rule="nonzero"/><path fill="#0000ff" d="m162.28609 328.0013l9.81102 0l0 -127.27559l19.622055 0l0 127.27559l9.81102 0l-19.62204 19.62204z" fill-rule="evenodd"/><path stroke="#0000ff" stroke-width="1.0" stroke-linejoin="round" stroke-linecap="butt" d="m162.28609 328.0013l9.81102 0l0 -127.27559l19.622055 0l0 127.27559l9.81102 0l-19.62204 19.62204z" fill-rule="evenodd"/><path fill="#000000" fill-opacity="0.0" d="m46.782154 242.49344l115.49606 0l0 50.48819l-115.49606 0z" fill-rule="evenodd"/><path fill="#000000" d="m57.936436 274.85406l2.859375 -0.25q0.203125 1.71875 0.9375 2.828125q0.75 1.09375 2.3124962 1.78125q1.5625 0.671875 3.515625 0.671875q1.734375 0 3.0625 -0.515625q1.328125 -0.515625 1.96875 -1.40625q0.65625 -0.90625 0.65625 -1.96875q0 -1.078125 -0.625 -1.875q-0.625 -0.8125 -2.0625 -1.359375q-0.921875 -0.359375 -4.078125 -1.109375q-3.1562462 -0.765625 -4.421871 -1.4375q-1.640625 -0.859375 -2.453125 -2.125q-0.796875 -1.28125 -0.796875 -2.859375q0 -1.734375 0.984375 -3.234375q0.984375 -1.515625 2.875 -2.296875q1.8906212 -0.78125 4.203121 -0.78125q2.546875 0 4.484375 0.828125q1.953125 0.8125 3.0 2.40625q1.046875 1.59375 1.125 3.609375l-2.90625 0.21875q-0.234375 -2.171875 -1.59375 -3.28125q-1.34375 -1.109375 -3.984375 -1.109375q-2.75 0 -4.015621 1.015625q-1.25 1.0 -1.25 2.421875q0 1.234375 0.890625 2.03125q0.875 0.796875 4.562496 1.640625q3.703125 0.828125 5.078125 1.453125q2.0 0.921875 2.953125 2.34375q0.953125 1.40625 0.953125 3.25q0 1.828125 -1.046875 3.453125q-1.046875 1.609375 -3.015625 2.515625q-1.953125 0.890625 -4.40625 0.890625q-3.109375 0 -5.218746 -0.90625q-2.09375 -0.90625 -3.296875 -2.71875q-1.1875 -1.828125 -1.25 -4.125zm21.953121 7.359375l0 -22.90625l2.8125 0l0 22.90625l-2.8125 0zm7.1875 -19.671875l0 -3.234375l2.8125 0l0 3.234375l-2.8125 0zm0 19.671875l0 -16.59375l2.8125 0l0 16.59375l-2.8125 0zm17.859375 0l0 -2.09375q-1.578125 2.46875 -4.640625 2.46875q-1.984375 0 -3.65625 -1.09375q-1.65625 -1.09375 -2.578125 -3.046875q-0.90625 -1.96875 -0.90625 -4.515625q0 -2.484375 0.828125 -4.5q0.828125 -2.03125 2.484375 -3.109375q1.65625 -1.078125 3.703125 -1.078125q1.5 0 2.671875 0.640625q1.171875 0.625 1.90625 1.640625l0 -8.21875l2.796875 0l0 22.90625l-2.609375 0zm-8.890625 -8.28125q0 3.1875 1.34375 4.765625q1.34375 1.578125 3.171875 1.578125q1.84375 0 3.125 -1.5q1.296875 -1.515625 1.296875 -4.609375q0 -3.40625 -1.3125 -5.0q-1.3125 -1.59375 -3.234375 -1.59375q-1.875 0 -3.140625 1.53125q-1.25 1.53125 -1.25 4.828125zm15.9375 -11.390625l0 -3.234375l2.8125 0l0 3.234375l-2.8125 0zm0 19.671875l0 -16.59375l2.8125 0l0 16.59375l-2.8125 0zm7.09375 0l0 -16.59375l2.53125 0l0 2.359375q1.828125 -2.734375 5.28125 -2.734375q1.5 0 2.75 0.546875q1.265625 0.53125 1.890625 1.40625q0.625 0.875 0.875 2.078125q0.15625 0.78125 0.15625 2.734375l0 10.203125l-2.8125 0l0 -10.09375q0 -1.71875 -0.328125 -2.5625q-0.328125 -0.859375 -1.171875 -1.359375q-0.828125 -0.515625 -1.953125 -0.515625q-1.796875 0 -3.109375 1.140625q-1.296875 1.140625 -1.296875 4.328125l0 9.0625l-2.8125 0zm17.28125 1.375l2.734375 0.40625q0.171875 1.265625 0.953125 1.84375q1.046875 0.78125 2.859375 0.78125q1.953125 0 3.015625 -0.78125q1.0625 -0.78125 1.4375 -2.1875q0.21875 -0.859375 0.203125 -3.609375q-1.84375 2.171875 -4.59375 2.171875q-3.421875 0 -5.296875 -2.46875q-1.875 -2.46875 -1.875 -5.921875q0 -2.375 0.859375 -4.375q0.859375 -2.015625 2.484375 -3.109375q1.640625 -1.09375 3.84375 -1.09375q2.9375 0 4.84375 2.375l0 -2.0l2.59375 0l0 14.34375q0 3.875 -0.796875 5.484375q-0.78125 1.625 -2.5 2.5625q-1.703125 0.9375 -4.203125 0.9375q-2.96875 0 -4.796875 -1.34375q-1.828125 -1.328125 -1.765625 -4.015625zm2.328125 -9.96875q0 3.265625 1.296875 4.765625q1.296875 1.5 3.25 1.5q1.9375 0 3.25 -1.484375q1.3125 -1.5 1.3125 -4.6875q0 -3.046875 -1.359375 -4.59375q-1.34375 -1.546875 -3.25 -1.546875q-1.875 0 -3.1875 1.53125q-1.3125 1.515625 -1.3125 4.515625z" fill-rule="nonzero"/></g></svg>